<svg id="facebook-round-color-icon" xmlns="http://www.w3.org/2000/svg" width="30.618" height="30.618" viewBox="0 0 30.618 30.618">
  <path id="Path_1796" data-name="Path 1796" d="M30.618,15.309A15.309,15.309,0,1,0,11.611,30.167V19.987H8.454V15.309h3.157V13.293c0-5.211,2.358-7.626,7.473-7.626a16.885,16.885,0,0,1,3.328.381v4.241c-.362-.038-.989-.057-1.768-.057-2.51,0-3.48.951-3.48,3.423v1.654h5l-.859,4.678H17.163V30.506A15.311,15.311,0,0,0,30.618,15.309Z" fill="#0866ff"/>
  <path id="Path_1797" data-name="Path 1797" d="M153.391,108.53l.859-4.678h-5V102.2c0-2.472.97-3.423,3.48-3.423.78,0,1.407.019,1.768.057V94.591a16.886,16.886,0,0,0-3.328-.381c-5.115,0-7.473,2.416-7.473,7.626v2.016H140.54v4.678H143.7v10.18a15.411,15.411,0,0,0,5.553.339V108.53Z" transform="translate(-132.086 -88.543)" fill="#fff"/>
</svg>
