<svg id="Group_100" data-name="Group 100" xmlns="http://www.w3.org/2000/svg" width="31.166" height="31.89" viewBox="0 0 31.166 31.89">
  <ellipse id="Group_75894" data-name="Group 75894" cx="15.583" cy="15.945" rx="15.583" ry="15.945" fill="red"/>
  <path id="Path_47" data-name="Path 47" d="M55.782,79.222a42.518,42.518,0,0,0-5.414.282,1.789,1.789,0,0,0-1.223,1.231,19.8,19.8,0,0,0,0,6.662,1.762,1.762,0,0,0,1.223,1.223,41.346,41.346,0,0,0,5.414.291A42.637,42.637,0,0,0,61.2,88.63a1.721,1.721,0,0,0,1.214-1.223,17.868,17.868,0,0,0,.291-3.327,17.315,17.315,0,0,0-.291-3.344A1.709,1.709,0,0,0,61.2,79.522a40.225,40.225,0,0,0-5.422-.3Zm-1.377,2.771,3.6,2.078-3.6,2.07Z" transform="translate(-39.908 -67.37)" fill="#fff"/>
</svg>
