<svg xmlns="http://www.w3.org/2000/svg" width="178" height="58" viewBox="0 0 178 58">
  <g id="Group_77373" data-name="Group 77373" transform="translate(-30 -12.187)">
    <text id="Parthu" transform="translate(102 39.187)" fill="#fff" font-size="28" font-family="Montserrat-ExtraBold, Montserrat" font-weight="800"><tspan x="0" y="0">Parthu</tspan></text>
    <text id="Infotech" transform="translate(102 63.187)" fill="#fff" font-size="25" font-family="Montserrat-Medium, Montserrat" font-weight="500"><tspan x="0" y="0">Infotech</tspan></text>
    <g id="Group_88" data-name="Group 88" transform="translate(30 12.924)">
      <path id="Path_16" data-name="Path 16" d="M28.632,0A28.632,28.632,0,1,1,0,28.632,28.632,28.632,0,0,1,28.632,0Z" fill="#1a47e6"/>
      <g id="Group_86" data-name="Group 86" transform="translate(18.472 6.921)">
        <path id="Path_24" data-name="Path 24" d="M11.73,45.09a2.7,2.7,0,0,0,.185-.831V35.3L0,41.3l9.236,4.618A1.851,1.851,0,0,0,11.73,45.09Z" transform="translate(0 -2.698)" fill="#fff"/>
        <path id="Path_25" data-name="Path 25" d="M26.323,16.81l-.185-.185L12.653.924A2.832,2.832,0,0,0,8.867.554L0,7.3v31.31L25.584,20.689A2.815,2.815,0,0,0,26.323,16.81Z" transform="translate(0 -0.001)" fill="#fff"/>
      </g>
    </g>
  </g>
</svg>
