<svg id="linkedin-svgrepo-com" xmlns="http://www.w3.org/2000/svg" width="30.01" height="30.01" viewBox="0 0 30.01 30.01">
  <g id="Group_101" data-name="Group 101" transform="translate(0)">
    <path id="Path_1803" data-name="Path 1803" d="M15.005,0A15.005,15.005,0,1,1,0,15.005,15.005,15.005,0,0,1,15.005,0Z" transform="translate(0)" fill="#0e76a8"/>
    <path id="Path_1804" data-name="Path 1804" d="M81.948,85.944h2.81V76.579h-2.81Zm10.946-9.689a4.217,4.217,0,0,0-3.449,1.6v-1.3h-2.82v9.4h2.82V80.863a2.231,2.231,0,0,1,2.216-2.121c1.232,0,1.536,1.048,1.536,2.1v5.106h2.81V80.628C96.007,76.936,94.259,76.255,92.894,76.255Zm-9.555-.611a1.407,1.407,0,1,0-1.407-1.407A1.407,1.407,0,0,0,83.34,75.643Z" transform="translate(-73.493 -65.327)" fill="#fff"/>
  </g>
</svg>
