<svg id="Group_103" data-name="Group 103" xmlns="http://www.w3.org/2000/svg" width="31.166" height="31.89" viewBox="0 0 31.166 31.89">
  <ellipse id="Group_75894" data-name="Group 75894" cx="15.583" cy="15.945" rx="15.583" ry="15.945" transform="translate(0)" fill="#1d9bf0"/>
  <path id="Logo_of_Twitter" d="M14.689,4.582c.009.134.009.269.009.4a8.842,8.842,0,0,1-8.9,8.9v0a8.857,8.857,0,0,1-4.8-1.4,6.365,6.365,0,0,0,.745.045,6.283,6.283,0,0,0,3.886-1.342A3.133,3.133,0,0,1,2.707,9.015,3.119,3.119,0,0,0,4.12,8.961,3.129,3.129,0,0,1,1.61,5.894v-.04a3.109,3.109,0,0,0,1.42.392,3.133,3.133,0,0,1-.968-4.178A8.88,8.88,0,0,0,8.51,5.337a3.132,3.132,0,0,1,5.332-2.854,6.278,6.278,0,0,0,1.987-.76,3.14,3.14,0,0,1-1.375,1.73,6.222,6.222,0,0,0,1.8-.493,6.356,6.356,0,0,1-1.561,1.621Z" transform="translate(6.973 8.978)" fill="#fff"/>
</svg>
