<svg xmlns="http://www.w3.org/2000/svg" width="42.245" height="42.244" viewBox="0 0 42.245 42.244"><path d="M42.244,21.122a21.122,21.122,0,1,0-26.225,20.5V27.577H11.664V21.122H16.02V18.341c0-7.19,3.253-10.522,10.311-10.522a23.3,23.3,0,0,1,4.592.525V14.2c-.5-.052-1.364-.079-2.44-.079-3.463,0-4.8,1.312-4.8,4.723v2.282h6.9L29.4,27.577H23.681V42.09A21.125,21.125,0,0,0,42.244,21.122Z" fill="#0866ff"/><path d="M158.271,113.968l1.185-6.455h-6.9v-2.282c0-3.411,1.339-4.723,4.8-4.723,1.076,0,1.941.027,2.44.079V94.735a23.3,23.3,0,0,0-4.592-.525c-7.058,0-10.311,3.333-10.311,10.522v2.781H140.54v6.455H144.9v14.046a21.262,21.262,0,0,0,7.661.467V113.968Z" transform="translate(-128.876 -86.391)" fill="#fff"/></svg>