<svg xmlns="http://www.w3.org/2000/svg" width="41.406" height="41.406" viewBox="0 0 41.406 41.406"><path d="M20.7,0A20.7,20.7,0,1,1,0,20.7,20.7,20.7,0,0,1,20.7,0Z" fill="#0e76a8"/><path d="M81.954,90.924H85.83V78H81.954Zm15.1-13.369a5.819,5.819,0,0,0-4.759,2.2v-1.8H88.407V90.925H92.3V83.914a3.078,3.078,0,0,1,3.058-2.927c1.7,0,2.119,1.445,2.119,2.891v7.046h3.877V83.589C101.351,78.495,98.939,77.556,97.057,77.556Zm-13.183-.844a1.941,1.941,0,1,0-1.941-1.941A1.942,1.942,0,0,0,83.874,76.712Z" transform="translate(-70.288 -62.479)" fill="#fff"/></svg>