<svg xmlns="http://www.w3.org/2000/svg" width="43" height="44" viewBox="0 0 43 44"><g transform="translate(-597 -3872)"><ellipse cx="21.5" cy="22" rx="21.5" ry="22" transform="translate(597 3872)" fill="#1d9bf0"/><path d="M19.887,5.754c.013.185.013.371.013.558A12.2,12.2,0,0,1,7.617,18.595v0A12.221,12.221,0,0,1,1,16.656a8.781,8.781,0,0,0,1.027.062,8.668,8.668,0,0,0,5.361-1.852,4.322,4.322,0,0,1-4.033-3A4.3,4.3,0,0,0,5.3,11.795,4.317,4.317,0,0,1,1.842,7.563V7.509a4.29,4.29,0,0,0,1.959.54A4.322,4.322,0,0,1,2.465,2.285a12.252,12.252,0,0,0,8.9,4.51,4.321,4.321,0,0,1,7.357-3.937A8.662,8.662,0,0,0,21.46,1.81a4.333,4.333,0,0,1-1.9,2.387,8.585,8.585,0,0,0,2.479-.68,8.77,8.77,0,0,1-2.154,2.236Z" transform="translate(607 3884.955)" fill="#fff"/></g></svg>