<svg xmlns="http://www.w3.org/2000/svg" width="43" height="44" viewBox="0 0 43 44"><g transform="translate(-725 -3872)"><ellipse cx="21.5" cy="22" rx="21.5" ry="22" transform="translate(725 3872)" fill="red"/><path d="M58.409,79.222a58.663,58.663,0,0,0-7.469.389,2.469,2.469,0,0,0-1.687,1.7,27.318,27.318,0,0,0,0,9.192A2.431,2.431,0,0,0,50.94,92.19a57.045,57.045,0,0,0,7.469.4,58.827,58.827,0,0,0,7.481-.389,2.374,2.374,0,0,0,1.675-1.687,24.652,24.652,0,0,0,.4-4.59,23.89,23.89,0,0,0-.4-4.614,2.359,2.359,0,0,0-1.675-1.675c-1.5-.413-7.481-.413-7.481-.413Zm-1.9,3.823,4.968,2.867L56.51,88.769Z" transform="translate(688.492 3809.13)" fill="#fff"/></g></svg>