<svg xmlns="http://www.w3.org/2000/svg" width="197" height="63" viewBox="0 0 197 63"><g transform="translate(-30 -12)"><text transform="translate(108 42)" fill="#fff" font-size="31" font-family="Montserrat-Bold, Montserrat" font-weight="700"><tspan x="0" y="0">Parthu</tspan></text><text transform="translate(108 68)" fill="#fff" font-size="28" font-family="Montserrat-Medium, Montserrat" font-weight="500"><tspan x="0" y="0">Infotech</tspan></text><path d="M31,0A31,31,0,1,1,0,31,31,31,0,0,1,31,0Z" transform="translate(30 13)" fill="#3a10e5"/><g transform="translate(50 20.492)"><path d="M12.7,45.9a2.92,2.92,0,0,0,.2-.9V35.3L0,41.8l10,5A2,2,0,0,0,12.7,45.9Z" fill="#fff"/><path d="M28.5,18.2l-.2-.2L13.7,1A3.066,3.066,0,0,0,9.6.6L0,7.9V41.8L27.7,22.4A3.048,3.048,0,0,0,28.5,18.2Z" fill="#fff"/></g></g></svg>