<svg xmlns="http://www.w3.org/2000/svg" width="16.82" height="16.821" viewBox="0 0 16.82 16.821"><path d="M11.171.647A.729.729,0,0,1,11.961,0a.729.729,0,0,1,.79.647V3.484a.729.729,0,0,1-.79.647.729.729,0,0,1-.79-.647V.647Zm-7.118,0A.729.729,0,0,1,4.843,0a.729.729,0,0,1,.79.647V3.484a.729.729,0,0,1-.79.647.729.729,0,0,1-.79-.647V.647ZM.876,6.2H15.944V2.939a.4.4,0,0,0-.118-.283.4.4,0,0,0-.283-.118H14.1a.438.438,0,1,1,0-.876h1.444A1.281,1.281,0,0,1,16.82,2.939V15.544a1.281,1.281,0,0,1-1.277,1.277H1.277A1.281,1.281,0,0,1,0,15.543V2.939A1.281,1.281,0,0,1,1.277,1.662H2.82a.438.438,0,1,1,0,.876H1.277a.4.4,0,0,0-.283.118.4.4,0,0,0-.118.283V6.2Zm15.068.877H.876v8.462a.4.4,0,0,0,.118.283.4.4,0,0,0,.283.118H15.543a.4.4,0,0,0,.283-.118.4.4,0,0,0,.118-.283V7.081ZM6.9,2.538a.438.438,0,1,1,0-.876H9.844a.438.438,0,0,1,0,.876Z"/></svg>