<svg xmlns="http://www.w3.org/2000/svg" width="16.82" height="15.049" viewBox="0 0 16.82 15.049"><path d="M142.562,97.176a2.265,2.265,0,1,1-.663-1.6A2.266,2.266,0,0,1,142.562,97.176Zm6.869-1.275h0a.436.436,0,0,0-.62.053l-5.524,6.6a3.093,3.093,0,0,0-6.091.77v.885a.442.442,0,0,0,.443.443h5.311a.442.442,0,0,0,.443-.443V103.8l6.09-7.277h0a.437.437,0,0,0-.053-.62Zm4.143,3.435h-.443V90.483h.443a.443.443,0,0,0,0-.885H138.525a.443.443,0,0,0,0,.885h.443v3.1a.443.443,0,1,0,.885,0v-3.1h12.393v8.852h-3.984a.443.443,0,1,0,0,.885h5.311a.443.443,0,1,0,0-.885Zm-3.541-6.2a.443.443,0,1,0,0-.885h-5.311a.443.443,0,1,0,0,.885Zm-7.525,1.328a.442.442,0,0,0,.443.443h7.082a.443.443,0,1,0,0-.885h-7.082a.442.442,0,0,0-.443.443Z" transform="translate(-137.197 -89.598)"/></svg>