<svg xmlns="http://www.w3.org/2000/svg" width="13.961" height="12.491" viewBox="0 0 13.961 12.491">
  <path id="noun-teacher-3847735" d="M141.65,95.888a1.88,1.88,0,1,1-.551-1.33A1.881,1.881,0,0,1,141.65,95.888Zm5.7-1.058h0a.362.362,0,0,0-.514.044l-4.585,5.474a2.567,2.567,0,0,0-5.055.639v.735a.367.367,0,0,0,.367.367h4.409a.367.367,0,0,0,.367-.367v-.338l5.055-6.04h0a.362.362,0,0,0-.044-.514Zm3.439,2.851h-.368V90.333h.368a.367.367,0,0,0,0-.735H138.3a.367.367,0,1,0,0,.735h.367V92.9a.367.367,0,1,0,.735,0V90.333h10.287v7.348h-3.307a.367.367,0,0,0,0,.735h4.409a.367.367,0,0,0,0-.735Zm-2.939-5.144a.367.367,0,1,0,0-.735h-4.409a.367.367,0,1,0,0,.735Zm-6.246,1.1a.367.367,0,0,0,.367.367h5.878a.367.367,0,1,0,0-.735h-5.878A.367.367,0,0,0,141.606,93.639Z" transform="translate(-137.197 -89.598)"/>
</svg>
