<svg xmlns="http://www.w3.org/2000/svg" width="69" height="69" viewBox="0 0 69 69">
  <g id="Learn_Prepare" data-name="Learn &amp; Prepare" transform="translate(-613 -785)">
    <g id="DIV" transform="translate(613.418 785.418)">
      <rect id="Rectangle_4366" data-name="Rectangle 4366" width="69" height="69" rx="34.5" transform="translate(-0.418 -0.418)" fill="#07be00"/>
    </g>
    <g id="Address_book" data-name="Address book" transform="translate(647.5 819.853)">
      <g id="Group_688" data-name="Group 688" transform="translate(-21.5 -21.853)">
        <path id="Path_384" data-name="Path 384" d="M39.475,0H9.867A3.529,3.529,0,0,0,6.345,3.525V7.051H0V8.46H6.345V14.1H0v1.41H6.345v5.64H0v1.41H6.345V28.2H0v1.41H6.345v5.641H0v1.41H6.345v3.525a3.527,3.527,0,0,0,3.523,3.523H39.475A3.529,3.529,0,0,0,43,40.183V3.525A3.531,3.531,0,0,0,39.475,0ZM41.59,40.183A2.117,2.117,0,0,1,39.475,42.3H9.867a2.115,2.115,0,0,1-2.113-2.113V36.658H14.1v-1.41H7.754V29.607H14.1V28.2H7.754V22.559H14.1V21.15H7.754V15.508H14.1V14.1H7.754V8.46H14.1V7.051H7.754V3.525A2.117,2.117,0,0,1,9.867,1.41H39.475A2.12,2.12,0,0,1,41.59,3.525Z" fill="#fff"/>
        <path id="Path_385" data-name="Path 385" d="M18.34,13.288a4.934,4.934,0,1,0-5.6,0,7.762,7.762,0,0,0-4.953,7.224v2.113H23.294V20.512a7.762,7.762,0,0,0-4.954-7.224Zm.247-5.8a3.5,3.5,0,0,1-4.071-1.614,3.42,3.42,0,0,1,4.071,1.614Zm-6.565,1.8a4.884,4.884,0,0,0,1.73-2.037,4.881,4.881,0,0,0,3.8,1.832,4.751,4.751,0,0,0,1.475-.268,3.489,3.489,0,0,1,.042.41,3.522,3.522,0,1,1-7.043.063Zm9.862,11.92H9.2v-.7a6.344,6.344,0,0,1,12.687,0Z" transform="translate(12.655 6.983)" fill="#fff"/>
      </g>
    </g>
  </g>
</svg>
