<svg xmlns="http://www.w3.org/2000/svg" width="168.95" height="24.031" viewBox="0 0 168.95 24.031">
  <g id="HCL" transform="translate(0)">
    <path id="Path_3458" data-name="Path 3458" d="M21.7,305.983H39.975l3.886-9.1H61.91l-3.858,9.1H76.581L86.774,283.4H68.02l-3.407,7.687H46.676l3.266-7.687H31.668Z" transform="translate(-21.7 -282.374)" fill="#0066b3" fill-rule="evenodd"/>
    <path id="Path_3459" data-name="Path 3459" d="M289.937,288.3h17.43c-.282-3.858-3.886-6.336-11.066-7.434-14.389-2.2-29.9-1.38-40.97,4.674-8.87,4.956-9.4,12.108-.817,15.656,7.49,3.013,22.7,3.294,33.762,1.38,7.209-1.1,12.446-3.576,15.515-6.871H286.079c-2.2,1.661-5.266,2.478-8.842,2.759-9.968,0-11.348-3.013-9.4-6.589,1.943-3.858,6.364-6.336,13.009-6.336C286.051,285.26,288.557,286.358,289.937,288.3Z" transform="translate(-184.54 -279.757)" fill="#0066b3" fill-rule="evenodd"/>
    <path id="Path_3460" data-name="Path 3460" d="M482.959,283.4l-7.828,16.979H501.15l-2.112,5.6H453.9L464.093,283.4Z" transform="translate(-332.2 -282.374)" fill="#0066b3" fill-rule="evenodd"/>
  </g>
</svg>
