<svg xmlns="http://www.w3.org/2000/svg" width="235" height="96" viewBox="0 0 235 96">
  <g id="Google_Analytics" data-name="Google Analytics" transform="translate(-431 -3821)">
    <rect id="Rectangle_4316" data-name="Rectangle 4316" width="235" height="96" rx="9" transform="translate(431 3821)" fill="#fff"/>
    <g id="Logo_Google_Analytics" transform="translate(505 3853.998)">
      <g id="g6562" transform="translate(31.096 0.028)">
        <path id="path6536" d="M71.722,26.305a3.863,3.863,0,1,1-3.863-3.851A3.8,3.8,0,0,1,71.722,26.305Zm-1.691,0a2.177,2.177,0,1,0-2.172,2.333A2.218,2.218,0,0,0,70.031,26.305Z" transform="translate(-51.689 -18.196)" fill="#747474"/>
        <path id="path6538" d="M114.835,26.305a3.863,3.863,0,1,1-3.863-3.851A3.8,3.8,0,0,1,114.835,26.305Zm-1.691,0a2.177,2.177,0,1,0-2.172,2.333A2.218,2.218,0,0,0,113.144,26.305Z" transform="translate(-86.469 -18.196)" fill="#747474"/>
        <path id="path6540" d="M157.586,22.687V29.6c0,2.844-1.677,4.005-3.66,4.005a3.667,3.667,0,0,1-3.413-2.269l1.472-.613a2.127,2.127,0,0,0,1.939,1.366c1.269,0,2.056-.783,2.056-2.257v-.554h-.059a2.622,2.622,0,0,1-2.028.875,3.853,3.853,0,0,1,0-7.7,2.668,2.668,0,0,1,2.028.861h.059v-.627h1.606ZM156.1,26.319a2.169,2.169,0,0,0-2.056-2.347,2.342,2.342,0,0,0,0,4.667A2.152,2.152,0,0,0,156.1,26.319Z" transform="translate(-121.234 -18.196)" fill="#747474"/>
        <path id="path6542" d="M195.209,2.695V13.979H193.56V2.695Z" transform="translate(-156.21 -2.255)" fill="#747474"/>
        <path id="path6544" d="M211.483,27.565l1.312.875a3.833,3.833,0,0,1-3.208,1.707,3.768,3.768,0,0,1-3.821-3.851,3.659,3.659,0,0,1,3.632-3.851,3.576,3.576,0,0,1,3.3,2.45l.175.437-5.147,2.132a1.96,1.96,0,0,0,1.866,1.167,2.2,2.2,0,0,0,1.9-1.066Zm-4.04-1.385,3.441-1.429a1.491,1.491,0,0,0-1.429-.816A2.112,2.112,0,0,0,207.443,26.18Z" transform="translate(-166.057 -18.189)" fill="#747474"/>
        <path id="path6546" d="M6.387,7.53V5.9h5.505a5.413,5.413,0,0,1,.082.986A5.4,5.4,0,0,1,10.559,10.7a5.467,5.467,0,0,1-4.17,1.677A6.063,6.063,0,0,1,.323,6.4,6.063,6.063,0,0,1,6.389.422a5.7,5.7,0,0,1,4.1,1.648L9.334,3.222A4.164,4.164,0,0,0,6.387,2.056,4.289,4.289,0,0,0,2.1,6.4a4.289,4.289,0,0,0,4.288,4.345,4,4,0,0,0,3.019-1.2,3.386,3.386,0,0,0,.885-2.023Z" transform="translate(-0.323 -0.422)" fill="#747474"/>
      </g>
      <g id="g6607" transform="translate(30.979 16.305)">
        <g id="use3812" transform="translate(0 0.109)">
          <path id="path1196" d="M5.554-52.118l-1.7,4.689H7.318L5.609-52.118ZM2.4-43.367H.92L4.83-53.758H6.347l3.91,10.391H8.781l-1-2.816H3.408Zm0,0" transform="translate(-0.92 53.758)" fill="#747474"/>
        </g>
        <g id="use3814" transform="translate(10.011 3.158)">
          <path id="path1199" d="M4.173-37.752H5.459v.984h.055a2.305,2.305,0,0,1,.93-.861,2.688,2.688,0,0,1,1.313-.355,2.614,2.614,0,0,1,2.01.752,2.946,2.946,0,0,1,.711,2.119v4.471H9.136v-4.375a1.57,1.57,0,0,0-1.75-1.75,1.677,1.677,0,0,0-1.34.656,2.328,2.328,0,0,0-.533,1.531v3.938H4.173Zm0,0" transform="translate(-4.173 37.984)" fill="#747474"/>
        </g>
        <g id="use3818" transform="translate(17.406 3.158)">
          <path id="path1202" d="M3.5-32.816a1.076,1.076,0,0,0,.438.875,1.624,1.624,0,0,0,1.039.342,2.125,2.125,0,0,0,1.49-.615,1.964,1.964,0,0,0,.67-1.477,2.782,2.782,0,0,0-1.75-.492,2.243,2.243,0,0,0-1.354.4A1.157,1.157,0,0,0,3.5-32.816Zm1.723-5.168a3.282,3.282,0,0,1,2.324.793,2.812,2.812,0,0,1,.861,2.174v4.375H7.14v-.984H7.085A2.564,2.564,0,0,1,4.87-30.41a2.866,2.866,0,0,1-1.969-.7,2.233,2.233,0,0,1-.779-1.736,2.091,2.091,0,0,1,.834-1.75,3.5,3.5,0,0,1,2.229-.656,4.04,4.04,0,0,1,1.955.424v-.3A1.5,1.5,0,0,0,6.579-36.3a1.861,1.861,0,0,0-1.285-.492,2.021,2.021,0,0,0-1.764.943L2.354-36.59a3.269,3.269,0,0,1,2.871-1.395Zm0,0" transform="translate(-2.122 37.984)" fill="#747474"/>
        </g>
        <g id="use3820" transform="translate(25.151 0.109)">
          <path id="path1205" d="M5.513-53.758v10.391H4.173V-53.758Zm0,0" transform="translate(-4.173 53.758)" fill="#747474"/>
        </g>
        <g id="use3822" transform="translate(27.257 3.391)">
          <path id="path1208" d="M7.392-36.782,2.935-26.542H1.568l1.654-3.582L.283-36.782H1.732l2.119,5.113h.027l2.064-5.113Zm0,0" transform="translate(-0.283 36.782)" fill="#747474"/>
        </g>
        <g id="use3826" transform="translate(34.756 1.217)">
          <path id="path1211" d="M5.05-38.636a2.029,2.029,0,0,1-1.436-.533,1.964,1.964,0,0,1-.588-1.49v-3.979H1.768v-1.217H3.026v-2.174H4.352v2.174H6.1v1.217H4.352V-41.1a1.313,1.313,0,0,0,.273.971.944.944,0,0,0,.629.246,1.583,1.583,0,0,0,.314-.027,2.571,2.571,0,0,0,.287-.1l.41,1.189A3.836,3.836,0,0,1,5.05-38.636Zm0,0" transform="translate(-1.768 48.029)" fill="#747474"/>
        </g>
        <g id="use3830" transform="translate(40.125 0)">
          <path id="path1214" d="M5.282-53.381a.916.916,0,0,1-.287.67.893.893,0,0,1-.656.273.9.9,0,0,1-.67-.273.93.93,0,0,1-.273-.67.908.908,0,0,1,.273-.67.91.91,0,0,1,.67-.273.907.907,0,0,1,.656.273.9.9,0,0,1,.287.67Zm-.273,2.447v7.109H3.669v-7.109Zm0,0" transform="translate(-3.395 54.324)" fill="#747474"/>
        </g>
        <g id="use3834" transform="translate(42.588 3.158)">
          <path id="path1217" d="M5.772-30.41a3.477,3.477,0,0,1-2.625-1.08A3.8,3.8,0,0,1,2.122-34.2,3.747,3.747,0,0,1,3.147-36.9a3.489,3.489,0,0,1,2.625-1.08,3.33,3.33,0,0,1,1.9.547,3.4,3.4,0,0,1,1.217,1.5l-1.217.506a2,2,0,0,0-1.982-1.34,2.069,2.069,0,0,0-1.586.738A2.659,2.659,0,0,0,3.448-34.2,2.653,2.653,0,0,0,4.1-32.365a2.069,2.069,0,0,0,1.586.738,2.074,2.074,0,0,0,2.051-1.34l1.189.506a3.153,3.153,0,0,1-1.217,1.5,3.48,3.48,0,0,1-1.941.547Zm0,0" transform="translate(-2.122 37.984)" fill="#747474"/>
        </g>
        <g id="use3836" transform="translate(50.094 3.158)">
          <path id="path1220" d="M7.675-32.611a1.929,1.929,0,0,1-.82,1.572,3.232,3.232,0,0,1-2.037.629,3.272,3.272,0,0,1-1.887-.561,3.114,3.114,0,0,1-1.162-1.477l1.189-.506a2.283,2.283,0,0,0,.766,1,1.842,1.842,0,0,0,1.094.355,1.917,1.917,0,0,0,1.066-.273.779.779,0,0,0,.438-.656q0-.682-1.053-1l-1.217-.3c-1.388-.355-2.078-1.025-2.078-2.01A1.847,1.847,0,0,1,2.766-37.4a3.318,3.318,0,0,1,2.023-.588,3.309,3.309,0,0,1,1.709.451,2.448,2.448,0,0,1,1.066,1.2l-1.189.492a1.47,1.47,0,0,0-.67-.7,2.017,2.017,0,0,0-1.012-.26,1.779,1.779,0,0,0-.943.26.757.757,0,0,0-.41.643c0,.4.383.694,1.148.875l1.066.273Q7.673-34.221,7.675-32.611Zm0,0" transform="translate(-1.768 37.984)" fill="#747474"/>
        </g>
      </g>
      <g id="g6628" transform="translate(0 0.002)">
        <path id="path3806" d="M269.9,342.686v22.022a3.551,3.551,0,0,0,3.5,3.837,3.507,3.507,0,0,0,3.5-3.837V342.852a3.509,3.509,0,0,0-3.5-3.67,3.563,3.563,0,0,0-3.5,3.5Zm0,0" transform="translate(-251.544 -339.182)" fill="#f8ab00"/>
        <path id="path3808" d="M222.423,400.516V411.36a3.551,3.551,0,0,0,3.5,3.837,3.507,3.507,0,0,0,3.5-3.837V400.683a3.509,3.509,0,0,0-3.5-3.67,3.563,3.563,0,0,0-3.5,3.5Zm0,0" transform="translate(-213.247 -385.835)" fill="#e37300"/>
        <path id="path3810" d="M181.956,458.347a3.5,3.5,0,1,1-3.5-3.5,3.5,3.5,0,0,1,3.5,3.5" transform="translate(-174.949 -432.488)" fill="#e37300"/>
      </g>
    </g>
  </g>
</svg>
