<svg xmlns="http://www.w3.org/2000/svg" width="235" height="96" viewBox="0 0 235 96">
  <g id="Google_ads" data-name="Google ads" transform="translate(-682 -3821)">
    <rect id="Rectangle_4317" data-name="Rectangle 4317" width="235" height="96" rx="9" transform="translate(682 3821)" fill="#fff"/>
    <g id="Group_77525" data-name="Group 77525" transform="translate(-3573.23 55)">
      <g id="Group_77524" data-name="Group 77524" transform="translate(4279.23 3799)">
        <path id="Path_4265" data-name="Path 4265" d="M83.63,3.8a5.92,5.92,0,0,1,1.4-2.217,5.478,5.478,0,0,1,8.616,1.28c1.319,2.4,2.718,4.75,4.077,7.125,2.269,3.945,4.565,7.89,6.808,11.848a5.454,5.454,0,1,1-9.539,5.291Q92,21.924,89,16.732a1.2,1.2,0,0,0-.145-.211,2.146,2.146,0,0,1-.435-.647c-.884-1.557-1.794-3.1-2.678-4.644-.567-1-1.161-1.992-1.728-3a5.464,5.464,0,0,1-.726-2.9A4.045,4.045,0,0,1,83.63,3.8" transform="translate(-72.481 -0.033)" fill="#3c8bd9"/>
        <path id="Path_4266" data-name="Path 4266" d="M21.23,28.6a7.589,7.589,0,0,0-.251,1.451,5.7,5.7,0,0,0,.792,3.1q2.177,3.741,4.341,7.507c.132.224.237.449.369.66-.792,1.372-1.583,2.731-2.388,4.1-1.108,1.913-2.217,3.839-3.338,5.753-.053,0-.066-.026-.079-.066a.818.818,0,0,1,.053-.3,5.31,5.31,0,0,0-1.267-5.238,5.029,5.029,0,0,0-3.1-1.6,5.355,5.355,0,0,0-4.235,1.174c-.224.172-.369.422-.633.554a.088.088,0,0,1-.092-.066c.633-1.1,1.253-2.19,1.887-3.285q3.919-6.808,7.851-13.6c.026-.053.066-.092.092-.145" transform="translate(-10.081 -24.831)" fill="#fabc04"/>
        <path id="Path_4267" data-name="Path 4267" d="M2.774,145.925c.251-.224.488-.462.752-.673a5.454,5.454,0,0,1,8.721,3.312,5.8,5.8,0,0,1-.211,2.81,1.38,1.38,0,0,1-.053.224c-.119.211-.224.435-.356.647A5.3,5.3,0,0,1,6.455,155a5.416,5.416,0,0,1-5-4.723,5.279,5.279,0,0,1,.726-3.51c.132-.238.29-.449.435-.686.066-.053.04-.158.158-.158" transform="translate(-1.402 -125.083)" fill="#34a852"/>
        <path id="Path_4268" data-name="Path 4268" d="M10.832,157.653c-.053.053-.053.145-.145.158-.013-.092.04-.145.092-.211l.053.053" transform="translate(-9.46 -136.81)" fill="#fabc04"/>
        <path id="Path_4269" data-name="Path 4269" d="M81.456,199.524c-.053-.092,0-.158.053-.224l.053.053-.106.172" transform="translate(-70.875 -173.008)" fill="#e1c025"/>
      </g>
      <g id="Group_77523" data-name="Group 77523" transform="translate(4328.847 3799.601)">
        <path id="Path_4270" data-name="Path 4270" d="M11.284,260.4a11.041,11.041,0,1,0,0,22.077,10.173,10.173,0,0,0,7.74-3.107,10.842,10.842,0,0,0,2.453-8.94H11.284v3h7.25a6.348,6.348,0,0,1-1.635,3.816,7.509,7.509,0,0,1-5.615,2.235,8.013,8.013,0,0,1,0-16.026,7.489,7.489,0,0,1,5.451,2.18l2.126-2.126A10.463,10.463,0,0,0,11.284,260.4Zm18.479,7.9a7.2,7.2,0,1,0,7.086,7.2,7.029,7.029,0,0,0-7.086-7.2m0,11.556a4.379,4.379,0,1,1,3.979-4.361,4.133,4.133,0,0,1-3.979,4.361M45.134,268.3a7.2,7.2,0,1,0,7.086,7.2,7,7,0,0,0-7.086-7.2m0,11.556a4.379,4.379,0,1,1,3.979-4.361,4.133,4.133,0,0,1-3.979,4.361M60.452,268.3a7.123,7.123,0,0,0,0,14.227,4.764,4.764,0,0,0,3.707-1.635h.109v1.036c0,2.725-1.417,4.2-3.761,4.2a3.889,3.889,0,0,1-3.543-2.507l-2.726,1.145a6.685,6.685,0,0,0,6.269,4.2c3.652,0,6.7-2.18,6.7-7.413V268.795H64.267v1.145h-.109a4.764,4.764,0,0,0-3.707-1.635m.273,11.447a4.075,4.075,0,0,1-3.925-4.306,4.125,4.125,0,0,1,3.925-4.361c2.126,0,3.761,1.853,3.761,4.361s-1.635,4.306-3.761,4.306M69.5,261.272h3.107v21.041H69.5ZM80.947,268.3a6.843,6.843,0,0,0-6.814,7.2,7.041,7.041,0,0,0,7.141,7.2,7.127,7.127,0,0,0,6-3.162L84.818,277.9a4.119,4.119,0,0,1-3.543,1.962,3.57,3.57,0,0,1-3.489-2.18l9.648-3.979-.327-.818c-.6-1.581-2.453-4.579-6.16-4.579m-3.707,6.977a3.947,3.947,0,0,1,3.761-4.2,2.718,2.718,0,0,1,2.671,1.526Z" transform="translate(0 -260.4)" fill="#5f6368"/>
        <path id="Path_4271" data-name="Path 4271" d="M170.4,284.033l7.2-19.133h2.78l7.2,19.133h-2.726l-1.853-5.178h-8.013l-1.853,5.178Zm5.4-7.468h6.378l-3.107-8.613h-.109Z" transform="translate(-77.515 -262.447)" fill="#5f6368"/>
        <path id="Path_4272" data-name="Path 4272" d="M205,282.452a7.215,7.215,0,0,1-1.8-4.96,7.411,7.411,0,0,1,1.8-4.96,5.71,5.71,0,0,1,4.415-2.017,5.782,5.782,0,0,1,2.616.6,4.539,4.539,0,0,1,1.853,1.635h.109l-.109-1.8V264.9h2.453v19.133h-2.344v-1.8h-.109a4.965,4.965,0,0,1-1.853,1.635,5.429,5.429,0,0,1-2.616.6A5.632,5.632,0,0,1,205,282.452m7.74-1.526a5.439,5.439,0,0,0,0-6.814,3.966,3.966,0,0,0-5.887,0,5.362,5.362,0,0,0,0,6.759,3.893,3.893,0,0,0,2.944,1.308,3.526,3.526,0,0,0,2.944-1.254" transform="translate(-92.436 -262.447)" fill="#5f6368"/>
        <path id="Path_4273" data-name="Path 4273" d="M240.276,287.955a6.447,6.447,0,0,1-7.25.164,5.836,5.836,0,0,1-2.126-2.725l2.18-.927a4.042,4.042,0,0,0,1.417,1.853,3.425,3.425,0,0,0,2.017.654,3.745,3.745,0,0,0,1.962-.491,1.384,1.384,0,0,0,.763-1.2c0-.818-.654-1.472-1.908-1.853l-2.235-.545c-2.562-.654-3.816-1.853-3.816-3.707a3.469,3.469,0,0,1,1.472-2.889,6.219,6.219,0,0,1,3.707-1.09,6.357,6.357,0,0,1,3.162.818,4.581,4.581,0,0,1,1.962,2.235l-2.18.927a3.08,3.08,0,0,0-1.2-1.308,3.683,3.683,0,0,0-1.908-.491,3.243,3.243,0,0,0-1.744.491,1.431,1.431,0,0,0-.763,1.2c0,.763.709,1.308,2.126,1.581l1.962.491c2.616.654,3.87,1.962,3.87,3.925a3.4,3.4,0,0,1-1.472,2.889" transform="translate(-105.036 -267.132)" fill="#5f6368"/>
      </g>
    </g>
  </g>
</svg>
