<svg xmlns="http://www.w3.org/2000/svg" width="143.501" height="30.415" viewBox="0 0 143.501 30.415">
  <g id="Cognizant" transform="translate(0)">
    <path id="cognizants-logo" d="M82.388,18.679l8.534-8.311h-8.4V6.454H96.892v3.977l-8.535,8.279h8.7v3.914H82.391ZM76.324,1.136H80.77V5.159H76.324ZM76.265,6.5H80.71v16.17H76.265ZM22.493,14.539a8.379,8.379,0,1,1,2.447,5.947,8.391,8.391,0,0,1-2.447-5.947Zm12.493,0A4.158,4.158,0,0,0,30.9,10.332a4.109,4.109,0,0,0-4.057,4.207A4.109,4.109,0,0,0,30.9,18.746a4.161,4.161,0,0,0,4.089-4.207ZM59.366,6.454H63.78V8.266a5.583,5.583,0,0,1,4.477-2.135c3.83,0,6.134,2.458,6.134,6.629v9.864H69.88V13.343c0-2.167-1.006-3.432-2.985-3.432-1.688,0-3.083,1.163-3.083,3.875v8.829H59.369Zm37.942,8.085c0-5.725,4.221-8.414,7.887-8.414a6.5,6.5,0,0,1,4.835,1.909V6.454h4.443v16.17H110.03V20.813a6.333,6.333,0,0,1-4.9,2.135,8,8,0,0,1-7.822-8.409Zm12.849-.032A4.179,4.179,0,0,0,106,10.173a4.242,4.242,0,0,0-4.348,4.334A4.267,4.267,0,0,0,106,18.873a4.207,4.207,0,0,0,4.156-4.365Zm6.113-8.053h4.414V8.266a5.586,5.586,0,0,1,4.478-2.135c3.829,0,6.133,2.458,6.133,6.629v9.864h-4.511V13.343c0-2.167-1-3.432-2.985-3.432-1.687,0-3.083,1.163-3.083,3.875v8.829h-4.443ZM82.388,22.624V18.679l8.534-8.311h-8.4V6.454H96.893v3.977l-8.535,8.279M17.751,14.4l-.061.129A6.711,6.711,0,0,1,11.5,18.584a6.944,6.944,0,0,1-7-7.041,6.943,6.943,0,0,1,7.1-7.1,6.377,6.377,0,0,1,5.921,3.638l.07.128,3.957-2.521-.067-.111A11.327,11.327,0,0,0,11.595.007,11.305,11.305,0,0,0,.015,11.546a11.181,11.181,0,0,0,11.58,11.54,11.418,11.418,0,0,0,10.22-6.4l.062-.121Zm22.672.141c0-5.725,4.221-8.414,7.887-8.414a6.368,6.368,0,0,1,4.835,2.069V6.454h4.443v15.72c0,4.56-2.889,8.247-8.373,8.247a9.283,9.283,0,0,1-8.443-4.657l3.927-2.2a4.759,4.759,0,0,0,4.51,2.749,3.863,3.863,0,0,0,3.926-3.978V20.813a6.332,6.332,0,0,1-4.9,2.135,8,8,0,0,1-7.814-8.409Zm12.849-.032a4.179,4.179,0,0,0-4.154-4.334,4.241,4.241,0,0,0-4.348,4.334,4.267,4.267,0,0,0,4.348,4.365A4.206,4.206,0,0,0,53.272,14.507Zm88.971-4.075V6.454h-3.05V1.12H134.75V6.454h-2.761v3.977h2.755v5.175c0,5.272,1.687,7.018,6.847,7.018h.649V18.485c-2.726,0-3.05-.389-3.05-2.91V10.432Zm.943-7.382a1.134,1.134,0,0,1-1.606,0,1.1,1.1,0,0,1-.333-.8,1.133,1.133,0,1,1,1.935.8Zm-1.493-1.489a.937.937,0,0,0-.284.689.954.954,0,0,0,.282.693.975.975,0,0,0,1.382,0,.948.948,0,0,0,.285-.693.973.973,0,0,0-1.666-.689Zm.667.063a.946.946,0,0,1,.34.044.308.308,0,0,1,.193.314.273.273,0,0,1-.121.246.475.475,0,0,1-.18.06.3.3,0,0,1,.213.122.331.331,0,0,1,.068.191v.184a.227.227,0,0,0,.01.064l.008.016h-.205a.046.046,0,0,1,0-.012V2.7a.305.305,0,0,0-.118-.285.532.532,0,0,0-.244-.04h-.173v.488h-.222V1.624Zm.236.195a.565.565,0,0,0-.265-.045h-.188v.449h.2a.583.583,0,0,0,.209-.028.221.221,0,0,0,.046-.377Z" transform="translate(-0.015 -0.007)" fill="#0033a1"/>
  </g>
</svg>
