<svg id="EY" xmlns="http://www.w3.org/2000/svg" width="80.582" height="38.469" viewBox="0 0 80.582 38.469">
  <g id="Group_76791" data-name="Group 76791">
    <path id="Path_3177" data-name="Path 3177" d="M60.833,262.431l-36.2,13.223,36.2-6.393Z" transform="translate(-24.633 -262.431)" fill="#ffe500"/>
    <path id="Path_3178" data-name="Path 3178" d="M61.949,404.091a1.14,1.14,0,0,0-.72-1.091,1.109,1.109,0,0,0,.546-.96c0-.807-.546-1.266-1.506-1.266H58.218v4.866h2.051A1.473,1.473,0,0,0,61.949,404.091Zm-1.68.742H59.113v-1.375h1.156a.646.646,0,0,1,.742.7A.661.661,0,0,1,60.269,404.833Zm-.022-2.182H59.113V401.6H60.2c.436,0,.633.175.633.524C60.858,402.367,60.749,402.651,60.247,402.651Zm2.335,1.462v-2.007h.873v1.964c0,.589.218.873.655.873s.655-.284.655-.873v-1.964h.873v3.557h-.873v-.284a1.105,1.105,0,0,1-.851.371c-1.156-.022-1.331-1.026-1.331-1.637Zm13.4,1.549h-.873v-3.557h.873v.306a1.167,1.167,0,0,1,.895-.371c.851,0,1.309.567,1.309,1.615v2.007h-.873V403.7c0-.589-.2-.873-.633-.873s-.676.306-.676.873v1.964H75.98Zm-8.662-1.811v1.811h-.873v-3.557h.873Zm.786-2.793.873-.436v5.04H68.1Zm3.666,1.288a1.071,1.071,0,0,0-.786-.327c-.851,0-1.4.7-1.4,1.811,0,1.178.524,1.9,1.375,1.9a1.093,1.093,0,0,0,.807-.349v.262h.873V400.6l-.873.436v1.309Zm-.611,2.575c-.305,0-.676-.2-.676-1.091,0-.829.349-.982.655-.982a.764.764,0,0,1,.633.349v1.4A.74.74,0,0,1,71.157,404.92Zm19.747-2.9a1.208,1.208,0,0,0-.786.327v-1.637l-.873.437v4.495h.873v-.262a1.142,1.142,0,0,0,.807.349c.873,0,1.375-.7,1.375-1.9C92.3,402.716,91.778,402.018,90.9,402.018Zm-.153.807c.327,0,.655.262.655.982,0,.742-.218,1.091-.655,1.091a.834.834,0,0,1-.633-.327v-1.4A.76.76,0,0,1,90.752,402.826Zm-9.819-.48a1.071,1.071,0,0,0-.786-.327c-.851,0-1.4.7-1.4,1.811,0,1.178.524,1.9,1.375,1.9a1.059,1.059,0,0,0,.807-.349v.087c0,.393,0,.916-1.135.938h-.044l.305.7h.022a1.549,1.549,0,0,0,1.724-1.767v-3.229h-.873v.24Zm0,.829v1.4a.744.744,0,0,1-.633.349c-.306,0-.655-.2-.655-1.091,0-.829.349-.982.655-.982A.7.7,0,0,1,80.933,403.175Zm3.6-.2a1.791,1.791,0,0,1,.916-.24c.415,0,.633.175.633.5v.24a1.711,1.711,0,0,0-.764-.175c-.655,0-1.418.306-1.418,1.156a1.229,1.229,0,0,0,1.309,1.265,1.145,1.145,0,0,0,.851-.371v.284h.873v-2.4c0-.764-.546-1.244-1.44-1.244a2.584,2.584,0,0,0-1.331.349Zm.262,1.506c0-.305.218-.5.611-.5a1.281,1.281,0,0,1,.7.175v.48a.8.8,0,0,1-.7.371C85.013,405.008,84.8,404.811,84.8,404.484Zm10.343.131a.954.954,0,0,1-.7.306.759.759,0,0,1-.786-.786h2.182v-.262c0-1.135-.589-1.855-1.484-1.855a1.688,1.688,0,0,0-1.593,1.855,1.666,1.666,0,0,0,1.68,1.855,1.59,1.59,0,0,0,1.244-.567ZM93.654,403.5a.669.669,0,1,1,1.331,0Zm9.95,1.113a.954.954,0,0,1-.7.306.759.759,0,0,1-.786-.786H104.3v-.262c0-1.135-.589-1.855-1.484-1.855a1.688,1.688,0,0,0-1.593,1.855,1.69,1.69,0,0,0,2.946,1.287l-.567-.546ZM102.12,403.5a.669.669,0,1,1,1.331,0Zm-2.117.916c0,.306.109.48.371.48a1.121,1.121,0,0,0,.524-.153l-.109.829a1.552,1.552,0,0,1-.742.175.966.966,0,0,1-.938-1.091v-1.724h-.524v-.829h.545v-.916l.873-.436v1.353h.807v.829H100Zm-1.7,1.156a1.553,1.553,0,0,1-.742.175.966.966,0,0,1-.938-1.091v-1.724h-.546v-.829h.546v-.916l.873-.436v1.353h.742v.829h-.742v1.506c0,.305.109.48.371.48a1.121,1.121,0,0,0,.524-.153Zm8.663-2.488a.958.958,0,0,0-.589-.2c-.436,0-.633.262-.633.829v1.92h-.873v-3.557h.873v.306a.991.991,0,0,1,.786-.393,1.07,1.07,0,0,1,.655.218Zm-39.647-1.942v.436h-.873v-.873h.873Zm6.11.96H74.3v3.557h-.873Zm.873-.96v.436h-.873v-.873H74.3Zm24.111,7.419a1.071,1.071,0,0,0-.786-.327c-.851,0-1.4.7-1.4,1.811,0,1.178.524,1.9,1.375,1.9a1.092,1.092,0,0,0,.807-.349v.262h.873v-5.041l-.873.437Zm-.611,2.575c-.305,0-.676-.2-.676-1.091,0-.829.349-.982.655-.982a.764.764,0,0,1,.633.349v1.4A.8.8,0,0,1,97.8,411.139Zm-29.2-1.833a.958.958,0,0,0-.589-.2c-.436,0-.633.262-.633.829v1.92H66.51V408.3h.873v.306a.991.991,0,0,1,.786-.393,1.072,1.072,0,0,1,.655.218Zm-6.917-1h.873l-1,3.557h-.764l-.393-1.484c-.065-.262-.153-.567-.2-.764-.044.153-.131.589-.2.807l-.393,1.44h-.742l-1-3.557h.894l.327,1.331c.044.218.131.611.175.873.044-.262.153-.655.218-.895l.371-1.309H60.6l.371,1.309c.065.24.153.611.218.895.044-.218.109-.567.2-.895Zm2.662-.065a1.873,1.873,0,1,0,1.615,1.855A1.691,1.691,0,0,0,64.35,408.237Zm0,2.88c-.436,0-.72-.415-.72-1.026,0-.633.284-1.025.72-1.025s.72.414.72,1.025S64.786,411.117,64.35,411.117Zm29.741-1.811a.958.958,0,0,0-.589-.2c-.436,0-.633.262-.633.829v1.92H92V408.3h.873v.306a.991.991,0,0,1,.786-.393,1.072,1.072,0,0,1,.655.218l-.218.873Zm-6.9-1h.873l-1,3.557H86.3l-.393-1.484c-.065-.262-.153-.567-.2-.764-.044.153-.131.589-.2.807l-.393,1.44h-.764v-.022l-1-3.535h.894l.327,1.331c.044.218.131.611.175.873.044-.262.153-.655.218-.895l.371-1.309h.742l.371,1.309c.065.24.153.611.218.895.044-.218.109-.568.2-.895Zm2.64-.065a1.873,1.873,0,1,0,1.615,1.855A1.691,1.691,0,0,0,89.836,408.237Zm0,2.88c-.436,0-.72-.393-.72-1.026s.284-1.025.72-1.025.72.414.72,1.025S90.272,411.117,89.836,411.117Zm-18.613-1.637,1.091,2.379h-.96l-.742-1.658-.458.589v1.069h-.873v-4.582l.873-.436v2.837q.158-.222.327-.436l.7-.916h1Zm4.168,2.379h-.873V408.3h.873v.306a1.167,1.167,0,0,1,.895-.371c.851,0,1.309.567,1.309,1.615v2.007h-.873V409.9c0-.589-.2-.873-.633-.873s-.676.306-.676.873v1.964H75.39Zm4.953-3.295a1.071,1.071,0,0,0-.786-.327c-.851,0-1.4.7-1.4,1.811,0,1.178.524,1.9,1.375,1.9a1.06,1.06,0,0,0,.807-.349v.087c0,.393,0,.916-1.135.938h-.044l.306.7h.022a1.549,1.549,0,0,0,1.724-1.768v-3.229h-.873v.24Zm0,.829v1.4a.744.744,0,0,1-.633.349c-.305,0-.655-.2-.655-1.091,0-.829.349-.982.655-.982A.7.7,0,0,1,80.344,409.394ZM72.838,408.3h.873v3.557h-.873Zm.873-.938v.437h-.873v-.873h.873Zm21.034-.087.873-.436v5.019h-.873Zm-62.34-2.64h6.611V400.8H32.4v-3.011h7.331l-2.422-4.233H26.928v18.307H41.569v-4.211H32.4v-3.011Zm18.918-11.085-3.1,5.979-3.1-5.979H39.038l6.393,11.085v7.223h5.477v-7.223L57.3,393.552Z" transform="translate(-26.601 -374.852)" fill="#58595b"/>
  </g>
</svg>
