<?xml version="1.0" encoding="UTF-8"?>
<svg id="Layer_2" data-name="Layer 2" xmlns="http://www.w3.org/2000/svg" viewBox="0 0 309.59 444.89">
  <defs>
    <style>
      .cls-1 {
        fill: #4c52ff;
      }

      .cls-2 {
        fill: #fff;
      }

      .cls-3 {
        fill: #3a10e5;
      }
    </style>
  </defs>
  <g id="Layer_1-2" data-name="Layer 1">
    <g>
      <path class="cls-3" d="M145.13,378.56l-69.56,65.01c-1.94,1.02-4.72,1.68-6.16,1.11s-4.22-3.57-4.23-5.33l-.28-116.05-55.21,50.44c-1.16,1.06-5.26,1.11-6.63.41S0,371.1,0,368.7L.09,19.34C.09,9.5,9.7.22,19.75.22L298.99,0c4.17,0,10.54,1.97,10.54,7.31l.07,414.42c0,2.44-3.47,4.56-5.08,4.62-2.19.07-4.37-1.53-6.45-3.46l-100.98-93.57-51.95,49.24ZM152.12,250.62l66.43,62.38-.03-285.78-187.66-.03-.03,291.32,91.42-85.19c4.39-3.79,8.73-2.34,12.4,1.07l17.47,16.22ZM280.25,369.6l.07-342.35-32.75.08-.03,312.58,32.71,29.69ZM132.48,352.84l44.36-42.69-48.42-45.83-35.88,34.47-.04,93.06,39.98-39Z"/>
      <path class="cls-2" d="M152.12,250.62l-17.47-16.22c-3.67-3.41-8.02-4.86-12.4-1.07l-91.42,85.19.03-291.32,187.66.03.03,285.78-66.43-62.38Z"/>
      <polygon class="cls-1" points="280.25 369.6 247.53 339.91 247.56 27.33 280.31 27.25 280.25 369.6"/>
      <polygon class="cls-1" points="132.48 352.84 92.49 391.85 92.54 298.79 128.41 264.33 176.84 310.15 132.48 352.84"/>
    </g>
  </g>
</svg>