<svg id="Accenture" xmlns="http://www.w3.org/2000/svg" width="63.584" height="18.184" viewBox="0 0 63.584 18.184">
  <g id="Group_76787" data-name="Group 76787" transform="translate(0 0)">
    <path id="Path_1715" data-name="Path 1715" d="M93.25,390.548c0,1.061-.436,2.487-1.723,2.487a.908.908,0,0,1-1.025-.993c0-1.247,1.827-1.494,2.747-1.494M95.1,394.2v-5.9c0-1.911-1.254-2.572-3.011-2.572-1.718,0-3.149.73-3.149,2.626h1.882a1.137,1.137,0,0,1,1.267-1.269c.955,0,1.166.693,1.166,1.511v.818c-1.878.052-4.626.314-4.626,2.8a2.507,2.507,0,0,0,4.592,1.025h.034v.956H95.1m5.723-5.442h2.052c0-2.035-1.128-3.025-3.148-3.025-2.482,0-3.791,1.563-3.791,3.962,0,2.887,1.479,4.7,4.433,4.7a8.114,8.114,0,0,0,2.419-.383v-1.182a4.246,4.246,0,0,1-1.389.208c-2.2,0-3.411-1.6-3.411-3.685,0-.99.365-2.26,1.583-2.26,1.008,0,1.251.817,1.251,1.667m7.415,0h2.054c0-2.035-1.133-3.025-3.149-3.025-2.486,0-3.791,1.563-3.791,3.962,0,2.887,1.477,4.7,4.434,4.7a8.1,8.1,0,0,0,2.417-.383v-1.182a4.23,4.23,0,0,1-1.39.208c-2.19,0-3.411-1.6-3.411-3.685,0-.99.368-2.26,1.584-2.26,1.008,0,1.252.817,1.252,1.667m7.567-.366h-3.026a1.544,1.544,0,0,1,1.557-1.429,1.35,1.35,0,0,1,1.468,1.429m1.826,1.168v-.472c0-2.017-1.043-3.355-3.148-3.355-2.468,0-3.549,1.547-3.549,3.9,0,2.727,1.234,4.765,4.173,4.765a7.362,7.362,0,0,0,2.311-.331v-1.338a4.941,4.941,0,0,1-1.579.311,3.308,3.308,0,0,1-3.115-3.475h4.908m5.72,4.64h1.935v-5.738c0-1.424-.667-2.729-2.247-2.729a2.569,2.569,0,0,0-2.452,1.738h-.034V385.92h-1.934V394.2h1.934v-3.582c0-1.115.557-3.078,1.943-3.078a.775.775,0,0,1,.561.158c.326.311.295,1.371.295,1.772V394.2m5.945-6.937h2.459V385.92h-2.459v-2.744l-1.922.782v1.962h-1.62v1.343h1.62v4.851c0,1.723.843,2.28,2.535,2.28a9.587,9.587,0,0,0,1.578-.138V392.9a3.713,3.713,0,0,1-.885.138c-1.2,0-1.306-.886-1.306-1.862v-3.91m8.044,6.937h1.93v-8.28h-1.93V389.5c0,1.115-.557,3.078-1.951,3.078a.78.78,0,0,1-.557-.154c-.332-.315-.295-1.376-.295-1.774V385.92H132.6v5.743c0,1.427.655,2.731,2.241,2.731a2.61,2.61,0,0,0,2.456-1.737h.033V394.2m5.079-3.633c0-1.948.729-2.816,2.71-2.816v-2.018a2.726,2.726,0,0,0-2.677,1.718h-.033v-1.532h-1.934V394.2h1.934v-3.633m7.97-2.175h-3.027a1.545,1.545,0,0,1,1.563-1.429,1.346,1.346,0,0,1,1.464,1.429m1.825,1.168v-.472c0-2.017-1.042-3.355-3.148-3.355-2.469,0-3.547,1.547-3.547,3.9,0,2.727,1.235,4.765,4.171,4.765a7.413,7.413,0,0,0,2.315-.331v-1.338a4.95,4.95,0,0,1-1.579.311,3.305,3.305,0,0,1-3.117-3.475h4.906" transform="translate(-88.624 -376.21)" fill="#231f20"/>
    <path id="Path_1716" data-name="Path 1716" d="M341.81,335.663v1.361l4.407,1.709c-.552.212-4.407,1.7-4.407,1.7v1.36l6-2.439V338.1l-6-2.44" transform="translate(-304.687 -335.663)" fill="#27aae1"/>
  </g>
</svg>
