<svg id="Cognizant" xmlns="http://www.w3.org/2000/svg" width="85.794" height="18.184" viewBox="0 0 85.794 18.184">
  <path id="cognizants-logo" d="M49.263,11.17l5.1-4.969H49.34V3.862h8.595V6.24l-5.1,4.95h5.2v2.34H49.265ZM45.638.682H48.3V3.087H45.638ZM45.6,3.891H48.26v9.668H45.6ZM13.454,8.7a5.009,5.009,0,1,1,1.463,3.556A5.017,5.017,0,0,1,13.454,8.7Zm7.469,0A2.486,2.486,0,0,0,18.479,6.18,2.457,2.457,0,0,0,16.054,8.7a2.457,2.457,0,0,0,2.426,2.515A2.488,2.488,0,0,0,20.924,8.7ZM35.5,3.862h2.639V4.944a3.338,3.338,0,0,1,2.677-1.276c2.29,0,3.667,1.47,3.667,3.963v5.9h-2.7V7.98c0-1.3-.6-2.052-1.784-2.052-1.009,0-1.843.7-1.843,2.317v5.279H35.5ZM58.183,8.7A4.728,4.728,0,0,1,62.9,3.665a3.887,3.887,0,0,1,2.891,1.141V3.861h2.657v9.668H65.789V12.446a3.786,3.786,0,0,1-2.929,1.276A4.784,4.784,0,0,1,58.183,8.7Zm7.682-.019a2.5,2.5,0,0,0-2.483-2.591,2.536,2.536,0,0,0-2.6,2.591,2.551,2.551,0,0,0,2.6,2.61,2.515,2.515,0,0,0,2.485-2.61ZM69.52,3.861h2.639V4.944a3.339,3.339,0,0,1,2.677-1.276c2.289,0,3.667,1.47,3.667,3.963v5.9h-2.7V7.98c0-1.3-.6-2.052-1.785-2.052-1.009,0-1.843.7-1.843,2.317v5.279H69.521ZM49.263,13.529V11.17l5.1-4.969H49.34V3.862h8.595V6.24l-5.1,4.95M10.619,8.611l-.036.077a4.012,4.012,0,0,1-3.7,2.426A4.151,4.151,0,0,1,2.7,6.9,4.151,4.151,0,0,1,6.938,2.659a3.813,3.813,0,0,1,3.54,2.175l.042.077L12.885,3.4l-.04-.066A6.772,6.772,0,0,0,6.938.007a6.759,6.759,0,0,0-6.923,6.9,6.685,6.685,0,0,0,6.923,6.9,6.826,6.826,0,0,0,6.11-3.826l.037-.072ZM24.173,8.7a4.728,4.728,0,0,1,4.716-5.03A3.807,3.807,0,0,1,31.779,4.9V3.862h2.657v9.4a4.669,4.669,0,0,1-5.006,4.931,5.55,5.55,0,0,1-5.048-2.784l2.348-1.315a2.845,2.845,0,0,0,2.7,1.643,2.31,2.31,0,0,0,2.347-2.378v-.911a3.786,3.786,0,0,1-2.929,1.276A4.783,4.783,0,0,1,24.173,8.7Zm7.682-.019a2.5,2.5,0,0,0-2.483-2.591,2.536,2.536,0,0,0-2.6,2.591,2.551,2.551,0,0,0,2.6,2.61A2.515,2.515,0,0,0,31.856,8.676ZM85.048,6.24V3.862H83.225V.673H80.568V3.862H78.917V6.24h1.647V9.333c0,3.152,1.009,4.2,4.094,4.2h.388V11.054c-1.63,0-1.824-.233-1.824-1.74V6.24Zm.564-4.414a.678.678,0,0,1-.96,0,.656.656,0,0,1-.2-.48.678.678,0,1,1,1.157.48ZM84.72.936a.56.56,0,0,0-.17.412.571.571,0,0,0,.169.414.583.583,0,0,0,.826,0,.567.567,0,0,0,.17-.414.582.582,0,0,0-1-.412Zm.4.038a.566.566,0,0,1,.2.026.184.184,0,0,1,.116.188.163.163,0,0,1-.072.147.284.284,0,0,1-.107.036.179.179,0,0,1,.127.073.2.2,0,0,1,.041.114v.11a.136.136,0,0,0,.006.038l0,.009h-.123a.028.028,0,0,1,0-.007V1.618a.182.182,0,0,0-.07-.17.318.318,0,0,0-.146-.024h-.1v.292H84.86V.974Zm.141.116a.338.338,0,0,0-.159-.027h-.112v.269h.119a.348.348,0,0,0,.125-.016.132.132,0,0,0,.027-.225Z" transform="translate(-0.015 -0.007)" fill="#0033a1"/>
</svg>
