<svg id="Group_77358" data-name="Group 77358" xmlns="http://www.w3.org/2000/svg" xmlns:xlink="http://www.w3.org/1999/xlink" width="65.88" height="18.184" viewBox="0 0 65.88 18.184">
  <defs>
    <linearGradient id="linear-gradient" x1="0.5" y1="0.106" x2="0.5" y2="0.905" gradientUnits="objectBoundingBox">
      <stop offset="0" stop-color="#ffc708"/>
      <stop offset="1" stop-color="#f05731"/>
    </linearGradient>
    <linearGradient id="linear-gradient-2" x1="0.608" y1="0.049" x2="0.407" y2="0.744" gradientUnits="objectBoundingBox">
      <stop offset="0" stop-color="#f80000"/>
      <stop offset="1" stop-color="#ee3984"/>
    </linearGradient>
    <linearGradient id="linear-gradient-3" x1="-0.048" y1="0.643" x2="1.126" y2="0.139" gradientUnits="objectBoundingBox">
      <stop offset="0" stop-color="#ee3984"/>
      <stop offset="1" stop-color="#7800da"/>
    </linearGradient>
    <linearGradient id="linear-gradient-4" x1="0.463" y1="0.25" x2="0.69" y2="0.89" gradientUnits="objectBoundingBox">
      <stop offset="0" stop-color="red"/>
      <stop offset="0.999" stop-color="#ee3984"/>
      <stop offset="1" stop-color="#ee3984"/>
    </linearGradient>
    <linearGradient id="linear-gradient-5" y1="0.5" x2="1" y2="0.5" gradientUnits="objectBoundingBox">
      <stop offset="0" stop-color="#ffc708"/>
      <stop offset="1" stop-color="#fa3b00"/>
    </linearGradient>
    <linearGradient id="linear-gradient-6" y1="0.5" x2="1" y2="0.5" gradientUnits="objectBoundingBox">
      <stop offset="0" stop-color="red"/>
      <stop offset="1" stop-color="#ee3984"/>
    </linearGradient>
    <linearGradient id="linear-gradient-7" x1="0.899" y1="0.402" x2="-0.015" y2="0.718" gradientUnits="objectBoundingBox">
      <stop offset="0" stop-color="#ee3984"/>
      <stop offset="1" stop-color="#7800da"/>
    </linearGradient>
    <linearGradient id="linear-gradient-8" x1="0" y1="0.5" x2="1" y2="0.5" xlink:href="#linear-gradient"/>
    <linearGradient id="linear-gradient-9" x1="0.317" y1="0.79" x2="0.698" y2="0.158" xlink:href="#linear-gradient-7"/>
  </defs>
  <g id="Group_76784" data-name="Group 76784" transform="translate(0 0)">
    <path id="Path_2088" data-name="Path 2088" d="M369.376,106.251h1.39v-2.479h.986v-1H368.39v1h.986Z" transform="translate(-335.603 -98.634)" fill="#007dc5"/>
    <path id="Path_2089" data-name="Path 2089" d="M397.788,106.251l.708-2.082.707,2.082h1.36l-1.333-3.481h-1.47l-1.331,3.481Z" transform="translate(-360.615 -98.634)" fill="#007dc5"/>
    <path id="Path_2090" data-name="Path 2090" d="M432.606,106.251H434v-2.479h.986v-1H431.62v1h.986Z" transform="translate(-392.005 -98.634)" fill="#007dc5"/>
    <path id="Path_2091" data-name="Path 2091" d="M461.018,106.251l.708-2.082.707,2.082h1.36l-1.331-3.481h-1.471l-1.332,3.481Z" transform="translate(-417.017 -98.634)" fill="#007dc5"/>
    <path id="Path_2092" data-name="Path 2092" d="M591.04,151.869a11.257,11.257,0,0,0,.624,1.2l.909,1.531h.659V151.12h-.589v1.215a14.42,14.42,0,0,0,.057,1.443l-.012,0a9.653,9.653,0,0,0-.593-1.166l-.9-1.495h-.727V154.6h.588v-1.245c0-.571-.009-1.031-.034-1.484Z" transform="translate(-533.702 -141.763)" fill="#007dc5"/>
    <path id="Path_2093" data-name="Path 2093" d="M558.644,153.618h1.106l.315.984h.682l-1.131-3.481h-.809L557.69,154.6h.658Zm.373-1.34c.061-.207.114-.448.165-.652h.011c.053.2.11.44.176.654l.274.859h-.9Z" transform="translate(-504.462 -141.763)" fill="#007dc5"/>
    <path id="Path_2094" data-name="Path 2094" d="M462.423,153.692a1.756,1.756,0,0,1-.841-.222l-.141.527a2.019,2.019,0,0,0,.941.222c.9,0,1.321-.486,1.321-1.046,0-.5-.29-.8-.9-1.034-.464-.177-.666-.3-.666-.57,0-.205.172-.419.576-.419a1.5,1.5,0,0,1,.7.165l.152-.513a1.855,1.855,0,0,0-.835-.172c-.755,0-1.232.43-1.232,1,0,.5.367.808.943,1.012.439.16.617.315.617.578C463.055,153.5,462.828,153.692,462.423,153.692Z" transform="translate(-418.605 -141.326)" fill="#007dc5"/>
    <path id="Path_2095" data-name="Path 2095" d="M370.281,151.145a1.658,1.658,0,0,1,.678.136l.138-.506a1.934,1.934,0,0,0-.843-.154,1.753,1.753,0,0,0-1.864,1.836,1.646,1.646,0,0,0,1.777,1.755,2.233,2.233,0,0,0,.9-.159l-.1-.5a1.838,1.838,0,0,1-.694.126,1.138,1.138,0,0,1-1.212-1.254A1.158,1.158,0,0,1,370.281,151.145Z" transform="translate(-335.603 -141.317)" fill="#007dc5"/>
    <path id="Path_2096" data-name="Path 2096" d="M537.041,154.6v-2.947h1v-.535H535.41v.535h.995V154.6Z" transform="translate(-484.587 -141.763)" fill="#007dc5"/>
    <path id="Path_2097" data-name="Path 2097" d="M650.227,151.12l-.419.892c-.119.253-.215.469-.3.691H649.5c-.095-.235-.186-.434-.3-.69l-.415-.893h-.728l1.1,2.032V154.6h.636v-1.466l1.156-2.014h-.717Z" transform="translate(-585.064 -141.763)" fill="#007dc5"/>
    <path id="Path_2098" data-name="Path 2098" d="M396.838,150.6a1.67,1.67,0,0,0-1.658,1.824,1.613,1.613,0,0,0,1.607,1.772h.005a1.645,1.645,0,0,0,1.661-1.834A1.608,1.608,0,0,0,396.838,150.6Zm-.025,3.086h-.005c-.608,0-.963-.585-.961-1.277s.334-1.3.969-1.3.961.621.961,1.277C397.775,153.114,397.427,153.686,396.813,153.686Z" transform="translate(-359.5 -141.299)" fill="#007dc5"/>
    <path id="Path_2099" data-name="Path 2099" d="M623.011,151.145a1.658,1.658,0,0,1,.678.136l.138-.506a1.933,1.933,0,0,0-.843-.154,1.753,1.753,0,0,0-1.864,1.836,1.646,1.646,0,0,0,1.777,1.755,2.213,2.213,0,0,0,.9-.159l-.1-.5a1.838,1.838,0,0,1-.694.126,1.138,1.138,0,0,1-1.212-1.254A1.158,1.158,0,0,1,623.011,151.145Z" transform="translate(-561.042 -141.317)" fill="#007dc5"/>
    <path id="Path_2100" data-name="Path 2100" d="M520.166,151.12h-.636V154.6H521.6v-.533h-1.432Z" transform="translate(-470.422 -141.763)" fill="#007dc5"/>
    <path id="Path_2101" data-name="Path 2101" d="M490.369,153.118V151.13h-.636v2.03c0,.682-.275,1-.733,1-.431,0-.714-.316-.714-1v-2.03h-.636v1.992c0,1.095.524,1.547,1.326,1.547C489.817,154.669,490.369,154.19,490.369,153.118Z" transform="translate(-441.985 -141.772)" fill="#007dc5"/>
    <path id="Path_2102" data-name="Path 2102" d="M433.282,151.12h-.589v1.215a14.42,14.42,0,0,0,.057,1.443l-.012,0a9.652,9.652,0,0,0-.593-1.166l-.9-1.495h-.727V154.6h.589v-1.245c0-.571-.009-1.031-.034-1.483l.016,0a11.243,11.243,0,0,0,.624,1.2l.909,1.531h.659V151.12Z" transform="translate(-391.024 -141.763)" fill="#007dc5"/>
    <rect id="Rectangle_1834" data-name="Rectangle 1834" width="0.636" height="3.481" transform="translate(44.343 14.579)" fill="#007dc5"/>
    <path id="Path_2103" data-name="Path 2103" d="M420.942,201.329v-.014a.915.915,0,0,0,.627-.863.872.872,0,0,0-.3-.693,1.729,1.729,0,0,0-1.066-.279,5.113,5.113,0,0,0-.957.075v3.407h.626v-1.42h.317c.359.009.523.154.622.6a4.519,4.519,0,0,0,.232.815h.648a7.526,7.526,0,0,1-.272-.963A.873.873,0,0,0,420.942,201.329Zm-.692-.251h-.374v-1.092a1.789,1.789,0,0,1,.392-.031c.408,0,.673.177.673.554C420.941,200.853,420.678,201.078,420.25,201.078Z" transform="translate(-380.971 -184.901)" fill="#007dc5"/>
    <path id="Path_2104" data-name="Path 2104" d="M445.485,201.063c-.135.422-.261.848-.354,1.258h-.011c-.091-.421-.21-.828-.341-1.268l-.475-1.583h-.693l1.126,3.481h.729l1.2-3.481h-.677Z" transform="translate(-402.701 -184.892)" fill="#007dc5"/>
    <path id="Path_2105" data-name="Path 2105" d="M516.8,201.416h1.312V200.9H516.8V200h1.39v-.523H516.16v3.48h2.1v-.523H516.8Z" transform="translate(-467.416 -184.901)" fill="#007dc5"/>
    <path id="Path_2106" data-name="Path 2106" d="M488.251,199.495a1.658,1.658,0,0,1,.678.136l.138-.506a1.933,1.933,0,0,0-.843-.154,1.753,1.753,0,0,0-1.864,1.836,1.646,1.646,0,0,0,1.777,1.755,2.214,2.214,0,0,0,.9-.159l-.1-.5a1.842,1.842,0,0,1-.694.126,1.138,1.138,0,0,1-1.212-1.254A1.158,1.158,0,0,1,488.251,199.495Z" transform="translate(-440.834 -184.446)" fill="#007dc5"/>
    <path id="Path_2107" data-name="Path 2107" d="M369.747,200.489c-.465-.177-.666-.3-.666-.57,0-.205.172-.419.574-.419a1.5,1.5,0,0,1,.7.165l.152-.513a1.855,1.855,0,0,0-.835-.172c-.755,0-1.232.43-1.232,1,0,.5.367.808.943,1.012.439.16.617.315.617.578,0,.285-.227.475-.633.475a1.757,1.757,0,0,1-.841-.222l-.141.527a2.019,2.019,0,0,0,.941.222c.9,0,1.321-.486,1.321-1.046C370.642,201.023,370.352,200.719,369.747,200.489Z" transform="translate(-335.594 -184.455)" fill="#007dc5"/>
    <path id="Path_2108" data-name="Path 2108" d="M395.256,201.416h1.312V200.9h-1.312V200h1.391v-.523H394.62v3.48h2.1v-.523h-1.467Z" transform="translate(-359.001 -184.901)" fill="#007dc5"/>
    <path id="Path_2109" data-name="Path 2109" d="M540.737,200.489c-.464-.177-.666-.3-.666-.57,0-.205.172-.419.575-.419a1.5,1.5,0,0,1,.7.165l.152-.513a1.854,1.854,0,0,0-.835-.172c-.755,0-1.232.43-1.232,1,0,.5.367.808.943,1.012.44.16.617.315.617.578,0,.285-.227.475-.633.475a1.757,1.757,0,0,1-.841-.222l-.141.527a2.019,2.019,0,0,0,.941.222c.9,0,1.321-.486,1.321-1.046C541.632,201.023,541.342,200.719,540.737,200.489Z" transform="translate(-488.12 -184.455)" fill="#007dc5"/>
    <path id="Path_2110" data-name="Path 2110" d="M64.77,70.987a2.359,2.359,0,0,1,2.523-2.523v-2.68a1.262,1.262,0,1,0-2.523,0Z" transform="translate(-64.77 -64.47)" fill="url(#linear-gradient)"/>
    <path id="Path_2111" data-name="Path 2111" d="M69.237,115.622a5.2,5.2,0,0,0,1.734-.289c-2.654.447-3.679-1.366-3.679-3.416V103.51h3.074a1.035,1.035,0,1,0,0-2.05H67.293a2.359,2.359,0,0,0-2.523,2.523v7.225C64.77,114.1,66.425,115.622,69.237,115.622Z" transform="translate(-64.77 -97.466)" fill="url(#linear-gradient-2)"/>
    <path id="Path_2112" data-name="Path 2112" d="M91.809,193.464a4.269,4.269,0,0,0,2.391-2.207l-1.182-2.128c-.526,1.577-1.445,2.418-2.706,2.418-1.314,0-2.181-.762-2.181-2.5v1C88.13,192.1,89.155,193.912,91.809,193.464Z" transform="translate(-85.607 -175.597)" fill="url(#linear-gradient-3)"/>
    <path id="Path_2113" data-name="Path 2113" d="M136.237,113.619c-5.991.893-7.883-2.312-7.883-6.437,0-3,1.839-5.045,4.493-5.045a5.85,5.85,0,0,1,2.523.552,2.081,2.081,0,0,0,.893.211.992.992,0,0,0,1.051-1.051,1.187,1.187,0,0,0-.788-1.051,8.355,8.355,0,0,0-3.679-.788c-4.152,0-7.016,2.943-7.016,7.225,0,4.2,2.759,7.121,7.2,7.121A6.725,6.725,0,0,0,136.237,113.619Z" transform="translate(-119.236 -96.172)" fill="url(#linear-gradient-4)"/>
    <path id="Path_2114" data-name="Path 2114" d="M125.85,107.225c0-4.283,2.864-7.225,7.016-7.225a8.355,8.355,0,0,1,3.679.788,1.187,1.187,0,0,1,.788,1.051.992.992,0,0,1-1.051,1.051,2.081,2.081,0,0,1-.893-.211,5.861,5.861,0,0,0-2.523-.552C129.213,102.128,125.85,104.44,125.85,107.225Z" transform="translate(-119.254 -96.163)" fill="url(#linear-gradient-5)"/>
    <path id="Path_2115" data-name="Path 2115" d="M260.9,107.79a1.193,1.193,0,0,0-.368.867c0,.867.814,2.154,2.706,3.469l2.154,1.5c1.577,1.1,2.207,2.154,2.207,3.731a3.74,3.74,0,0,1-1.182,2.785,1.248,1.248,0,0,0,.42-.972c0-.92-.92-2.365-2.891-3.731l-1.971-1.366c-1.655-1.157-2.312-2.233-2.312-3.705a3.3,3.3,0,0,1,.841-2.233A4.443,4.443,0,0,1,260.9,107.79Z" transform="translate(-238.615 -103.112)" fill="url(#linear-gradient-6)"/>
    <path id="Path_2116" data-name="Path 2116" d="M255.3,182.751a1.1,1.1,0,0,0,.762,1.025,7.812,7.812,0,0,0,3.1.684,4.916,4.916,0,0,0,3.364-1.157,1.248,1.248,0,0,0,.42-.972c0-.92-.92-2.365-2.891-3.731.893.631,1.261,1.157,1.261,1.918a1.952,1.952,0,0,1-2.181,1.892,19.746,19.746,0,0,1-2.864-.631A.924.924,0,0,0,255.3,182.751Z" transform="translate(-234.725 -166.276)" fill="url(#linear-gradient-7)"/>
    <path id="Path_2117" data-name="Path 2117" d="M270.407,105.186c-.841-.6-1.208-1.157-1.208-1.813,0-.841.684-1.366,1.655-1.366,1.235,0,1.813.578,2.548.578a.924.924,0,0,0,.972-.972,1.1,1.1,0,0,0-.762-1.025,6.391,6.391,0,0,0-2.838-.578,4.423,4.423,0,0,0-2.706.841,1.193,1.193,0,0,0-.368.867C267.7,102.584,268.515,103.872,270.407,105.186Z" transform="translate(-245.786 -96.172)" fill="url(#linear-gradient-8)"/>
    <path id="Path_2118" data-name="Path 2118" d="M149.21,116.941c0,4.125,1.892,7.331,7.883,6.437,1.918-1,3.285-3.021,4.23-6.122l.552-1.813a3.583,3.583,0,0,1-.735-2.26,3.3,3.3,0,0,1,.841-2.233,9.524,9.524,0,0,0-1.971,3.81l-.6,2c-1.078,3.521-2.785,5.2-5.439,5.2C151.049,121.959,149.21,119.937,149.21,116.941Z" transform="translate(-140.092 -105.931)" fill="url(#linear-gradient-9)"/>
  </g>
</svg>
