<svg id="Group_2652" data-name="Group 2652" xmlns="http://www.w3.org/2000/svg" xmlns:xlink="http://www.w3.org/1999/xlink" width="33.564" height="50.792" viewBox="0 0 33.564 50.792">
  <defs>
    <clipPath id="clip-path">
      <rect id="Rectangle_786" data-name="Rectangle 786" width="33.564" height="50.792" stroke="#000" stroke-width="2"/>
    </clipPath>
  </defs>
  <g id="Group_2600" data-name="Group 2600" clip-path="url(#clip-path)">
    <path id="Path_1019" data-name="Path 1019" d="M10.478,1.06a5.433,5.433,0,1,0,5.433,5.43,5.433,5.433,0,0,0-5.433-5.43m0,11.924a6.489,6.489,0,1,1,6.489-6.489,6.489,6.489,0,0,1-6.489,6.489" transform="translate(4.265 2.284)" stroke="#000" stroke-width="2"/>
    <path id="Path_1020" data-name="Path 1020" d="M8.292,30.774H4.11A4.117,4.117,0,0,1,0,26.664V18.356c0-3.9,2.752-6.844,6.4-6.844H17.923A6.446,6.446,0,0,1,24.309,17.7c.017.209.036,1.165.036,1.358a.521.521,0,0,1-.53.53.53.53,0,0,1-.529-.53c0-.529-.017-1.165-.017-1.27a5.4,5.4,0,0,0-5.328-5.222H6.42c-3.051,0-5.344,2.487-5.344,5.786v8.309a3.052,3.052,0,0,0,3.053,3.051h4.18a.521.521,0,0,1,.53.53.547.547,0,0,1-.547.529" transform="translate(2.571 7.18)" stroke="#000" stroke-width="2"/>
    <path id="Path_1021" data-name="Path 1021" d="M8.022,22.834h-3.7a.52.52,0,0,1-.53-.529V17.648a.53.53,0,1,1,1.059,0v4.127H8.022a.52.52,0,0,1,.529.53.53.53,0,0,1-.529.529" transform="translate(4.182 9.564)" stroke="#000" stroke-width="2"/>
    <path id="Path_1022" data-name="Path 1022" d="M13.96,33.4a.52.52,0,0,1-.529-.529v-2.84a.529.529,0,0,1,1.057,0v2.841a.53.53,0,0,1-.529.529" transform="translate(8.282 14.818)" stroke="#000" stroke-width="2"/>
    <path id="Path_1023" data-name="Path 1023" d="M3.426,35.612a.52.52,0,0,1-.529-.529V24.834a.529.529,0,0,1,1.057,0v10.25a.53.53,0,0,1-.529.529" transform="translate(3.803 12.608)" stroke="#000" stroke-width="2"/>
    <path id="Path_1024" data-name="Path 1024" d="M8.55,30.861H20.7l2.84-11.819H11.391ZM21.11,31.92H7.865a.564.564,0,0,1-.424-.194.537.537,0,0,1-.105-.459L10.441,18.39a.527.527,0,0,1,.51-.4H24.2a.558.558,0,0,1,.424.194.535.535,0,0,1,.105.459l-3.1,12.876a.53.53,0,0,1-.511.406" transform="translate(5.682 9.932)" stroke="#000" stroke-width="2"/>
  </g>
</svg>
