<svg xmlns="http://www.w3.org/2000/svg" xmlns:xlink="http://www.w3.org/1999/xlink" width="42.975" height="43.813" viewBox="0 0 42.975 43.813">
  <defs>
    <clipPath id="clip-path">
      <rect id="Rectangle_785" data-name="Rectangle 785" width="42.975" height="43.813" stroke="#000" stroke-width="2"/>
    </clipPath>
  </defs>
  <g id="Group_2598" data-name="Group 2598" clip-path="url(#clip-path)">
    <path id="Path_1013" data-name="Path 1013" d="M7.382,7.932H26.051V.867H7.382l-6.1,3.54Zm19.1.856H7.265a.4.4,0,0,1-.215-.056L.215,4.778a.429.429,0,0,1,0-.743L7.051.066A.4.4,0,0,1,7.265.01H26.476A.42.42,0,0,1,26.9.442V8.361a.438.438,0,0,1-.428.428" transform="translate(4.678 4.957)" stroke="#000" stroke-width="2"/>
    <path id="Path_1014" data-name="Path 1014" d="M18.352,8.791a.42.42,0,0,1-.428-.428V.444a.428.428,0,0,1,.856,0V8.363a.429.429,0,0,1-.428.428" transform="translate(7.423 4.955)" stroke="#000" stroke-width="2"/>
    <path id="Path_1015" data-name="Path 1015" d="M6.357,8.792a.423.423,0,0,1-.342-.172.43.43,0,0,1,.083-.6L8.3,6.382,6.1,4.738a.429.429,0,0,1,0-.685L8.3,2.411,6.1.77A.429.429,0,0,1,6.614.085L9.269,2.069a.427.427,0,0,1,0,.685L7.071,4.4l2.2,1.641a.427.427,0,0,1,0,.685L6.614,8.706a.465.465,0,0,1-.257.085" transform="translate(5.588 4.954)" stroke="#000" stroke-width="2"/>
    <path id="Path_1016" data-name="Path 1016" d="M32.6,26.9H20.421a.42.42,0,0,1-.428-.428V13.3H8.332V18a.429.429,0,1,1-.856,0V12.872a.421.421,0,0,1,.429-.429H20.421a.421.421,0,0,1,.428.429V26.046H32.168V4.309H28.185a.428.428,0,0,1,0-.856H32.6a.42.42,0,0,1,.428.428V26.474a.438.438,0,0,1-.428.428" transform="translate(5.823 5.483)" stroke="#000" stroke-width="2"/>
    <path id="Path_1017" data-name="Path 1017" d="M6.367,16.652a3,3,0,0,0-3,3v9.377a3,3,0,0,0,3,3h4.6a3,3,0,0,0,3-3V19.649a3,3,0,0,0-3-3Zm4.6,16.214h-4.6a3.856,3.856,0,0,1-3.854-3.854V19.635a3.856,3.856,0,0,1,3.854-3.854h4.6a3.856,3.856,0,0,1,3.854,3.854v9.377a3.856,3.856,0,0,1-3.854,3.854" transform="translate(5.063 7.37)" stroke="#000" stroke-width="2"/>
    <path id="Path_1018" data-name="Path 1018" d="M7.9,21.949a.42.42,0,0,1-.428-.428V18.893a.428.428,0,0,1,.856,0v2.628a.429.429,0,0,1-.428.428" transform="translate(5.823 7.782)" stroke="#000" stroke-width="2"/>
  </g>
</svg>
