<svg id="Group_2649" data-name="Group 2649" xmlns="http://www.w3.org/2000/svg" xmlns:xlink="http://www.w3.org/1999/xlink" width="46.298" height="42.197" viewBox="0 0 46.298 42.197">
  <defs>
    <clipPath id="clip-path">
      <rect id="Rectangle_784" data-name="Rectangle 784" width="46.298" height="42.197" stroke="#000" stroke-width="2"/>
    </clipPath>
  </defs>
  <g id="Group_2596" data-name="Group 2596" clip-path="url(#clip-path)">
    <path id="Path_1003" data-name="Path 1003" d="M26.084,25.4a.379.379,0,0,1-.385-.385c0-2.481-3.162-4.744-6.634-4.744s-6.634,2.263-6.634,4.744a.386.386,0,0,1-.772,0c0-3.162,3.908-5.515,7.405-5.515s7.4,2.354,7.4,5.515a.379.379,0,0,1-.385.385" transform="translate(4.25 2.826)" stroke="#000" stroke-width="2"/>
    <path id="Path_1004" data-name="Path 1004" d="M18.925,10.612a2.918,2.918,0,1,0,2.919,2.918,2.918,2.918,0,0,0-2.919-2.918m0,6.608a3.69,3.69,0,1,1,3.689-3.689,3.69,3.69,0,0,1-3.689,3.689" transform="translate(4.39 2.453)" stroke="#000" stroke-width="2"/>
    <path id="Path_1005" data-name="Path 1005" d="M14.5.772A2.018,2.018,0,1,0,16.516,2.79,2.018,2.018,0,0,0,14.5.772m0,4.807a2.787,2.787,0,1,1,1.973-.816,2.79,2.79,0,0,1-1.973.816" transform="translate(4.252 2.073)" stroke="#000" stroke-width="2"/>
    <path id="Path_1006" data-name="Path 1006" d="M18.8,31.853a.379.379,0,0,1-.385-.385V27.483a.385.385,0,0,1,.771,0v3.985a.379.379,0,0,1-.385.385" transform="translate(4.512 3.118)" stroke="#000" stroke-width="2"/>
    <path id="Path_1007" data-name="Path 1007" d="M19.113,31.7a2.018,2.018,0,1,0,2.018,2.018A2.018,2.018,0,0,0,19.113,31.7m0,4.807a2.787,2.787,0,1,1,1.973-.816,2.79,2.79,0,0,1-1.973.816" transform="translate(4.432 3.267)" stroke="#000" stroke-width="2"/>
    <path id="Path_1008" data-name="Path 1008" d="M32.754,17.9H28.8a.386.386,0,0,1,0-.772h3.959a.379.379,0,0,1,.385.386.387.387,0,0,1-.385.385" transform="translate(4.895 2.734)" stroke="#000" stroke-width="2"/>
    <path id="Path_1009" data-name="Path 1009" d="M35.013,15.588a2.018,2.018,0,1,0,2.018,2.018,2.018,2.018,0,0,0-2.018-2.018m0,4.807a2.787,2.787,0,1,1,1.973-.816,2.79,2.79,0,0,1-1.973.816" transform="translate(5.043 2.645)" stroke="#000" stroke-width="2"/>
    <path id="Path_1010" data-name="Path 1010" d="M8.961,17.9H5.014a.386.386,0,0,1,0-.772H8.961a.386.386,0,0,1,0,.772" transform="translate(3.98 2.734)" stroke="#000" stroke-width="2"/>
    <path id="Path_1011" data-name="Path 1011" d="M2.79,15.588a2.018,2.018,0,1,0,2.018,2.018A2.018,2.018,0,0,0,2.79,15.588m0,4.807a2.787,2.787,0,1,1,1.973-.816A2.79,2.79,0,0,1,2.79,20.4" transform="translate(3.801 2.645)" stroke="#000" stroke-width="2"/>
    <path id="Path_1012" data-name="Path 1012" d="M19.188,28.734A10.772,10.772,0,0,1,8.426,18.012v-.039a10.68,10.68,0,0,1,5.815-9.549v-3.4a.385.385,0,1,1,.771,0V8.666a.4.4,0,0,1-.218.348A9.939,9.939,0,0,0,9.2,17.986v.039a9.988,9.988,0,1,0,19.976-.012v-.039A9.941,9.941,0,0,0,23.584,9a.386.386,0,0,1-.218-.347V5.015a.385.385,0,0,1,.771,0V8.409a10.706,10.706,0,0,1,5.811,9.552V18A10.784,10.784,0,0,1,19.186,28.734" transform="translate(4.127 2.252)" stroke="#000" stroke-width="2"/>
  </g>
</svg>
