<svg xmlns="http://www.w3.org/2000/svg" width="36.945" height="45.508" viewBox="0 0 36.945 45.508">
  <g id="noun-curriculum-6758149" transform="translate(-13.688 -5.202)">
    <g id="Group_77374" data-name="Group 77374" transform="translate(13.938 5.461)">
      <path id="Path_4074" data-name="Path 4074" d="M39.83,19.984H16.5a2.568,2.568,0,0,0-2.566,2.566V40.043a.789.789,0,0,0,1.579,0V22.55a.987.987,0,0,1,.987-.987H39.83a.987.987,0,0,1,.987.987V55.081a.987.987,0,0,1-.987.987H16.5a.987.987,0,0,1-.987-.987V42.869a.789.789,0,0,0-1.579,0V55.081A2.568,2.568,0,0,0,16.5,57.647H39.83A2.568,2.568,0,0,0,42.4,55.081V22.55A2.568,2.568,0,0,0,39.83,19.984Z" transform="translate(-13.938 -12.647)" stroke="#000" stroke-width="0.5"/>
      <path id="Path_4075" data-name="Path 4075" d="M57.751,12.283a2.835,2.835,0,0,0-1.764-1.295L33.9,5.551a2.855,2.855,0,0,0-3.452,2.066l-.758,3.016a.79.79,0,0,0,1.531.385L31.985,8a1.23,1.23,0,0,1,.568-.768,1.257,1.257,0,0,1,.971-.144l22.09,5.439a1.259,1.259,0,0,1,.928,1.52L51.386,34.688a.789.789,0,0,0,1.531.383l5.155-20.641a2.79,2.79,0,0,0-.322-2.143Z" transform="translate(-21.721 -5.461)" stroke="#000" stroke-width="0.5"/>
      <path id="Path_4076" data-name="Path 4076" d="M27.864,29.02H23.278a.789.789,0,0,0-.789.789v5.7a.789.789,0,0,0,.789.789h4.586a.789.789,0,0,0,.789-.789v-5.7A.789.789,0,0,0,27.864,29.02Zm-.789,5.7H24.067V30.6h3.008Z" transform="translate(-18.169 -17.117)" stroke="#000" stroke-width="0.5"/>
      <path id="Path_4077" data-name="Path 4077" d="M50.993,31.118a.789.789,0,0,0-.789-.789H40.825a.789.789,0,1,0,0,1.579H50.2A.789.789,0,0,0,50.993,31.118Z" transform="translate(-26.851 -17.765)" stroke="#000" stroke-width="0.5"/>
      <path id="Path_4078" data-name="Path 4078" d="M43.75,36.727a.789.789,0,0,0,0,1.579h6.431a.789.789,0,0,0,0-1.579Z" transform="translate(-28.303 -20.931)" stroke="#000" stroke-width="0.5"/>
      <path id="Path_4079" data-name="Path 4079" d="M23.289,52.79h1.875a.789.789,0,1,0,0-1.579H23.289A.789.789,0,0,0,23.289,52.79Z" transform="translate(-18.18 -28.097)" stroke="#000" stroke-width="0.5"/>
      <path id="Path_4080" data-name="Path 4080" d="M33.02,52a.789.789,0,0,0,.789.789H44.855a.789.789,0,1,0,0-1.579H33.809A.789.789,0,0,0,33.02,52Z" transform="translate(-23.379 -28.097)" stroke="#000" stroke-width="0.5"/>
      <path id="Path_4081" data-name="Path 4081" d="M23.289,60.911h1.875a.789.789,0,1,0,0-1.579H23.289A.789.789,0,0,0,23.289,60.911Z" transform="translate(-18.18 -32.115)" stroke="#000" stroke-width="0.5"/>
      <path id="Path_4082" data-name="Path 4082" d="M44.866,59.332H33.82a.789.789,0,0,0,0,1.579H44.866A.789.789,0,0,0,44.866,59.332Z" transform="translate(-23.39 -32.115)" stroke="#000" stroke-width="0.5"/>
      <path id="Path_4083" data-name="Path 4083" d="M23.289,69.028h1.875a.789.789,0,1,0,0-1.579H23.289A.789.789,0,0,0,23.289,69.028Z" transform="translate(-18.18 -36.131)" stroke="#000" stroke-width="0.5"/>
      <path id="Path_4084" data-name="Path 4084" d="M44.866,67.449H33.82a.789.789,0,0,0,0,1.579H44.866A.789.789,0,0,0,44.866,67.449Z" transform="translate(-23.39 -36.131)" stroke="#000" stroke-width="0.5"/>
      <path id="Path_4085" data-name="Path 4085" d="M23.289,77.149h1.875a.789.789,0,1,0,0-1.579H23.289A.789.789,0,0,0,23.289,77.149Z" transform="translate(-18.18 -40.15)" stroke="#000" stroke-width="0.5"/>
      <path id="Path_4086" data-name="Path 4086" d="M44.866,75.57H33.82a.789.789,0,0,0,0,1.579H44.866A.789.789,0,0,0,44.866,75.57Z" transform="translate(-23.39 -40.15)" stroke="#000" stroke-width="0.5"/>
    </g>
  </g>
</svg>
