<svg id="Duration" xmlns="http://www.w3.org/2000/svg" width="13.961" height="13.962" viewBox="0 0 13.961 13.962">
  <path id="Path_12" data-name="Path 12" d="M9.272.537A.605.605,0,0,1,9.928,0a.605.605,0,0,1,.656.537V2.892a.605.605,0,0,1-.656.537.605.605,0,0,1-.656-.537V.537Zm-5.908,0A.605.605,0,0,1,4.02,0a.605.605,0,0,1,.656.537V2.892a.605.605,0,0,1-.656.537.605.605,0,0,1-.656-.537V.537ZM.727,5.149H13.234V2.439a.335.335,0,0,0-.1-.235.331.331,0,0,0-.235-.1H11.7a.364.364,0,1,1,0-.727h1.2a1.063,1.063,0,0,1,1.06,1.06V12.9a1.063,1.063,0,0,1-1.06,1.06H1.06A1.063,1.063,0,0,1,0,12.9V2.439a1.063,1.063,0,0,1,1.06-1.06H2.34a.364.364,0,1,1,0,.727H1.06a.335.335,0,0,0-.235.1.331.331,0,0,0-.1.235v2.71Zm12.507.728H.727V12.9a.335.335,0,0,0,.1.235.331.331,0,0,0,.235.1H12.9a.335.335,0,0,0,.235-.1.331.331,0,0,0,.1-.235V5.877ZM5.73,2.106a.364.364,0,1,1,0-.727H8.171a.364.364,0,0,1,0,.727Z"/>
</svg>
