<svg xmlns="http://www.w3.org/2000/svg" width="13.961" height="10.23" viewBox="0 0 13.961 10.23">
  <g id="Lecture_Videos" data-name="Lecture Videos" transform="translate(-19.113 -27.355)">
    <path id="Path_4095" data-name="Path 4095" d="M32.56,28.926a.026.026,0,0,1,0-.013.166.166,0,0,0-.016-.034l-.013-.027c0-.009-.011-.018-.018-.027l-.02-.027a.188.188,0,0,0-.023-.023.25.25,0,0,0-.027-.023.12.12,0,0,0-.023-.016l-.034-.02s-.007,0-.011,0a15.216,15.216,0,0,0-12.557,0l-.013.007-.029.016-.027.02a.1.1,0,0,0-.025.02L19.7,28.8a.305.305,0,0,1-.02.025.171.171,0,0,0-.018.029.112.112,0,0,0-.013.027.227.227,0,0,0-.016.034.039.039,0,0,1,0,.013,12.546,12.546,0,0,0,0,7.09s0,0,0,.009a.33.33,0,0,0,.041.086l.011.013a.333.333,0,0,0,.064.064l.007.007a.347.347,0,0,0,.064.036,15.706,15.706,0,0,0,6.279,1.356h.081a15.75,15.75,0,0,0,6.2-1.356.348.348,0,0,0,.064-.036l.007-.007a.333.333,0,0,0,.064-.064l.011-.013a.344.344,0,0,0,.041-.086.026.026,0,0,0,0-.009,12.511,12.511,0,0,0,0-7.089Zm-.607,6.745a14.489,14.489,0,0,1-11.723,0,11.837,11.837,0,0,1,0-6.4,14.489,14.489,0,0,1,11.723,0,11.837,11.837,0,0,1,0,6.4Z" transform="translate(0 0)"/>
    <path id="Path_4096" data-name="Path 4096" d="M45.611,40.055l-3.5-2.022a.692.692,0,0,0-.7,0,.693.693,0,0,0-.35.608v4.044a.7.7,0,0,0,1.051.608l3.5-2.022a.7.7,0,0,0,0-1.216Z" transform="translate(-16.984 -8.192)"/>
  </g>
</svg>
