<svg xmlns="http://www.w3.org/2000/svg" width="13.961" height="14.207" viewBox="0 0 13.961 14.207">
  <g id="Real_Live_Projects" data-name="Real &amp; Live Projects" transform="translate(-6.3 -2.14)">
    <path id="Path_4064" data-name="Path 4064" d="M6.3,7.727a.763.763,0,0,1,.4-.333L9.634,5.967a.46.46,0,0,1,.644.093c.006.006.008.014.014.02.09.09.184.178.268.28s.13.1.2,0a7.487,7.487,0,0,1,.975-1.331,7.762,7.762,0,0,1,2.144-1.608A11.443,11.443,0,0,1,17.629,2.28,13.554,13.554,0,0,1,19.8,2.142a.433.433,0,0,1,.461.4v.062a13.807,13.807,0,0,1-.746,4.826,8.282,8.282,0,0,1-2.28,3.549,6.789,6.789,0,0,1-1.127.811c-.119.071-.113.113,0,.2a3.059,3.059,0,0,1,.328.333.443.443,0,0,1,.09.537l-1.5,3.218a.681.681,0,0,1-.268.268h-.636a.522.522,0,0,0-.133,0l-1-.037C11.914,16.274,10.8,16.24,9.7,16.2a.417.417,0,0,1-.424-.412.693.693,0,0,1,.006-.076.529.529,0,0,1,.184-.3l2.611-2.65c.079-.079.076-.119,0-.192-.215-.209-.424-.418-.627-.639-.079-.09-.13-.1-.22,0-.859.848-1.709,1.726-2.591,2.6a.963.963,0,0,1-.107.107A.4.4,0,0,1,8,14.61a.42.42,0,0,1-.031-.562,1.015,1.015,0,0,1,.107-.113l2.6-2.639c.071-.076.085-.119,0-.192-.215-.209-.429-.424-.639-.65-.079-.09-.13-.079-.209,0-.876.893-1.76,1.783-2.633,2.678a.425.425,0,0,1-.752-.268c-.048-1.4-.09-2.8-.138-4.2a.685.685,0,0,0,0-.263ZM19.441,3.379V3.074c0-.1,0-.124-.119-.119q-.886.038-1.763.161a10.325,10.325,0,0,0-3.619,1.2,6.667,6.667,0,0,0-2.28,2.113,9.566,9.566,0,0,0-1.286,3.105.138.138,0,0,0,.048.155c.268.274.537.537.8.819.076.076.113.079.186,0l1.277-1.3a.417.417,0,0,1,.387-.161.409.409,0,0,1,.339.268.422.422,0,0,1-.124.466l-1.3,1.325c-.059.059-.076.1,0,.161.28.274.537.537.819.836a.14.14,0,0,0,.155.042,10.9,10.9,0,0,0,1.3-.4,7.525,7.525,0,0,0,2.837-1.828,7.875,7.875,0,0,0,1.7-2.961A13.486,13.486,0,0,0,19.441,3.379ZM10.665,15.342h.042l3.56.124a.134.134,0,0,0,.144-.09c.4-.865.8-1.721,1.2-2.58a.119.119,0,0,0,0-.167,3.816,3.816,0,0,1-.3-.305.133.133,0,0,0-.178-.037,10.639,10.639,0,0,1-2.043.681.383.383,0,0,0-.2.119l-1.608,1.642ZM7.238,11.869l.042-.025L9.515,9.6a.267.267,0,0,0,.065-.133,12.123,12.123,0,0,1,.681-2.113.127.127,0,0,0-.031-.167,3.389,3.389,0,0,1-.3-.305c-.059-.065-.1-.059-.178-.025L7.221,8.041a.169.169,0,0,0-.107.192c0,.67.037,1.339.065,2.012C7.2,10.79,7.215,11.321,7.238,11.869Z" transform="translate(0 0)"/>
    <path id="Path_4065" data-name="Path 4065" d="M289.966,102.274a1.646,1.646,0,1,1,1.608-1.684v.042A1.645,1.645,0,0,1,289.966,102.274Zm0-.848a.8.8,0,1,0-.783-.814v.017a.783.783,0,0,0,.766.8A.036.036,0,0,1,289.966,101.426Z" transform="translate(-274.015 -94.106)"/>
  </g>
</svg>
