<svg xmlns="http://www.w3.org/2000/svg" width="222.889" height="97" viewBox="0 0 222.889 97">
  <g id="Layer_x0020_1" transform="translate(0 -0.01)">
    <g id="_2625389904496" transform="translate(0 0.01)">
      <path id="Path_4314" data-name="Path 4314" d="M110.6,134.23h1.35v9.427H110.6Z" transform="translate(-38.444 -46.664)" fill="#e87337"/>
      <path id="Path_4315" data-name="Path 4315" d="M127.43,134.23h1.84l4.162,7.594h.026V134.23h1.35v9.427H133.08l-4.273-7.757h-.026v7.757h-1.35Z" transform="translate(-44.294 -46.664)" fill="#e87337"/>
      <path id="Path_4316" data-name="Path 4316" d="M153.38,134.227h2.786c2.8,0,5.03,1.729,5.03,4.632,0,3.164-1.918,4.8-5.03,4.8H153.38V134.22Zm1.35,8.246h1.416c2.323,0,3.608-1.122,3.608-3.556a3.292,3.292,0,0,0-3.445-3.5H154.73Z" transform="translate(-53.314 -46.66)" fill="#e87337"/>
      <path id="Path_4317" data-name="Path 4317" d="M179.55,134.23h1.35v9.427h-1.35Z" transform="translate(-62.41 -46.664)" fill="#e87337"/>
      <path id="Path_4318" data-name="Path 4318" d="M198.825,134.23h1.422l3.986,9.434h-1.474l-.959-2.381h-4.626l-.959,2.381H194.8Zm.659,1.266h0l-1.879,4.678h3.758l-1.885-4.678Z" transform="translate(-67.711 -46.664)" fill="#e87337"/>
      <path id="Path_4319" data-name="Path 4319" d="M57.419,82.061a18.085,18.085,0,0,0-7.333-1.846,3.666,3.666,0,0,0-3.934,3.973c0,6.309,13.316,5.741,13.316,14.5,0,5.859-4.626,8.07-10.282,8.07a31.036,31.036,0,0,1-7.17-1.063v-3.314a17.044,17.044,0,0,0,7.829,2.453c2.584,0,5.121-1.063,5.121-4.8,0-7.444-13.316-5.382-13.316-14.666,0-4.5,3.438-7.085,9.219-7.085a35.368,35.368,0,0,1,6.557.731v3.034Z" transform="translate(-14.477 -27.219)" fill="#db353a"/>
      <path id="Path_4320" data-name="Path 4320" d="M90.515,82.061a18.085,18.085,0,0,0-7.333-1.846,3.669,3.669,0,0,0-3.934,3.973c0,6.309,13.316,5.741,13.316,14.5,0,5.859-4.626,8.07-10.282,8.07a31.036,31.036,0,0,1-7.17-1.063v-3.314a17.041,17.041,0,0,0,7.822,2.453c2.584,0,5.115-1.063,5.115-4.8,0-6.635-13.309-6.015-13.309-14.666,0-4.5,3.438-7.085,9.212-7.085a35.219,35.219,0,0,1,6.557.731v3.034Z" transform="translate(-25.979 -27.219)" fill="#db353a"/>
      <path id="Path_4321" data-name="Path 4321" d="M8.149,83.805a16.914,16.914,0,0,0,.7-2.414c0-1.644-1.514-1.683-3.151-1.931v-.9h7.7l9.995,28.288h-4.26l-3.073-8.52H5.611l-3.073,8.52H0L8.149,83.8Zm-1.84,12.6h9.055L10.693,83.727Z" transform="translate(0 -27.313)" fill="#db353a"/>
      <path id="Path_4322" data-name="Path 4322" d="M264.265,83.805a16.729,16.729,0,0,0,.692-2.414c0-1.644-1.514-1.683-3.151-1.931v-.9h7.7l9.995,28.288h-4.26l-3.073-8.52H261.721l-3.073,8.52H256.11l8.149-23.05Zm-1.846,12.6h9.055L266.8,83.727Z" transform="translate(-89.022 -27.313)" fill="#db353a"/>
      <path id="Path_4323" data-name="Path 4323" d="M216.387,84.4c0-3.236-.248-3.608-4.1-4.019v-.9l8.6-.939V91.523h11.143V78.54h4.508v28.3h-4.508V93.454H220.889v13.387h-4.5Z" transform="translate(-73.79 -27.306)" fill="#db353a"/>
      <path id="Path_4324" data-name="Path 4324" d="M298.231,83.785c0-3.81-.574-3.647-4.051-4.345v-.9h9.3l8.109,23.35h.078l7.953-23.35h5.526v28.3h-4.1V81.73h-.078l-8.605,25.111h-2.91l-8.56-24.863h-.078v24.863h-2.583V83.779Z" transform="translate(-102.255 -27.306)" fill="#db353a"/>
      <path id="Path_4325" data-name="Path 4325" d="M124.851,76.05c-9.036,0-16.441,6.289-16.441,15.234,0,8.912,7.659,14.7,16.441,14.7,8.651,0,16.525-5.872,16.525-14.7C141.376,82.339,133.508,76.05,124.851,76.05ZM124.864,104h0c-6.328,0-11.835-5.017-11.835-12.748,0-7.764,5.33-13.224,11.835-13.224,6.23,0,11.9,5.461,11.9,13.224,0,7.653-5.669,12.748-11.9,12.748Z" transform="translate(-37.682 -26.441)" fill="#db353a"/>
      <path id="Path_4326" data-name="Path 4326" d="M180.758,104.048a11.728,11.728,0,0,1-6.87-2.323c-2.988-2.159-4.873-5.911-4.945-10.484a13.656,13.656,0,0,1,4.1-10.191,10.153,10.153,0,0,1,7.855-2.923,6.983,6.983,0,0,1,5.8,4.626l5.722-.026c-2-4.867-6.113-6.668-11.652-6.687C171.741,76,164.33,82.329,164.33,91.274a13.512,13.512,0,0,0,5.532,11.163,18.576,18.576,0,0,0,10.908,3.536c4.541.033,8.664-2.394,11.6-5.748h-2.988c-2.114,2.3-5.467,4.045-8.618,3.817Z" transform="translate(-57.12 -26.437)" fill="#db353a"/>
      <path id="Path_4327" data-name="Path 4327" d="M170.278,24.462c-2.251-1.788-.842-7.235-4.28-7.77,1.611-3.673-2.734-5.037-2.4-8.364l.639-.639-.652-.652-.626.626c-3.379.359-4.9-4.1-8.684-2.5-.483-3.49-5.819-2.062-7.588-4.234V.01h-.926V.923c-1.781,2.2-7.163.848-7.692,4.286-3.6-1.514-5,3.177-8.351,2.629l-.646-.639-.346.346-.307.307.659.652h0c.744,3.327-4.182,4.7-2.538,8.436-3.484.47-2.146,5.793-4.241,7.659h-.92v.926h.92c2.29,1.677.848,7.176,4.28,7.764-1.6,3.66,3.275,4.8,2.6,8.344l-.639.639.659.652.646-.646c3.379-.679,4.75,4.123,8.462,2.544.47,3.5,5.793,2.094,7.581,4.247l.007.92.92-.007v-.907c1.775-2.27,7.144-.972,7.835-4.293,3.288,1.579,4.8-3.21,8.227-2.577l.639.639.652-.652-.652-.652c-.548-3.295,4.175-4.75,2.525-8.488,3.49-.522,2.049-5.872,4.234-7.653h.92v-.926l-.913.007Z" transform="translate(-42.191 -0.01)" fill="#db353a" fill-rule="evenodd"/>
      <path id="Path_4328" data-name="Path 4328" d="M168.923,26.232c-1.964-1.566-.724-6.328-3.725-6.792,1.409-3.21-2.381-4.4-2.088-7.307l.561-.561L163.1,11l-.548.548c-2.949.313-4.273-3.588-7.581-2.2-.418-3.047-5.082-1.807-6.622-3.706v-.8h-.809v.8c-1.559,1.918-6.257.731-6.726,3.732-3.145-1.331-4.371,2.773-7.294,2.29l-.568-.568-.3.307-.274.274.574.568c.646,2.9-3.66,4.1-2.225,7.366-3.047.4-1.879,5.056-3.712,6.681h-.8v.809h.8c2,1.474.731,6.276,3.732,6.779-1.4,3.2,2.858,4.2,2.257,7.294l-.561.555.574.568.568-.568c2.955-.587,4.143,3.614,7.385,2.231.411,3.06,5.063,1.833,6.622,3.719v.8h.809v-.8c1.553-1.983,6.237-.835,6.844-3.738,2.877,1.39,4.195-2.805,7.19-2.238l.561.555.574-.568-.574-.568c-.476-2.877,3.653-4.143,2.212-7.411,3.053-.45,1.794-5.121,3.706-6.681h.809v-.809l-.8.007Z" transform="translate(-43.87 -1.689)" fill="#e66138" fill-rule="evenodd"/>
      <path id="Path_4329" data-name="Path 4329" d="M167.565,28.036c-1.677-1.337-.607-5.408-3.171-5.819,1.213-2.74-2.029-3.771-1.768-6.244l.483-.476-.489-.489-.463.47c-2.525.254-3.647-3.079-6.478-1.9-.352-2.61-4.339-1.559-5.656-3.184V9.71h-.692v.679c-1.337,1.638-5.356.613-5.761,3.177-2.681-1.148-3.745,2.355-6.244,1.931l-.483-.483-.261.261h0l-.228.228.489.489h0c.542,2.486-3.138,3.49-1.918,6.289-2.61.339-1.624,4.319-3.19,5.709h-.685v.692h.685c1.7,1.266.613,5.369,3.177,5.813-1.207,2.734,2.433,3.595,1.912,6.237l-.476.476.483.489.483-.483c2.525-.489,3.53,3.1,6.309,1.925.346,2.616,4.319,1.579,5.65,3.19v.685h.692v-.679c1.331-1.7,5.337-.7,5.865-3.184,2.453,1.194,3.595-2.388,6.152-1.9l.476.483.489-.489-.483-.489c-.4-2.46,3.132-3.53,1.912-6.328,2.61-.385,1.546-4.378,3.184-5.7h.692v-.692h-.685Z" transform="translate(-45.552 -3.382)" fill="#e87337" fill-rule="evenodd"/>
      <path id="Path_4330" data-name="Path 4330" d="M166.217,29.758c-1.4-1.116-.509-4.489-2.636-4.828,1-2.277-1.69-3.132-1.474-5.187l.4-.4-.4-.4-.391.391c-2.094.215-3.034-2.557-5.376-1.572-.294-2.166-3.608-1.292-4.7-2.642V14.55h-.574v.561c-1.109,1.364-4.443.515-4.782,2.642-2.231-.946-3.105,1.964-5.18,1.618l-.4-.4-.215.215-.189.189.4.411h0c.457,2.062-2.6,2.9-1.585,5.226-2.166.287-1.337,3.588-2.642,4.743H135.9v.574h.574c1.416,1.05.515,4.456,2.642,4.821-1,2.27,2.022,2.988,1.592,5.18l-.4.4.4.4.4-.4c2.094-.411,2.936,2.57,5.245,1.6.287,2.173,3.588,1.3,4.7,2.642v.568h.574v-.568c1.1-1.4,4.43-.587,4.867-2.642,2.042.985,2.982-1.99,5.108-1.585l.4.4.411-.4-.4-.4c-.333-2.042,2.6-2.936,1.579-5.258,2.166-.32,1.279-3.634,2.636-4.743h.568v-.574h-.568Z" transform="translate(-47.238 -5.064)" fill="#f79633" fill-rule="evenodd"/>
      <path id="Path_4331" data-name="Path 4331" d="M164.836,31.019c-1.142-.842-.548-3.556-2.257-3.751.731-1.84-1.442-2.433-1.337-4.078l.3-.326-.333-.313-.294.326c-1.664.241-2.5-1.938-4.332-1.076-.3-1.716-2.91-.907-3.817-1.951l-.02-.45-.457.02.02.45c-.835,1.116-3.516.555-3.712,2.257-1.8-.679-2.407,1.657-4.064,1.448l-.333-.3-.163.176-.15.157.333.313v-.007c.424,1.631-1.977,2.4-1.09,4.208-1.716.3-.953,2.9-1.951,3.856l-.45.02.02.457.45-.02c1.161.789.555,3.523,2.257,3.745-.724,1.84,1.7,2.3,1.435,4.065l-.3.326.339.307.307-.333c1.657-.4,2.42,1.951,4.221,1.1.3,1.716,2.9.92,3.823,1.951l.02.457.457-.02-.02-.45c.835-1.155,3.5-.607,3.784-2.257,1.651.718,2.3-1.677,4.006-1.422l.333.3.313-.333-.333-.313c-.333-1.611,1.97-2.42,1.083-4.234,1.716-.32.9-2.929,1.944-3.849l.457-.02-.02-.457-.45.02Z" transform="translate(-48.917 -6.75)" fill="#faa831" fill-rule="evenodd"/>
      <path id="Path_4332" data-name="Path 4332" d="M163.491,33.24c-.829-.659-.3-2.655-1.559-2.858.594-1.35-1-1.853-.868-3.066l.235-.235-.241-.241-.228.228c-1.24.124-1.794-1.514-3.184-.933-.176-1.285-2.133-.77-2.779-1.566v-.333l-.346-.007v.333c-.652.809-2.629.307-2.825,1.559-1.318-.561-1.84,1.161-3.066.953l-.235-.235-.124.124-.117.111.241.241c.267,1.22-1.54,1.722-.939,3.092-1.279.17-.8,2.127-1.566,2.805h-.339v.339h.339c.835.62.3,2.636,1.559,2.858-.594,1.344,1.194,1.762.939,3.06l-.235.235.241.241.241-.241c1.24-.241,1.735,1.527,3.1.946.17,1.285,2.127.776,2.773,1.572v.339h.339V42.23c.652-.835,2.623-.346,2.877-1.566,1.207.587,1.768-1.174,3.021-.933l.235.235.241-.241-.241-.235c-.2-1.213,1.54-1.735.933-3.112,1.285-.189.757-2.153,1.566-2.8h.339V33.24h-.333Z" transform="translate(-50.592 -8.429)" fill="#fdb92e" fill-rule="evenodd"/>
    </g>
  </g>
</svg>
