<svg xmlns="http://www.w3.org/2000/svg" xmlns:xlink="http://www.w3.org/1999/xlink" width="48" height="48" viewBox="0 0 48 48">
  <defs>
    <clipPath id="clip-path">
      <rect id="Rectangle_4408" data-name="Rectangle 4408" width="48" height="48" fill="#fff"/>
    </clipPath>
  </defs>
  <g id="Doing_well_by_doing" data-name="Doing well by doing" clip-path="url(#clip-path)">
    <path id="Path_4304" data-name="Path 4304" d="M16.8,28.3a13.431,13.431,0,0,0,9.8,4.2A11.908,11.908,0,0,0,32,31.3" fill="none" stroke="#262937" stroke-linecap="round" stroke-linejoin="round" stroke-miterlimit="10" stroke-width="2"/>
    <path id="Path_4305" data-name="Path 4305" d="M24,40.1a8.2,8.2,0,1,0-8.2-8.2A8.2,8.2,0,0,0,24,40.1Z" fill="none" stroke="#262937" stroke-linecap="round" stroke-linejoin="round" stroke-miterlimit="10" stroke-width="2"/>
    <path id="Path_4306" data-name="Path 4306" d="M33.2,46.5a14.923,14.923,0,0,0-9.2-3,16.294,16.294,0,0,0-9.2,3" fill="none" stroke="#262937" stroke-linecap="round" stroke-linejoin="round" stroke-miterlimit="10" stroke-width="2"/>
    <path id="Path_4307" data-name="Path 4307" d="M10.471,4.5a1.1,1.1,0,0,0-1,.6l-2.4,5h-4.4a1.155,1.155,0,0,0-.8,2l4,3.8-2.2,5a1.107,1.107,0,0,0,1.6,1.4l5.2-3,1.4.8" fill="none" stroke="#262937" stroke-linecap="round" stroke-linejoin="round" stroke-miterlimit="10" stroke-width="2"/>
    <path id="Path_4308" data-name="Path 4308" d="M25.2,2.1l2.4,5h4.2a1.155,1.155,0,0,1,.8,2l-4,3.8,2.2,5a1.107,1.107,0,0,1-1.6,1.4l-5.2-3-5.2,3a1.09,1.09,0,0,1-1.6-1.4l2.2-5-4-3.8a1.155,1.155,0,0,1,.8-2h4.2l2.4-5A1.507,1.507,0,0,1,25.2,2.1Z" fill="none" stroke="#00a5e1" stroke-linecap="round" stroke-linejoin="round" stroke-miterlimit="10" stroke-width="2"/>
    <path id="Path_4309" data-name="Path 4309" d="M37.72,4.5a1.1,1.1,0,0,1,1,.6l2.4,5h4.2a1.155,1.155,0,0,1,.8,2l-4,3.8,2.2,5a1.107,1.107,0,0,1-1.6,1.4l-5.2-3-1.4.8" fill="none" stroke="#262937" stroke-linecap="round" stroke-linejoin="round" stroke-miterlimit="10" stroke-width="2"/>
  </g>
</svg>
