<svg xmlns="http://www.w3.org/2000/svg" width="48" height="46" viewBox="0 0 48 46">
  <g id="Focusing_upon_your" data-name="Focusing upon your" transform="translate(0 -1)">
    <path id="Path_4289" data-name="Path 4289" d="M42,17.2a9.3,9.3,0,0,1-1.8,4.6" fill="none" stroke="#00a5e1" stroke-linecap="round" stroke-linejoin="round" stroke-miterlimit="8" stroke-width="2"/>
    <path id="Path_4290" data-name="Path 4290" d="M35.4,25.4a11.414,11.414,0,0,1-4.5.6" fill="none" stroke="#00a5e1" stroke-linecap="round" stroke-linejoin="round" stroke-miterlimit="8" stroke-width="2"/>
    <path id="Path_4291" data-name="Path 4291" d="M22.5,12.8a8.958,8.958,0,0,1,1.7-3" fill="none" stroke="#00a5e1" stroke-linecap="round" stroke-linejoin="round" stroke-miterlimit="8" stroke-width="2"/>
    <path id="Path_4292" data-name="Path 4292" d="M28,6.8A9.618,9.618,0,0,1,33,6" fill="none" stroke="#00a5e1" stroke-linecap="round" stroke-linejoin="round" stroke-miterlimit="8" stroke-width="2"/>
    <path id="Path_4293" data-name="Path 4293" d="M38.4,8.3a10.3,10.3,0,0,1,2.9,4" fill="none" stroke="#00a5e1" stroke-linecap="round" stroke-linejoin="round" stroke-miterlimit="8" stroke-width="2"/>
    <path id="Path_4294" data-name="Path 4294" d="M1,8V4A2.006,2.006,0,0,1,3,2H7" fill="none" stroke="#262937" stroke-linecap="round" stroke-linejoin="round" stroke-miterlimit="8" stroke-width="2"/>
    <path id="Path_4295" data-name="Path 4295" d="M47,8V4a2.006,2.006,0,0,0-2-2H41" fill="none" stroke="#262937" stroke-linecap="round" stroke-linejoin="round" stroke-miterlimit="8" stroke-width="2"/>
    <path id="Path_4296" data-name="Path 4296" d="M1,40v4a2.006,2.006,0,0,0,2,2H7" fill="none" stroke="#262937" stroke-linecap="round" stroke-linejoin="round" stroke-miterlimit="8" stroke-width="2"/>
    <path id="Path_4297" data-name="Path 4297" d="M47,40v4a2.006,2.006,0,0,1-2,2H41" fill="none" stroke="#262937" stroke-linecap="round" stroke-linejoin="round" stroke-miterlimit="8" stroke-width="2"/>
    <path id="Path_4298" data-name="Path 4298" d="M18,38A13,13,0,1,0,5,25,13,13,0,0,0,18,38Z" fill="none" stroke="#262937" stroke-linecap="round" stroke-linejoin="round" stroke-miterlimit="8" stroke-width="2"/>
  </g>
</svg>
