<svg xmlns="http://www.w3.org/2000/svg" xmlns:xlink="http://www.w3.org/1999/xlink" width="48" height="48" viewBox="0 0 48 48">
  <defs>
    <clipPath id="clip-path">
      <rect id="Rectangle_4407" data-name="Rectangle 4407" width="48" height="48" fill="#fff"/>
    </clipPath>
  </defs>
  <g id="Not_settling_for_status" data-name="Not settling for status" clip-path="url(#clip-path)">
    <path id="Path_4299" data-name="Path 4299" d="M1,32l4.56-1.96" fill="none" stroke="#262937" stroke-linecap="round" stroke-linejoin="round" stroke-width="2"/>
    <path id="Path_4300" data-name="Path 4300" d="M21,47V44a1,1,0,0,1,1-1h8.96V38a1,1,0,0,1,1-1h7V32a1,1,0,0,1,1-1H47" fill="none" stroke="#00a5e1" stroke-linecap="round" stroke-linejoin="round" stroke-width="2"/>
    <path id="Path_4301" data-name="Path 4301" d="M31.86,18.68,45,13" fill="none" stroke="#262937" stroke-linecap="round" stroke-linejoin="round" stroke-width="2"/>
    <path id="Path_4302" data-name="Path 4302" d="M15.6,9a4,4,0,1,0-4-4A4,4,0,0,0,15.6,9Z" fill="none" stroke="#262937" stroke-linecap="round" stroke-linejoin="round" stroke-width="2"/>
    <path id="Path_4303" data-name="Path 4303" d="M27.2,20,24,19.04a2,2,0,0,1-1.28-1.3,6.44,6.44,0,0,0-5.28-4.7l-3.78-.64A8.5,8.5,0,0,0,7.5,13.74l-1.38.92A9.36,9.36,0,0,0,2,23.14a2.5,2.5,0,1,0,4.98-.36,4.4,4.4,0,0,1,2-4,8.12,8.12,0,0,1,2.2-1.32L10.4,28.2c0,.24,0,0,.32,4.52a3.62,3.62,0,0,1-.46,2L7.6,39.4A2.52,2.52,0,1,0,12,41.86l2.66-4.7a8.539,8.539,0,0,0,1.08-4.8l-.2-2.74L18.6,30.9a3.54,3.54,0,0,1,2,2.12l1.74,5.3a2.5,2.5,0,1,0,4.76-1.56l-1.74-5.3a8.54,8.54,0,0,0-4.7-5.14c-2.32-1.02-3.84-1.62-4.88-2L16,17.88c.72.12,1.6.16,1.88,1.2a6.86,6.86,0,0,0,4.7,4.76l3.14.92a2.5,2.5,0,0,0,1.4-4.8Z" fill="none" stroke="#262937" stroke-linecap="round" stroke-linejoin="round" stroke-width="2"/>
  </g>
</svg>
