<svg xmlns="http://www.w3.org/2000/svg" width="46.863" height="45.285" viewBox="0 0 46.863 45.285">
  <g id="Group_77513" data-name="Group 77513" transform="translate(-531.275 -161.515)">
    <g id="Group_77511" data-name="Group 77511" transform="translate(531.275 161.515)">
      <path id="Path_4232" data-name="Path 4232" d="M537.561,186.17c-.539-.145-1.078-.276-1.63-.381-.092-.013-.171-.039-.263-.053H535.6c-.053,0-.118-.026-.237-.039h-.039a.812.812,0,0,1,0-1.591h.039c.118-.026.184-.039.237-.053h.066a1.861,1.861,0,0,0,.263-.053c.552-.105,1.091-.237,1.63-.381.46-.118.907-.263,1.354-.408a24.2,24.2,0,0,0,15.279-15.279c.145-.447.289-.894.408-1.354.145-.539.276-1.078.381-1.63.013-.092.039-.171.053-.263v-.066c0-.053.026-.118.039-.224h0v-.039a.8.8,0,0,1,1.578,0v.039c.026.118.039.184.053.237v.066a1.864,1.864,0,0,0,.053.263c.105.552.237,1.091.381,1.63.118.46.263.907.408,1.354a24.2,24.2,0,0,0,15.279,15.279c.447.145.894.289,1.354.408.539.145,1.078.276,1.63.381.092.013.171.039.263.053h.066c.053,0,.118.026.237.039h.039a.812.812,0,0,1,0,1.591h-.039l-.131.026h-.105l-.039.026h-.026a1.861,1.861,0,0,1-.263.053c-.552.105-1.091.237-1.63.381-.46.118-.907.263-1.354.408a24.2,24.2,0,0,0-15.279,15.279c-.145.447-.289.894-.408,1.354-.145.539-.276,1.078-.381,1.63-.013.092-.039.171-.053.263v.145l-.039.145v.053a.812.812,0,0,1-1.591,0v-.039c-.026-.118-.039-.184-.053-.237v-.066a1.874,1.874,0,0,0-.053-.263c-.105-.552-.237-1.091-.381-1.63-.118-.46-.263-.907-.408-1.354A24.2,24.2,0,0,0,538.9,186.591c-.447-.145-.894-.289-1.354-.408Z" transform="translate(-530.204 -160.825)" fill="#ffd100"/>
      <path id="Path_4233" data-name="Path 4233" d="M531.584,168.517a7.71,7.71,0,0,1,2.13.736,8.969,8.969,0,0,1,.842.513,7.937,7.937,0,0,1,1.933,1.933c.184.276.355.552.513.842a7.861,7.861,0,0,1,.736,2.13.223.223,0,0,0,.013.092.26.26,0,0,0,.513,0,.224.224,0,0,1,.013-.092,7.709,7.709,0,0,1,.736-2.13,8.948,8.948,0,0,1,.513-.842,7.939,7.939,0,0,1,1.933-1.933c.276-.184.552-.355.842-.513a7.861,7.861,0,0,1,2.13-.736.224.224,0,0,0,.092-.013.26.26,0,0,0,0-.513.224.224,0,0,1-.092-.013,7.71,7.71,0,0,1-2.13-.736,8.975,8.975,0,0,1-.842-.513,7.936,7.936,0,0,1-1.933-1.933c-.184-.276-.355-.552-.513-.842a7.861,7.861,0,0,1-.736-2.13.224.224,0,0,0-.013-.092.26.26,0,0,0-.513,0,.223.223,0,0,1-.013.092,7.708,7.708,0,0,1-.736,2.13,8.961,8.961,0,0,1-.513.842,7.94,7.94,0,0,1-1.933,1.933c-.276.184-.552.355-.842.513a7.863,7.863,0,0,1-2.13.736.224.224,0,0,0-.092.013.26.26,0,0,0,0,.513A.224.224,0,0,1,531.584,168.517Z" transform="translate(-531.275 -161.515)" fill="#ffd100"/>
    </g>
    <g id="Group_77512" data-name="Group 77512" transform="translate(531.275 161.515)">
      <path id="Path_4234" data-name="Path 4234" d="M537.561,186.17c-.539-.145-1.078-.276-1.63-.381-.092-.013-.171-.039-.263-.053H535.6c-.053,0-.118-.026-.237-.039h-.039a.812.812,0,0,1,0-1.591h.039c.118-.026.184-.039.237-.053h.066a1.861,1.861,0,0,0,.263-.053c.552-.105,1.091-.237,1.63-.381.46-.118.907-.263,1.354-.408a24.2,24.2,0,0,0,15.279-15.279c.145-.447.289-.894.408-1.354.145-.539.276-1.078.381-1.63.013-.092.039-.171.053-.263v-.066c0-.053.026-.118.039-.224h0v-.039a.8.8,0,0,1,1.578,0v.039c.026.118.039.184.053.237v.066a1.864,1.864,0,0,0,.053.263c.105.552.237,1.091.381,1.63.118.46.263.907.408,1.354a24.2,24.2,0,0,0,15.279,15.279c.447.145.894.289,1.354.408.539.145,1.078.276,1.63.381.092.013.171.039.263.053h.066c.053,0,.118.026.237.039h.039a.812.812,0,0,1,0,1.591h-.039l-.131.026h-.105l-.039.026h-.026a1.861,1.861,0,0,1-.263.053c-.552.105-1.091.237-1.63.381-.46.118-.907.263-1.354.408a24.2,24.2,0,0,0-15.279,15.279c-.145.447-.289.894-.408,1.354-.145.539-.276,1.078-.381,1.63-.013.092-.039.171-.053.263v.145l-.039.145v.053a.812.812,0,0,1-1.591,0v-.039c-.026-.118-.039-.184-.053-.237v-.066a1.874,1.874,0,0,0-.053-.263c-.105-.552-.237-1.091-.381-1.63-.118-.46-.263-.907-.408-1.354A24.2,24.2,0,0,0,538.9,186.591c-.447-.145-.894-.289-1.354-.408Z" transform="translate(-530.204 -160.825)" fill="#ffd100"/>
      <path id="Path_4235" data-name="Path 4235" d="M531.584,168.517a7.71,7.71,0,0,1,2.13.736,8.969,8.969,0,0,1,.842.513,7.937,7.937,0,0,1,1.933,1.933c.184.276.355.552.513.842a7.861,7.861,0,0,1,.736,2.13.223.223,0,0,0,.013.092.26.26,0,0,0,.513,0,.224.224,0,0,1,.013-.092,7.709,7.709,0,0,1,.736-2.13,8.948,8.948,0,0,1,.513-.842,7.939,7.939,0,0,1,1.933-1.933c.276-.184.552-.355.842-.513a7.861,7.861,0,0,1,2.13-.736.224.224,0,0,0,.092-.013.26.26,0,0,0,0-.513.224.224,0,0,1-.092-.013,7.71,7.71,0,0,1-2.13-.736,8.975,8.975,0,0,1-.842-.513,7.936,7.936,0,0,1-1.933-1.933c-.184-.276-.355-.552-.513-.842a7.861,7.861,0,0,1-.736-2.13.224.224,0,0,0-.013-.092.26.26,0,0,0-.513,0,.223.223,0,0,1-.013.092,7.708,7.708,0,0,1-.736,2.13,8.961,8.961,0,0,1-.513.842,7.94,7.94,0,0,1-1.933,1.933c-.276.184-.552.355-.842.513a7.863,7.863,0,0,1-2.13.736.224.224,0,0,0-.092.013.26.26,0,0,0,0,.513A.224.224,0,0,1,531.584,168.517Z" transform="translate(-531.275 -161.515)" fill="#ffd100"/>
    </g>
  </g>
</svg>
