<svg xmlns="http://www.w3.org/2000/svg" width="26.615" height="35.949" viewBox="0 0 26.615 35.949">
  <path id="Path_4533" data-name="Path 4533" d="M835.592,4088.3v11.4a.763.763,0,0,1-.25.6.8.8,0,0,1-.581.237,1.018,1.018,0,0,1-.433-.1l-7.052-4.23-7.054,4.23a.86.86,0,0,1-.631.087.788.788,0,0,1-.5-.387.773.773,0,0,1-.134-.437v-11.4a13.349,13.349,0,0,1-4.99-10.382,13.436,13.436,0,0,1,6.587-11.517,13.258,13.258,0,0,1,18.2,4.791,13.255,13.255,0,0,1,.467,12.578A13.146,13.146,0,0,1,835.592,4088.3Zm-8.316-.4a9.76,9.76,0,0,0,5.024-1.373,9.934,9.934,0,0,0,3.592-3.593,9.991,9.991,0,0,0,0-10.082,9.646,9.646,0,0,0-3.592-3.556,9.956,9.956,0,0,0-10.047,0,9.648,9.648,0,0,0-3.594,3.556,10,10,0,0,0,0,10.082,9.937,9.937,0,0,0,3.594,3.593A9.76,9.76,0,0,0,827.276,4087.9Zm0-3.332a6.45,6.45,0,0,1-3.327-.9,6.7,6.7,0,0,1-2.429-2.433,6.672,6.672,0,0,1,0-6.688,6.637,6.637,0,0,1,2.429-2.409,6.67,6.67,0,0,1,9.081,2.409,6.673,6.673,0,0,1,0,6.688,6.691,6.691,0,0,1-2.428,2.433A6.454,6.454,0,0,1,827.276,4084.565Z" transform="translate(-813.968 -4064.6)" fill="#07be00"/>
</svg>
