<svg xmlns="http://www.w3.org/2000/svg" width="36.596" height="29.947" viewBox="0 0 36.596 29.947">
  <path id="Path_4547" data-name="Path 4547" d="M637.955,4561.615h3.328v3.332h-36.6v-3.332h3.327V4536.66a1.577,1.577,0,0,1,.483-1.173,1.594,1.594,0,0,1,1.18-.487h16.634a1.6,1.6,0,0,1,1.182.487,1.577,1.577,0,0,1,.483,1.173v24.955H631.3v-16.633h4.99a1.6,1.6,0,0,1,1.182.486,1.584,1.584,0,0,1,.482,1.173Zm-23.287-13.3v3.319h6.653v-3.319Zm0-6.663v3.331h6.653v-3.331Z" transform="translate(-604.687 -4535)" fill="#07be00"/>
</svg>
