<svg xmlns="http://www.w3.org/2000/svg" width="26.615" height="34.938" viewBox="0 0 26.615 34.938">
  <path id="Path_4545" data-name="Path 4545" d="M825.612,4403.615h-5.091a6.048,6.048,0,0,0-1.1-2.2,22.858,22.858,0,0,0-1.6-1.8,12.313,12.313,0,0,1-.932-1,13.218,13.218,0,0,1-2.162-3.818,13.411,13.411,0,0,1-.765-4.493,12.977,12.977,0,0,1,1.829-6.726,13.185,13.185,0,0,1,4.758-4.753,13.224,13.224,0,0,1,13.441,0,13.192,13.192,0,0,1,4.757,4.753,12.966,12.966,0,0,1,1.831,6.726,13.445,13.445,0,0,1-.765,4.493,13.22,13.22,0,0,1-2.162,3.818,12.553,12.553,0,0,1-.932,1,22.928,22.928,0,0,0-1.6,1.8,6.09,6.09,0,0,0-1.1,2.2h-5.09v-8.31h-3.327Zm8.317,3.332v1.66a3.26,3.26,0,0,1-.449,1.671,3.331,3.331,0,0,1-1.214,1.211,3.234,3.234,0,0,1-1.663.449h-6.653a3.238,3.238,0,0,1-1.664-.449,3.34,3.34,0,0,1-1.214-1.211,3.259,3.259,0,0,1-.449-1.671v-1.66Z" transform="translate(-813.968 -4377)" fill="#07be00"/>
</svg>
