<svg xmlns="http://www.w3.org/2000/svg" width="26.615" height="34.938" viewBox="0 0 26.615 34.938">
  <path id="Path_4535" data-name="Path 4535" d="M621.994,4229.323a13.055,13.055,0,0,1,6.721,1.822,13.307,13.307,0,0,1,4.758,4.767,13.254,13.254,0,0,1,0,13.438,13.186,13.186,0,0,1-4.758,4.753,13.228,13.228,0,0,1-13.441,0,13.192,13.192,0,0,1-4.757-4.753,13.246,13.246,0,0,1,0-13.438,13.313,13.313,0,0,1,4.757-4.767A13.058,13.058,0,0,1,621.994,4229.323Zm0,5.815-2.2,4.467-4.924.7,3.56,3.495-.831,4.891,4.391-2.3,4.392,2.3-.832-4.891,3.56-3.495-4.924-.7ZM623.657,4221h8.318v4.992l-2.262,1.9a16.746,16.746,0,0,0-6.055-1.834Zm-3.327,0v5.054a16.74,16.74,0,0,0-6.054,1.834l-2.263-1.9V4221Z" transform="translate(-608.686 -4221)" fill="#07be00"/>
</svg>
