<svg xmlns="http://www.w3.org/2000/svg" width="108" height="96.177" viewBox="0 0 108 96.177">
  <g id="Group_77701" data-name="Group 77701" transform="translate(-263 -2655.894)">
    <g id="Group_77699" data-name="Group 77699" transform="translate(263 2722.263)">
      <g id="Group_77698" data-name="Group 77698" transform="translate(0.001)">
        <path id="Path_4341" data-name="Path 4341" d="M7.717,4767.626h0a4.018,4.018,0,0,1-1.323,2.688,4.26,4.26,0,0,1-2.9.992,4.147,4.147,0,0,1-3.276-1.376A5.416,5.416,0,0,1-1,4766.207a5.618,5.618,0,0,1,1.216-3.8A4.1,4.1,0,0,1,3.492,4761a4.351,4.351,0,0,1,2.881.939,3.8,3.8,0,0,1,1.344,2.55H5.669a1.816,1.816,0,0,0-.683-1.259,2.3,2.3,0,0,0-1.472-.469,2.056,2.056,0,0,0-1.782.907,4.31,4.31,0,0,0-.64,2.519,4.114,4.114,0,0,0,.64,2.454,2.089,2.089,0,0,0,1.782.886A2.091,2.091,0,0,0,4.986,4769a2.112,2.112,0,0,0,.683-1.4H7.717Z" transform="translate(1 -4761)" fill="#352d74"/>
        <path id="Path_4342" data-name="Path 4342" d="M911.692,5014.607a3.6,3.6,0,0,1-2.689-1.013,3.77,3.77,0,0,1-1-2.743,3.863,3.863,0,0,1,1-2.806,3.993,3.993,0,0,1,5.388,0,3.9,3.9,0,0,1,.992,2.806,3.748,3.748,0,0,1-.992,2.743A3.59,3.59,0,0,1,911.692,5014.607Zm0-1.59a1.571,1.571,0,0,0,1.3-.554,2.566,2.566,0,0,0,.448-1.633,2.668,2.668,0,0,0-.448-1.665,1.769,1.769,0,0,0-2.593,0,3.326,3.326,0,0,0,0,3.3A1.549,1.549,0,0,0,911.692,5013.018Z" transform="translate(-898.301 -5004.375)" fill="#352d74"/>
        <path id="Path_4343" data-name="Path 4343" d="M1726,5015.416v-7.224h1.814v1.067a3.106,3.106,0,0,1,.245-.362,2.449,2.449,0,0,1,2.049-.9,2.355,2.355,0,0,1,1.792.683,2.578,2.578,0,0,1,.651,1.877v4.866h-1.91v-4.513a1.449,1.449,0,0,0-.288-.992,1.136,1.136,0,0,0-.885-.32,1.464,1.464,0,0,0-1.152.448,1.9,1.9,0,0,0-.406,1.3v4.076H1726Z" transform="translate(-1707.573 -5005.365)" fill="#352d74"/>
        <path id="Path_4344" data-name="Path 4344" d="M2436.966,4779.012v5.89h-1.91v-5.89H2434v-1.334h1.056v-.608a2.01,2.01,0,0,1,.555-1.557,2.412,2.412,0,0,1,1.686-.513,7.465,7.465,0,0,1,.9.043v1.526h-.608a.653.653,0,0,0-.5.149,1.082,1.082,0,0,0-.117.63v.331h1.227v1.334Z" transform="translate(-2408.019 -4774.85)" fill="#352d74"/>
        <path id="Path_4345" data-name="Path 4345" d="M2878.436,5015.6a3.217,3.217,0,0,1-2.539-1.014,4.243,4.243,0,0,1-.9-2.892,3.82,3.82,0,0,1,.907-2.71,3.3,3.3,0,0,1,2.529-.981,3.236,3.236,0,0,1,2.55,1,4.11,4.11,0,0,1,.9,2.849,1.451,1.451,0,0,1-.032.427h-4.919a2.5,2.5,0,0,0,.373,1.28,1.563,1.563,0,0,0,1.334.534,1.446,1.446,0,0,0,.8-.246.95.95,0,0,0,.438-.587h1.942a2.741,2.741,0,0,1-1.142,1.729,3.815,3.815,0,0,1-2.23.619Zm1.451-4.545h0a2,2,0,0,0-.341-1.014,1.33,1.33,0,0,0-1.131-.48,1.278,1.278,0,0,0-1.12.565,2.441,2.441,0,0,0-.341.939h2.945Z" transform="translate(-2844.313 -5005.365)" fill="#352d74"/>
        <path id="Path_4346" data-name="Path 4346" d="M3602.073,4796.955a2.717,2.717,0,0,1-2.23-1.077,4.451,4.451,0,0,1-.843-2.838,4.046,4.046,0,0,1,.843-2.678,2.73,2.73,0,0,1,2.219-1.013,2.313,2.313,0,0,1,1.974,1.034l.075.107V4787h1.91v9.763h-1.846v-.917l-.032.043A2.471,2.471,0,0,1,3602.073,4796.955Zm.512-5.954a1.388,1.388,0,0,0-1.195.587,2.72,2.72,0,0,0-.427,1.632,2.616,2.616,0,0,0,.427,1.6,1.512,1.512,0,0,0,2.4-.032,2.839,2.839,0,0,0,.427-1.675,2.466,2.466,0,0,0-.427-1.547,1.415,1.415,0,0,0-1.195-.555Z" transform="translate(-3560.588 -4786.722)" fill="#352d74"/>
        <path id="Path_4347" data-name="Path 4347" d="M4366.436,5015.6a3.219,3.219,0,0,1-2.54-1.014,4.246,4.246,0,0,1-.9-2.892,3.87,3.87,0,0,1,.907-2.71,3.3,3.3,0,0,1,2.529-.981,3.237,3.237,0,0,1,2.55,1,4.11,4.11,0,0,1,.9,2.849,1.42,1.42,0,0,1-.033.427h-4.918a2.5,2.5,0,0,0,.373,1.28,1.553,1.553,0,0,0,1.323.534,1.447,1.447,0,0,0,.8-.246.95.95,0,0,0,.438-.587h1.941a2.739,2.739,0,0,1-1.142,1.729,3.826,3.826,0,0,1-2.24.619Zm1.451-4.545h0a2,2,0,0,0-.341-1.014,1.329,1.329,0,0,0-1.131-.48,1.278,1.278,0,0,0-1.121.565,2.434,2.434,0,0,0-.341.939h2.945Z" transform="translate(-4316.437 -5005.365)" fill="#352d74"/>
        <path id="Path_4348" data-name="Path 4348" d="M5122.022,5015.416v-7.224h1.813v1.292a3.018,3.018,0,0,1,.224-.406,2,2,0,0,1,1.729-1.078l.426.011v1.942a4.631,4.631,0,0,0-.576-.032,1.519,1.519,0,0,0-1.729,1.739v3.756h-1.888Z" transform="translate(-5067.338 -5005.365)" fill="#352d74"/>
        <path id="Path_4349" data-name="Path 4349" d="M5578.219,5013.618a2.241,2.241,0,0,1-1.611-.576,1.985,1.985,0,0,1-.608-1.516,2.237,2.237,0,0,1,.555-1.589,2.654,2.654,0,0,1,1.611-.747l1.259-.171a2.54,2.54,0,0,0,.811-.224.408.408,0,0,0,.213-.245.584.584,0,0,0,.054-.353.668.668,0,0,0-.31-.48,1.758,1.758,0,0,0-.939-.2,1.24,1.24,0,0,0-.854.267,1.041,1.041,0,0,0-.331.747h-1.824a2.433,2.433,0,0,1,.864-1.9,3.786,3.786,0,0,1,2.358-.63,3.558,3.558,0,0,1,2.124.565,1.8,1.8,0,0,1,.779,1.547v4.033a2.409,2.409,0,0,0,.074.683.608.608,0,0,0,.32.31v.267h-2.06a5.051,5.051,0,0,1-.171-.854l-.01-.011a2.921,2.921,0,0,1-2.327,1.067Zm2.294-2.859v-.833a2.985,2.985,0,0,1-.875.3l-.7.128a1.516,1.516,0,0,0-.758.342.842.842,0,0,0-.256.629.948.948,0,0,0,.234.683.861.861,0,0,0,.651.245,1.828,1.828,0,0,0,1.462-.64,1.109,1.109,0,0,0,.181-.374,1.844,1.844,0,0,0,.075-.48Z" transform="translate(-5516.494 -5003.386)" fill="#352d74"/>
        <path id="Path_4350" data-name="Path 4350" d="M6265.065,4853.2c-.32.032-.715.042-1.173.042a2.278,2.278,0,0,1-1.451-.363,1.429,1.429,0,0,1-.437-1.184v-4.418h-1v-1.334h1V4844h1.91v1.941h1.163v1.334h-1.163v4.108a.343.343,0,0,0,.149.331,1.569,1.569,0,0,0,.619.075h.395v1.419Z" transform="translate(-6194.186 -4843.114)" fill="#352d74"/>
        <path id="Path_4351" data-name="Path 4351" d="M6760.021,4790.838v-7.224h1.91v7.224ZM6760,4781h1.942v1.761H6760Z" transform="translate(-6687.861 -4780.787)" fill="#352d74"/>
        <path id="Path_4352" data-name="Path 4352" d="M7073.691,5014.607a3.6,3.6,0,0,1-2.688-1.013,3.77,3.77,0,0,1-1-2.743,3.862,3.862,0,0,1,1-2.806,3.992,3.992,0,0,1,5.388,0,3.9,3.9,0,0,1,.992,2.806,3.747,3.747,0,0,1-.992,2.743A3.59,3.59,0,0,1,7073.691,5014.607Zm0-1.59a1.572,1.572,0,0,0,1.3-.554,2.566,2.566,0,0,0,.448-1.633,2.667,2.667,0,0,0-.448-1.665,1.769,1.769,0,0,0-2.593,0,3.325,3.325,0,0,0,0,3.3A1.548,1.548,0,0,0,7073.691,5013.018Z" transform="translate(-6994.553 -5004.375)" fill="#352d74"/>
        <path id="Path_4353" data-name="Path 4353" d="M7888,5015.416v-7.224h1.814v1.067a3.151,3.151,0,0,1,.245-.362,2.449,2.449,0,0,1,2.049-.9,2.355,2.355,0,0,1,1.792.683,2.578,2.578,0,0,1,.651,1.877v4.866h-1.91v-4.513a1.45,1.45,0,0,0-.288-.992,1.138,1.138,0,0,0-.886-.32,1.464,1.464,0,0,0-1.152.448,1.9,1.9,0,0,0-.405,1.3v4.076H7888Z" transform="translate(-7803.825 -5005.365)" fill="#352d74"/>
        <path id="Path_4354" data-name="Path 4354" d="M8984.691,5014.607a3.6,3.6,0,0,1-2.688-1.013,3.767,3.767,0,0,1-1-2.743,3.86,3.86,0,0,1,1-2.806,3.992,3.992,0,0,1,5.388,0,3.9,3.9,0,0,1,.993,2.806,3.749,3.749,0,0,1-.993,2.743A3.588,3.588,0,0,1,8984.691,5014.607Zm0-1.59a1.569,1.569,0,0,0,1.3-.554,2.566,2.566,0,0,0,.448-1.633,2.667,2.667,0,0,0-.448-1.665,1.769,1.769,0,0,0-2.593,0,3.331,3.331,0,0,0,0,3.3A1.549,1.549,0,0,0,8984.691,5013.018Z" transform="translate(-8885.163 -5004.375)" fill="#352d74"/>
        <path id="Path_4355" data-name="Path 4355" d="M9730.967,4779.012v5.89h-1.911v-5.89H9728v-1.334h1.056v-.608a2.011,2.011,0,0,1,.555-1.557,2.415,2.415,0,0,1,1.687-.513,7.46,7.46,0,0,1,.9.043v1.526h-.608a.649.649,0,0,0-.5.149,1.078,1.078,0,0,0-.117.63v.331h1.226v1.334Z" transform="translate(-9624.193 -4774.85)" fill="#352d74"/>
      </g>
      <g id="Group_77697" data-name="Group 77697" transform="translate(0 17.069)">
        <path id="Path_4356" data-name="Path 4356" d="M10577,4797.763V4788h2.037v9.763Z" transform="translate(-10577 -4787.925)" fill="#352d74"/>
        <path id="Path_4357" data-name="Path 4357" d="M10932,5015.416v-7.224h1.813v1.067a3.09,3.09,0,0,1,.245-.362,2.449,2.449,0,0,1,2.049-.9,2.354,2.354,0,0,1,1.792.683,2.578,2.578,0,0,1,.651,1.877v4.866h-1.91v-4.513a1.447,1.447,0,0,0-.288-.992,1.134,1.134,0,0,0-.885-.32,1.465,1.465,0,0,0-1.153.448,1.9,1.9,0,0,0-.405,1.3v4.076H10932Z" transform="translate(-10928.212 -5005.578)" fill="#352d74"/>
        <path id="Path_4358" data-name="Path 4358" d="M11675.071,4796.955a2.717,2.717,0,0,1-2.229-1.077,4.451,4.451,0,0,1-.843-2.838,4.046,4.046,0,0,1,.843-2.678,2.729,2.729,0,0,1,2.219-1.013,2.313,2.313,0,0,1,1.975,1.034l.075.107V4787h1.91v9.763h-1.847v-.917l-.032.043A2.468,2.468,0,0,1,11675.071,4796.955Zm.514-5.954a1.386,1.386,0,0,0-1.2.587,2.722,2.722,0,0,0-.428,1.632,2.618,2.618,0,0,0,.428,1.6,1.512,1.512,0,0,0,2.4-.032,2.848,2.848,0,0,0,.427-1.675,2.474,2.474,0,0,0-.427-1.547,1.416,1.416,0,0,0-1.2-.555Z" transform="translate(-11660.315 -4786.936)" fill="#352d74"/>
        <path id="Path_4359" data-name="Path 4359" d="M12494.021,4790.838v-7.224h1.911v7.224ZM12494,4781h1.941v1.761H12494Z" transform="translate(-12473.545 -4781)" fill="#352d74"/>
        <path id="Path_4360" data-name="Path 4360" d="M12800.219,5013.618a2.245,2.245,0,0,1-1.612-.576,1.99,1.99,0,0,1-.607-1.516,2.241,2.241,0,0,1,.555-1.589,2.653,2.653,0,0,1,1.611-.747l1.259-.171a2.536,2.536,0,0,0,.812-.224.414.414,0,0,0,.214-.245.59.59,0,0,0,.053-.353.669.669,0,0,0-.31-.48,1.733,1.733,0,0,0-.939-.2,1.236,1.236,0,0,0-.853.267,1.035,1.035,0,0,0-.331.747h-1.825a2.437,2.437,0,0,1,.865-1.9,3.783,3.783,0,0,1,2.357-.63,3.557,3.557,0,0,1,2.123.565,1.8,1.8,0,0,1,.779,1.547v4.033a2.382,2.382,0,0,0,.075.683.606.606,0,0,0,.319.31v.267h-2.06a5.1,5.1,0,0,1-.17-.854l-.011-.011a2.923,2.923,0,0,1-2.326,1.067Zm2.294-2.859v-.833a2.986,2.986,0,0,1-.875.3l-.7.128a1.519,1.519,0,0,0-.759.342.849.849,0,0,0-.255.629.948.948,0,0,0,.234.683.861.861,0,0,0,.651.245,1.829,1.829,0,0,0,1.462-.64,1.127,1.127,0,0,0,.182-.374,1.906,1.906,0,0,0,.074-.48Z" transform="translate(-12774.3 -5003.599)" fill="#352d74"/>
        <path id="Path_4361" data-name="Path 4361" d="M13552,5015.416v-7.224h1.813v1.067a3.5,3.5,0,0,1,.246-.362,2.448,2.448,0,0,1,2.049-.9,2.359,2.359,0,0,1,1.793.683,2.577,2.577,0,0,1,.65,1.877v4.866h-1.91v-4.513a1.452,1.452,0,0,0-.287-.992,1.141,1.141,0,0,0-.887-.32,1.465,1.465,0,0,0-1.152.448,1.907,1.907,0,0,0-.4,1.3v4.076H13552Z" transform="translate(-13520.256 -5005.578)" fill="#352d74"/>
        <path id="Path_4362" data-name="Path 4362" d="M14684,4797.763V4788h2.038v9.763Z" transform="translate(-14640.177 -4787.925)" fill="#352d74"/>
        <path id="Path_4363" data-name="Path 4363" d="M15039,5015.416v-7.224h1.813v1.067a3.355,3.355,0,0,1,.246-.362,2.449,2.449,0,0,1,2.049-.9,2.358,2.358,0,0,1,1.793.683,2.581,2.581,0,0,1,.649,1.877v4.866h-1.909v-4.513a1.452,1.452,0,0,0-.288-.992,1.135,1.135,0,0,0-.886-.32,1.462,1.462,0,0,0-1.151.448,1.9,1.9,0,0,0-.406,1.3v4.076H15039Z" transform="translate(-14991.391 -5005.578)" fill="#352d74"/>
        <path id="Path_4364" data-name="Path 4364" d="M15782.072,4796.955a2.715,2.715,0,0,1-2.229-1.077,4.445,4.445,0,0,1-.844-2.838,4.041,4.041,0,0,1,.844-2.678,2.73,2.73,0,0,1,2.22-1.013,2.315,2.315,0,0,1,1.974,1.034l.073.107V4787h1.911v9.763h-1.846v-.917l-.032.043A2.473,2.473,0,0,1,15782.072,4796.955Zm.513-5.954a1.388,1.388,0,0,0-1.2.587,2.722,2.722,0,0,0-.428,1.632,2.618,2.618,0,0,0,.428,1.6,1.512,1.512,0,0,0,2.4-.032,2.833,2.833,0,0,0,.427-1.675,2.461,2.461,0,0,0-.427-1.547,1.415,1.415,0,0,0-1.194-.555Z" transform="translate(-15723.494 -4786.936)" fill="#352d74"/>
        <path id="Path_4365" data-name="Path 4365" d="M16600.9,5025v4.524a1.43,1.43,0,0,0,.289.981,1.113,1.113,0,0,0,.875.32,1.461,1.461,0,0,0,1.143-.448,1.9,1.9,0,0,0,.393-1.3V5025h1.91v7.224h-1.812v-1.089a2.217,2.217,0,0,1-.236.373,2.441,2.441,0,0,1-2.037.9,2.345,2.345,0,0,1-1.781-.672,2.607,2.607,0,0,1-.641-1.868V5025h1.9Z" transform="translate(-16534.746 -5022.396)" fill="#352d74"/>
        <path id="Path_4366" data-name="Path 4366" d="M17334.566,5009.358h0a.809.809,0,0,0-.342-.672,1.507,1.507,0,0,0-.918-.256,1.681,1.681,0,0,0-.865.192.593.593,0,0,0-.307.523c0,.16.115.3.352.416a6.543,6.543,0,0,0,1.227.363,6.312,6.312,0,0,1,2.338.853,1.757,1.757,0,0,1,.6,1.462,2.043,2.043,0,0,1-.854,1.707,3.654,3.654,0,0,1-2.271.651,4.367,4.367,0,0,1-2.562-.64,2.3,2.3,0,0,1-.959-1.857h1.941a.94.94,0,0,0,.438.779,1.99,1.99,0,0,0,1.143.288,1.752,1.752,0,0,0,.9-.192.617.617,0,0,0,.318-.544.507.507,0,0,0-.309-.416,5.206,5.206,0,0,0-1.1-.342,7.178,7.178,0,0,1-2.453-.875,1.631,1.631,0,0,1-.619-1.4,2.148,2.148,0,0,1,.8-1.739,3.231,3.231,0,0,1,2.111-.662,3.979,3.979,0,0,1,2.381.651,2.021,2.021,0,0,1,.906,1.708Z" transform="translate(-17257.945 -5004.589)" fill="#352d74"/>
        <path id="Path_4367" data-name="Path 4367" d="M18018.064,4853.2c-.322.032-.715.042-1.176.042a2.278,2.278,0,0,1-1.449-.363,1.43,1.43,0,0,1-.439-1.184v-4.418h-1v-1.334h1V4844h1.912v1.941h1.162v1.334h-1.162v4.108a.341.341,0,0,0,.15.331,1.558,1.558,0,0,0,.619.075h.393v1.419Z" transform="translate(-17934.648 -4843.328)" fill="#352d74"/>
        <path id="Path_4368" data-name="Path 4368" d="M18506.012,5015.416v-7.224h1.813v1.292a3.022,3.022,0,0,1,.225-.406,2,2,0,0,1,1.738-1.078l.428.011v1.942a4.678,4.678,0,0,0-.578-.032,1.517,1.517,0,0,0-1.727,1.739v3.756h-1.9Z" transform="translate(-18421.398 -5005.578)" fill="#352d74"/>
        <path id="Path_4369" data-name="Path 4369" d="M18941.2,5025l-2.594,7.372a7.21,7.21,0,0,1-1.068,2.294,2.154,2.154,0,0,1-1.59.47l-.906-.021v-1.525a1.183,1.183,0,0,0,.363.032,1.237,1.237,0,0,0,1-.31,2.471,2.471,0,0,0,.289-.821h0l-2.7-7.479h2.1l1.568,5.355h0l1.527-5.355h1.994Z" transform="translate(-18844.832 -5022.396)" fill="#352d74"/>
      </g>
    </g>
    <g id="Group_77700" data-name="Group 77700" transform="translate(268.686 2655.894)">
      <path id="Path_4370" data-name="Path 4370" d="M6542.248,0h82.933a7.265,7.265,0,0,1,7.247,7.248V53.2a7.265,7.265,0,0,1-7.247,7.248h-82.933A7.265,7.265,0,0,1,6535,53.2V7.248A7.265,7.265,0,0,1,6542.248,0Zm.06,2.133,83.395.03a7.244,7.244,0,0,1,1.462.373,7.4,7.4,0,0,1,1.268.775,6.944,6.944,0,0,1,1,1.089,7.37,7.37,0,0,1,.642,1.342,7.848,7.848,0,0,1,.238,1.566l-.03,46.41a7.244,7.244,0,0,1-.372,1.461,7.441,7.441,0,0,1-.775,1.268,7.664,7.664,0,0,1-1.089,1,7.361,7.361,0,0,1-1.343.641,7.95,7.95,0,0,1-1.565.239l-83.395-.03a7.245,7.245,0,0,1-1.462-.373,7.434,7.434,0,0,1-1.268-.775,7.677,7.677,0,0,1-1-1.089,7.435,7.435,0,0,1-.642-1.342,8.114,8.114,0,0,1-.238-1.566l.029-46.41a7.063,7.063,0,0,1,.373-1.461,6.85,6.85,0,0,1,.775-1.268,7.717,7.717,0,0,1,1.089-1,7.414,7.414,0,0,1,1.342-.641A8.128,8.128,0,0,1,6542.308,2.133Z" transform="translate(-6535)" fill="#352d74" fill-rule="evenodd"/>
      <path id="Path_4371" data-name="Path 4371" d="M7207.254,877.119,7187.732,877l-11.677,5.145L7171,900.578l7.829,10.35,18.866.1,3.146-12.154-20.924,9.917,7.935-30.184,15.584,11.334Z" transform="translate(-7161.516 -863.921)" fill="#352d74" fill-rule="evenodd"/>
      <path id="Path_4372" data-name="Path 4372" d="M9233,922.883v-2.267l3.027.015,8.292-29.886-2.133-.075V889l18.343.119-.015,1.67-2.759-.03-8.664,30.05,2.251.015-.015,2.177Z" transform="translate(-9192.765 -875.742)" fill="#352d74" fill-rule="evenodd"/>
      <path id="Path_4373" data-name="Path 4373" d="M10586,930.883l.015-2.267,3.027.015,8.292-29.871-2.147-.089.015-1.67,18.329.119v1.67l-2.774-.015-8.649,30.035,2.252.015-.015,2.177Z" transform="translate(-10525.587 -883.623)" fill="#352d74" fill-rule="evenodd"/>
    </g>
  </g>
</svg>
