<svg xmlns="http://www.w3.org/2000/svg" width="268.163" height="37.629" viewBox="0 0 268.163 37.629">
  <g id="Nasscom-logo-svg" transform="translate(0 -12.71)">
    <path id="Path_4333" data-name="Path 4333" d="M175.314,49.236h-8.957l-.139-4.722a10.75,10.75,0,0,1-4.513,4.269,14.312,14.312,0,0,1-6.734,1.563,12.239,12.239,0,0,1-8.713-3.02,10.542,10.542,0,0,1-3.229-8.088,10.507,10.507,0,0,1,3.888-8.5q3.886-3.23,10.273-3.229a22.842,22.842,0,0,1,8.747,1.6q-.072-8.54-8.887-8.541a19.9,19.9,0,0,0-11.11,3.473l-.764-7.846a20.214,20.214,0,0,1,6-2.534,28.232,28.232,0,0,1,7.187-.936q8.262,0,12.6,4.13t4.339,11.976v20.41Zm-11.63-8.125a9.568,9.568,0,0,0,2.258-6.178,16.266,16.266,0,0,0-6.8-1.389,8.47,8.47,0,0,0-5.033,1.285,4.308,4.308,0,0,0-1.77,3.714,4.348,4.348,0,0,0,1.494,3.54,6.124,6.124,0,0,0,4.06,1.25,7.473,7.473,0,0,0,5.795-2.22" transform="translate(-104.675 -0.007)" fill="#c93733"/>
    <path id="Path_4334" data-name="Path 4334" d="M281.735,39.368a22.058,22.058,0,0,0,11.665,3.54q5.969,0,5.969-3.4a2.908,2.908,0,0,0-1.25-2.5,18.978,18.978,0,0,0-5.208-2.014q-6.388-1.734-9.061-4.3a9.26,9.26,0,0,1-2.674-7.012,9.538,9.538,0,0,1,3.854-8.053q3.854-2.916,10.587-2.915a29.744,29.744,0,0,1,6.667.764,19.719,19.719,0,0,1,5.484,2.014l-1.18,7.358A22.539,22.539,0,0,0,296.1,20.138q-5.205,0-5.208,3.194a2.8,2.8,0,0,0,1.319,2.43,17.744,17.744,0,0,0,4.929,1.874q6.665,1.943,9.477,4.583a9.337,9.337,0,0,1,2.813,7.152,9.342,9.342,0,0,1-4.132,8.018q-4.131,2.948-11.351,2.95a29.592,29.592,0,0,1-7.533-.973,18.973,18.973,0,0,1-5.937-2.5Z" transform="translate(-205.266 0)" fill="#c93733"/>
    <path id="Path_4335" data-name="Path 4335" d="M398.758,39.368a22.059,22.059,0,0,0,11.662,3.54q5.969,0,5.972-3.4a2.908,2.908,0,0,0-1.25-2.5,18.978,18.978,0,0,0-5.208-2.014q-6.388-1.734-9.061-4.3a9.26,9.26,0,0,1-2.674-7.012,9.538,9.538,0,0,1,3.854-8.053q3.853-2.916,10.587-2.915a29.7,29.7,0,0,1,6.664.764,19.752,19.752,0,0,1,5.484,2.014l-1.18,7.358a22.537,22.537,0,0,0-10.482-2.708q-5.209,0-5.208,3.194a2.8,2.8,0,0,0,1.319,2.43,17.781,17.781,0,0,0,4.929,1.874q6.665,1.943,9.477,4.583a9.335,9.335,0,0,1,2.81,7.152,9.342,9.342,0,0,1-4.132,8.018q-4.131,2.948-11.351,2.95a29.592,29.592,0,0,1-7.533-.973,18.945,18.945,0,0,1-5.937-2.5Z" transform="translate(-290.905 0)" fill="#c93733"/>
    <path id="Path_4336" data-name="Path 4336" d="M519.077,22.384a17.361,17.361,0,0,1,6.873-6.629,20.951,20.951,0,0,1,10.171-2.395,27.627,27.627,0,0,1,6.213.729,19.1,19.1,0,0,1,5.31,1.979l-1.25,8.471a21.381,21.381,0,0,0-9.3-2.153,10.6,10.6,0,0,0-7.5,2.569,9.079,9.079,0,0,0-2.778,7.012,9.118,9.118,0,0,0,2.81,7.082q2.812,2.57,7.812,2.569a22.5,22.5,0,0,0,4.618-.485,25.492,25.492,0,0,0,4.894-1.6l1.11,8.332a20.992,20.992,0,0,1-5.519,2.049,28.2,28.2,0,0,1-6.353.729,22.344,22.344,0,0,1-10.311-2.258,16.342,16.342,0,0,1-6.838-6.423,19.082,19.082,0,0,1-2.43-9.788,19.135,19.135,0,0,1,2.467-9.793" transform="translate(-378.074 -0.476)" fill="#c93733"/>
    <path id="Path_4337" data-name="Path 4337" d="M662.91,50.346a19.544,19.544,0,0,1-9.823-2.464,18.242,18.242,0,0,1-6.838-6.7,18.624,18.624,0,0,1-2.5-9.649,18.3,18.3,0,0,1,9.407-16.35,20.744,20.744,0,0,1,19.613,0,18.363,18.363,0,0,1,6.8,6.7,18.634,18.634,0,0,1,2.5,9.651,18.468,18.468,0,0,1-9.372,16.35,19.407,19.407,0,0,1-9.791,2.462m6.524-25.864a8.425,8.425,0,0,0-6.527-2.743,8.338,8.338,0,0,0-6.457,2.743,10.052,10.052,0,0,0-2.5,7.047,10.064,10.064,0,0,0,2.5,7.047,8.334,8.334,0,0,0,6.457,2.743,8.42,8.42,0,0,0,6.527-2.743,10.047,10.047,0,0,0,2.5-7.047,10.048,10.048,0,0,0-2.5-7.047" transform="translate(-471.12 -0.007)" fill="#c93733"/>
    <path id="Path_4338" data-name="Path 4338" d="M32.729,50.809H23.22V30.093a6.856,6.856,0,0,0-13.711,0V50.809H0V30.093a16.363,16.363,0,1,1,32.727,0V50.809Z" transform="translate(0 -0.746)" fill="#c93733"/>
    <path id="Path_4339" data-name="Path 4339" d="M838.263,50.809h-9.509V29a5.757,5.757,0,1,0-11.515,0V50.809H807.73V29a15.266,15.266,0,1,1,30.533,0Z" transform="translate(-591.127 -0.746)" fill="#c93733"/>
    <path id="Path_4340" data-name="Path 4340" d="M916.673,50.809h-9.509V29a5.757,5.757,0,1,0-11.515,0V50.809H886.14V29a15.267,15.267,0,0,1,30.533,0Z" transform="translate(-648.51 -0.746)" fill="#c93733"/>
  </g>
</svg>
