<svg id="Group_2647" data-name="Group 2647" xmlns="http://www.w3.org/2000/svg" xmlns:xlink="http://www.w3.org/1999/xlink" width="43.975" height="51.102" viewBox="0 0 43.975 51.102">
  <defs>
    <clipPath id="clip-path">
      <rect id="Rectangle_783" data-name="Rectangle 783" width="43.975" height="51.102" stroke="#000" stroke-width="2"/>
    </clipPath>
  </defs>
  <g id="Group_2594" data-name="Group 2594" clip-path="url(#clip-path)">
    <path id="Path_999" data-name="Path 999" d="M15.678.94a7.661,7.661,0,0,0-7.764,7.53,7.24,7.24,0,0,0,.825,3.387,7.883,7.883,0,0,0,13.893,0,7.286,7.286,0,0,0,.825-3.387A7.666,7.666,0,0,0,15.677.94m0,16.013a8.708,8.708,0,0,1-7.812-4.675,8.229,8.229,0,0,1-.922-3.81A8.613,8.613,0,0,1,15.678,0a8.622,8.622,0,0,1,8.75,8.469,8.244,8.244,0,0,1-.921,3.81,8.754,8.754,0,0,1-7.829,4.675" transform="translate(7.415 2.643)" stroke="#000" stroke-width="2"/>
    <path id="Path_1000" data-name="Path 1000" d="M31.573,35.735a.471.471,0,1,1,0-.942h1.489a1.235,1.235,0,0,0,1.035-.422c.437-.486.844-1.663.4-4.532-1.148-7.419-5.256-10.555-8.718-12.453A16.413,16.413,0,0,0,17.921,15.4a17.188,17.188,0,0,0-8.816,2.449c-2.814,1.694-5.935,4.438-7.8,12.013-.647,2.635-.258,3.828.179,4.377a1.587,1.587,0,0,0,1.261.564H4.885a.471.471,0,1,1,0,.942H2.749a2.539,2.539,0,0,1-2.022-.929C-.1,33.791-.227,32.05.372,29.65c1.536-6.288,4-10.053,8.234-12.594a18.143,18.143,0,0,1,9.316-2.587,17.467,17.467,0,0,1,8.346,2.117c3.655,2.007,8.007,5.3,9.2,13.127.4,2.618.2,4.36-.631,5.285a2.305,2.305,0,0,1-1.778.737Z" transform="translate(5.285 6.508)" stroke="#000" stroke-width="2"/>
    <path id="Path_1001" data-name="Path 1001" d="M7.166,34.758H25.685l.486-14.1H6.7ZM6.7,35.7a.487.487,0,0,1-.485-.455L5.694,20.2a.535.535,0,0,1,.129-.345.469.469,0,0,1,.338-.142H26.672a.445.445,0,0,1,.338.142.4.4,0,0,1,.129.345L26.624,35.24a.487.487,0,0,1-.485.455Z" transform="translate(7.032 7.909)" stroke="#000" stroke-width="2"/>
    <path id="Path_1002" data-name="Path 1002" d="M4.644,35.165a.479.479,0,0,1-.485-.47.469.469,0,0,1,.485-.471h24a.48.48,0,0,1,.486.471.469.469,0,0,1-.486.47Z" transform="translate(6.562 11.784)" stroke="#000" stroke-width="2"/>
  </g>
</svg>
