<svg xmlns="http://www.w3.org/2000/svg" width="36.289" height="40.353" viewBox="0 0 36.289 40.353">
  <g id="noun-certification-7271292" transform="translate(-9.262 -4.637)">
    <path id="Path_4073" data-name="Path 4073" d="M14.437,12.171a.83.83,0,1,1,0-1.66h1.834V8.677a.83.83,0,0,1,1.66,0v1.834h1.834a.83.83,0,0,1,0,1.66H17.931V14a.83.83,0,1,1-1.66,0V12.171Zm9.968,9.7-9.43,0a.83.83,0,1,0,0,1.66h9.43a.83.83,0,1,0,0-1.66Zm8.362-4.161H14.976a.83.83,0,1,0,0,1.66l17.792,0a.83.83,0,0,0,0-1.66Zm-9.213,8.323-8.58,0a.83.83,0,1,0,0,1.66h8.578a.83.83,0,0,0,0-1.66Zm-1.546,4.161H14.977a.83.83,0,1,0,0,1.66h7.032a.83.83,0,0,0,0-1.66Zm1.863-14.984h8.9a.83.83,0,0,0,0-1.66h-8.9a.83.83,0,0,0,0,1.66ZM44.995,41.765a1.363,1.363,0,0,1-1.447.487l-2.006-.54-.535,2.008a1.377,1.377,0,0,1-1.14,1.006l-.009,0a1.5,1.5,0,0,1-.174.012,1.372,1.372,0,0,1-1.185-.681l-2.457-4.27a2.75,2.75,0,0,1-4.227,0l-2.453,4.265a1.366,1.366,0,0,1-1.187.687A1.206,1.206,0,0,1,28,44.728l-.009,0a1.364,1.364,0,0,1-1.139-1.009l-.535-2-2.01.542a1.37,1.37,0,0,1-1.546-2L24.575,37.1l-12.61,0a2.457,2.457,0,0,1-2.453-2.455V7.34a2.456,2.456,0,0,1,2.453-2.453H35.777A2.457,2.457,0,0,1,38.232,7.34l0,15.041a2.745,2.745,0,0,1,3.632,3.652,1.091,1.091,0,0,0-.1,1.047c.145.35.311.487.807.668a2.746,2.746,0,0,1,0,5.157c-.5.183-.664.321-.809.669a1.1,1.1,0,0,0,.1,1.051c.017.04.033.079.05.117l3.178,5.5a1.375,1.375,0,0,1-.1,1.518Zm-19.46-6.32.4-.7c.017-.043.035-.086.053-.129a1.093,1.093,0,0,0,.1-1.045c-.145-.35-.312-.488-.811-.673a2.745,2.745,0,0,1,0-5.155c.5-.181.664-.319.809-.668a1.1,1.1,0,0,0-.1-1.049,2.745,2.745,0,0,1,3.647-3.644,1.086,1.086,0,0,0,1.042.1c.35-.145.488-.311.673-.811a2.747,2.747,0,0,1,5.155,0c.024.066.047.124.069.178V7.34a.8.8,0,0,0-.8-.794H11.965a.805.805,0,0,0-.794.794V34.647a.8.8,0,0,0,.794.8H25.533ZM30.8,38.223c-.038-.019-.078-.038-.121-.055a1.086,1.086,0,0,0-1.042.1A2.736,2.736,0,0,1,26.3,37.44l-1.749,3.028,2.138-.576a.829.829,0,0,1,1.016.588l.569,2.134L30.8,38.223Zm5.74-1.587a2.724,2.724,0,0,1,2.381.126,1.086,1.086,0,0,0,1.441-1.442A2.766,2.766,0,0,1,42,31.347a1.087,1.087,0,0,0,0-2.041,2.764,2.764,0,0,1-1.646-3.97,1.087,1.087,0,0,0-1.442-1.444,2.764,2.764,0,0,1-3.97-1.644v0a1.087,1.087,0,0,0-2.039,0,2.764,2.764,0,0,1-3.968,1.646A1.087,1.087,0,0,0,27.5,25.334a2.764,2.764,0,0,1-1.648,3.971,1.086,1.086,0,0,0,0,2.039A2.766,2.766,0,0,1,27.5,35.316a1.086,1.086,0,0,0,1.441,1.444,3.115,3.115,0,0,1,1.341-.345A2.795,2.795,0,0,1,32.91,38.4a1.087,1.087,0,0,0,2.041,0,2.733,2.733,0,0,1,1.592-1.77Zm6.766,3.832L41.558,37.44a2.813,2.813,0,0,1-.242.278,2.72,2.72,0,0,1-3.1.55,1.088,1.088,0,0,0-1.045-.1,1.285,1.285,0,0,0-.119.055l2.527,4.392.568-2.136a.829.829,0,0,1,1.016-.588l2.138.576ZM37.3,35.394a1.133,1.133,0,0,1-1.289.041l-2.079-1.316-2.082,1.318a1.146,1.146,0,0,1-1.724-1.253l.611-2.386-1.9-1.572A1.149,1.149,0,0,1,28.478,29a1.135,1.135,0,0,1,1.021-.8l2.455-.157.909-2.289a1.144,1.144,0,0,1,2.127,0l.909,2.289,2.455.157a1.132,1.132,0,0,1,1.02.792,1.146,1.146,0,0,1-.355,1.23l-1.9,1.573.609,2.388a1.139,1.139,0,0,1-.433,1.206Zm-.336-5.617-1.691-.109a.833.833,0,0,1-.718-.521l-.626-1.575L33.3,29.147a.83.83,0,0,1-.718.521l-1.689.109,1.3,1.08a.832.832,0,0,1,.274.845l-.421,1.642,1.432-.906a.831.831,0,0,1,.887,0l1.43.906L35.38,31.7a.83.83,0,0,1,.274-.844l1.3-1.08Z" stroke="#000" stroke-width="0.5"/>
  </g>
</svg>
