<svg xmlns="http://www.w3.org/2000/svg" width="34.217" height="29.344" viewBox="0 0 34.217 29.344">
  <g id="noun-career-7316785" transform="translate(-29.797 -4.75)">
    <path id="Path_4072" data-name="Path 4072" d="M30.625,20.121c.145.059.287.109.432.168V31.7A2.15,2.15,0,0,0,33.2,33.844H60.611A2.15,2.15,0,0,0,62.757,31.7V20.289c.145-.059.3-.109.432-.168a.931.931,0,0,0,.574-.855V12.531a2.263,2.263,0,0,0-2.258-2.258h-7.92V7a2,2,0,0,0-1.994-2H42.229a2.007,2.007,0,0,0-2,2v3.272h-7.92a2.263,2.263,0,0,0-2.258,2.258v6.735a.938.938,0,0,0,.578.852ZM60.9,31.7a.3.3,0,0,1-.287.287H33.2a.3.3,0,0,1-.287-.287V20.949A43.589,43.589,0,0,0,43,22.834v.432a2.7,2.7,0,0,0,2.7,2.7h2.433a2.7,2.7,0,0,0,2.7-2.7l0-.432A43.616,43.616,0,0,0,60.9,20.949ZM44.847,23.263V20.83a.847.847,0,0,1,.845-.845h2.433a.847.847,0,0,1,.845.845v2.433a.847.847,0,0,1-.845.845H45.692A.849.849,0,0,1,44.847,23.263ZM42.084,7a.149.149,0,0,1,.145-.145h9.363A.149.149,0,0,1,51.737,7v3.272l-9.653,0ZM31.909,12.531a.4.4,0,0,1,.4-.4h29.2a.4.4,0,0,1,.4.4v6.111a39.881,39.881,0,0,1-11.089,2.341v-.145a2.7,2.7,0,0,0-2.7-2.7H45.682a2.7,2.7,0,0,0-2.7,2.7v.145A39.7,39.7,0,0,1,31.9,18.642l0-6.111ZM42.084,28.978a.928.928,0,0,1-.931.931l-3.625,0a.931.931,0,1,1,0-1.862h3.625a.943.943,0,0,1,.931.934Z" stroke="#000" stroke-width="0.5"/>
  </g>
</svg>
