<svg id="Group_84428" data-name="Group 84428" xmlns="http://www.w3.org/2000/svg" width="277.788" height="41.229" viewBox="0 0 277.788 41.229">
  <g id="Group_84425" data-name="Group 84425" transform="translate(55.198 2.538)">
    <path id="Path_7168" data-name="Path 7168" d="M396.99,51.824c0-9.859,7.489-16.874,17.4-16.874a16.946,16.946,0,0,1,15.025,8.3l-6.493,3.7a9.117,9.117,0,0,0-8.484-4.834c-5.546,0-9.242,3.886-9.242,9.669s3.792,9.812,9.1,9.812a9.4,9.4,0,0,0,8.579-5.45l6.684,3.6a16.674,16.674,0,0,1-15.215,9.006c-9.812,0-17.348-7.062-17.348-16.921Z" transform="translate(-396.99 -32.628)" fill="#fff" stroke="#fff" stroke-miterlimit="10" stroke-width="0.5"/>
    <path id="Path_7169" data-name="Path 7169" d="M651.01,100.769c0-7.727,6.019-13.319,13.746-13.319S678.5,93.044,678.5,100.769s-6.019,13.271-13.746,13.271S651.01,108.494,651.01,100.769Zm13.746,6.731c3.65,0,6.21-2.8,6.21-6.731s-2.512-6.778-6.21-6.778-6.257,2.749-6.257,6.778S661.058,107.5,664.756,107.5Z" transform="translate(-615.691 -77.828)" fill="#fff" stroke="#fff" stroke-miterlimit="10" stroke-width="0.5"/>
    <path id="Path_7170" data-name="Path 7170" d="M863.43,41.143c0-7.727,5.4-13.271,12.514-13.271a9.9,9.9,0,0,1,7.774,3.318h.047V18.25h7.489V53.8h-7.015V50.67h-.094a9.913,9.913,0,0,1-8.248,3.792c-6.967,0-12.466-5.5-12.466-13.319Zm14.125,6.826c3.7,0,6.351-2.843,6.351-6.778s-2.607-6.778-6.351-6.778-6.4,2.749-6.4,6.778S873.811,47.969,877.555,47.969Z" transform="translate(-798.576 -18.25)" fill="#fff" stroke="#fff" stroke-miterlimit="10" stroke-width="0.5"/>
    <path id="Path_7171" data-name="Path 7171" d="M1090.85,100.769c0-7.821,5.641-13.319,13.509-13.319,7.394,0,13.366,4.882,13.366,15.025V103h-19.1a5.6,5.6,0,0,0,5.925,4.787,6.513,6.513,0,0,0,5.4-2.512l5.594,3.65a13.2,13.2,0,0,1-11,5.119C1096.538,114.04,1090.85,108.543,1090.85,100.769Zm18.96-2.417a5.306,5.306,0,0,0-5.594-4.787c-3.081,0-5.025,1.8-5.641,4.787h11.233Z" transform="translate(-994.375 -77.828)" fill="#fff" stroke="#fff" stroke-miterlimit="10" stroke-width="0.5"/>
    <path id="Path_7172" data-name="Path 7172" d="M1311.45,18.25h7.442V53.8h-7.442Z" transform="translate(-1184.302 -18.25)" fill="#fff" stroke="#fff" stroke-miterlimit="10" stroke-width="0.5"/>
    <path id="Path_7173" data-name="Path 7173" d="M1392.29,100.721c0-7.727,5.4-13.271,12.514-13.271a9.9,9.9,0,0,1,7.774,3.318h.047v-2.7h7.489v25.311H1413.1v-3.128H1413a9.912,9.912,0,0,1-8.248,3.792C1397.789,114.04,1392.29,108.543,1392.29,100.721Zm14.124,6.826c3.7,0,6.351-2.843,6.351-6.778s-2.607-6.778-6.351-6.778-6.4,2.749-6.4,6.778S1402.669,107.547,1406.414,107.547Z" transform="translate(-1253.902 -77.828)" fill="#fff" stroke="#fff" stroke-miterlimit="10" stroke-width="0.5"/>
    <path id="Path_7174" data-name="Path 7174" d="M1635.679,50.67h-.094V53.8h-7.015V18.25h7.489V31.189h.047a9.894,9.894,0,0,1,7.774-3.318c7.062,0,12.467,5.545,12.467,13.271s-5.45,13.319-12.418,13.319a9.907,9.907,0,0,1-8.246-3.792Zm6.589-2.7c3.745,0,6.4-2.843,6.4-6.778s-2.654-6.778-6.4-6.778-6.351,2.749-6.351,6.778S1638.571,47.969,1642.268,47.969Z" transform="translate(-1457.329 -18.25)" fill="#fff" stroke="#fff" stroke-miterlimit="10" stroke-width="0.5"/>
    <path id="Path_7175" data-name="Path 7175" d="M1839.271,109.736l3.792-4.645a8.924,8.924,0,0,0,6.731,3.128c2.133,0,3.412-.806,3.412-2.227,0-1.849-2.18-2.18-4.835-2.891-3.982-1.09-7.821-2.939-7.821-7.536,0-5.119,4.693-8.1,10.9-8.1,4.834,0,7.727,1.8,9.242,3.223l-3.792,4.74a7.585,7.585,0,0,0-5.356-2.275c-2.228,0-3.129.9-3.129,1.9,0,1.517,2.228,1.944,4.408,2.56,4.36,1.232,8.247,3.128,8.247,7.963,0,5.261-4.693,8.437-11.092,8.437-5.356,0-8.864-2.038-10.712-4.266Z" transform="translate(-1638.733 -77.837)" fill="#fff" stroke="#fff" stroke-miterlimit="10" stroke-width="0.5"/>
  </g>
  <g id="Group_84426" data-name="Group 84426">
    <rect id="Rectangle_8060" data-name="Rectangle 8060" width="41.229" height="41.229" fill="#3a10e5"/>
    <path id="Path_7176" data-name="Path 7176" d="M86.926,62.58,70.21,86.451h5.032L91.957,62.58Z" transform="translate(-60.448 -53.879)" fill="#fff" stroke="#fff" stroke-miterlimit="10" stroke-width="2"/>
  </g>
</svg>
