<svg id="livspace-1695932166-AWR5M" xmlns="http://www.w3.org/2000/svg" width="96.924" height="17.422" viewBox="0 0 96.924 17.422">
  <g id="Group_77302" data-name="Group 77302" transform="translate(0)">
    <path id="Path_4036" data-name="Path 4036" d="M11.011.765h.068c.276.034.382.015.837.644s1.936,3.718,2.212,4.255,1.951,4.279,2.164,5.126c.194.775.615,1.549-.523,2.241a19.554,19.554,0,0,1-3.432,1.525c-.591.2-1.578.586-2.144.721a3.063,3.063,0,0,1-.775.145A4.111,4.111,0,0,1,8.3,15.21c-1.176-.344-2.357-.716-3.05-.973a12.421,12.421,0,0,1-2.493-1.142c-.552-.407-.905-.431-.8-1.815a12.906,12.906,0,0,1,.7-3.253A24.766,24.766,0,0,1,3.89,4.671,3.82,3.82,0,0,1,5.652,2.929C6.8,2.266,7.593,1.888,8.261,1.578a10.971,10.971,0,0,1,2.75-.813m0-.765h0A11.375,11.375,0,0,0,7.942.881c-.707.329-1.52.721-2.672,1.38a4.506,4.506,0,0,0-2.028,2l-.015.024a22.075,22.075,0,0,0-1.3,3.5l-.039.131a13.065,13.065,0,0,0-.687,3.3c-.106,1.4.213,1.878.929,2.362.063.044.121.082.179.126a12.529,12.529,0,0,0,2.682,1.244c.876.329,2.319.76,3.1.992a4.748,4.748,0,0,0,1.336.247,2.729,2.729,0,0,0,.76-.116c.058-.015.121-.034.189-.048.445-.106,1.075-.334,1.636-.532.213-.077.416-.15.581-.208a19.568,19.568,0,0,0,3.582-1.593,2.156,2.156,0,0,0,.944-2.808c-.029-.1-.053-.189-.077-.276A56.1,56.1,0,0,0,14.816,5.32c-.058-.111-.169-.344-.315-.639A41.227,41.227,0,0,0,12.546.963c-.489-.678-.775-.886-1.322-.949h-.039A.688.688,0,0,0,11.011,0Z" transform="translate(-0.602)" fill="#de3e59"/>
    <path id="Path_4037" data-name="Path 4037" d="M7.615,2.691a13.7,13.7,0,0,1,2.406.252,23.189,23.189,0,0,1,3.427.741,3.747,3.747,0,0,1,1.941,1.5c.808,1.05,1.288,1.786,1.685,2.406a9.738,9.738,0,0,1,1.191,2.7c0,.281.039.387-.5.929s-3.321,2.478-3.8,2.832S10.1,16.623,9.314,16.962a3.37,3.37,0,0,1-1.21.416,1.316,1.316,0,0,1-1.031-.605,19.737,19.737,0,0,1-1.975-3.2c-.281-.562-.8-1.491-1.012-2.033a2.653,2.653,0,0,1-.208-1.9c.165-1.225.349-2.459.5-3.185A12.907,12.907,0,0,1,5.122,3.8c.315-.61.286-.968,1.641-1.065.3-.024.586-.034.847-.034m0-.741h0c-.29,0-.586.01-.9.034-1.37.1-1.786.489-2.149,1.263-.029.068-.063.136-.1.2A12.707,12.707,0,0,0,3.651,6.3c-.189.925-.4,2.425-.508,3.239a3.3,3.3,0,0,0,.179,2.082c.024.058.048.116.073.184.165.426.479,1.021.755,1.549.106.2.208.4.286.552a20.248,20.248,0,0,0,2.057,3.335,2.051,2.051,0,0,0,1.612.881,2.88,2.88,0,0,0,1.249-.358c.087-.044.174-.082.252-.116a55.912,55.912,0,0,0,4.8-3c.1-.073.3-.223.571-.411a40.455,40.455,0,0,0,3.316-2.5,1.761,1.761,0,0,0,.716-1.394V10.3A9.846,9.846,0,0,0,17.7,7.2c-.421-.658-.92-1.414-1.723-2.459a4.427,4.427,0,0,0-2.227-1.723l-.029-.01a21.058,21.058,0,0,0-3.587-.784L10,2.2a13.787,13.787,0,0,0-2.4-.237Z" transform="translate(-1.577 -1.011)" fill="#9c769e"/>
    <path id="Path_4038" data-name="Path 4038" d="M10.861,3.3a9.277,9.277,0,0,1,2.1.169c.654.179.983.073,1.389,1.4A13.081,13.081,0,0,1,14.9,8.151a24.764,24.764,0,0,1,.092,3.573,3.814,3.814,0,0,1-.973,2.256c-.808,1.031-1.394,1.67-1.893,2.2a12.566,12.566,0,0,1-2.28,1.772A.966.966,0,0,1,9.6,18c-.15,0-.334-.077-.75-.349-.649-.426-3.122-2.764-3.573-3.166S1.934,11.2,1.431,10.489C.971,9.835.3,9.264,1.092,8.214a18.751,18.751,0,0,1,2.58-2.658c.465-.4,1.23-1.118,1.7-1.447a2.478,2.478,0,0,1,1.752-.62c1.2-.1,2.411-.184,3.142-.194h.591m0-.741h-.6c-.92.01-2.4.131-3.195.2A3.118,3.118,0,0,0,5.1,3.392c-.048.034-.1.073-.155.111a15.831,15.831,0,0,0-1.3,1.089c-.169.15-.324.29-.455.4A19.591,19.591,0,0,0,.5,7.768a2.139,2.139,0,0,0,.155,2.919c.058.077.116.155.169.228.571.808,3.548,3.756,3.955,4.12.092.082.281.257.523.479A41.59,41.59,0,0,0,8.44,18.268a2.147,2.147,0,0,0,1.157.47,1.534,1.534,0,0,0,.426-.068h.024a11.872,11.872,0,0,0,2.619-1.985c.528-.562,1.128-1.22,1.936-2.251a4.441,4.441,0,0,0,1.118-2.585V11.82a21.411,21.411,0,0,0-.087-3.727l-.01-.136a13.55,13.55,0,0,0-.566-3.311C14.651,3.32,14.186,3,13.368,2.8c-.073-.015-.14-.034-.213-.053a9.2,9.2,0,0,0-2.3-.2Z" transform="translate(0.013 -1.316)" fill="#e86362"/>
  </g>
  <g id="Group_77303" data-name="Group 77303" transform="translate(21.94 3.834)">
    <path id="Path_4039" data-name="Path 4039" d="M50.751,15.729H47.338V8.182a.253.253,0,0,0-.252-.252H45.562a.253.253,0,0,0-.252.252v9.246a.253.253,0,0,0,.252.252h5.194a.253.253,0,0,0,.252-.252V15.985a.253.253,0,0,0-.252-.252Z" transform="translate(-45.31 -7.925)" fill="#2d252e"/>
    <rect id="Rectangle_4203" data-name="Rectangle 4203" width="2.033" height="9.754" rx="0.52" transform="translate(8.912)" fill="#2d252e"/>
    <path id="Path_4040" data-name="Path 4040" d="M83.243,7.92H81.558a.254.254,0,0,0-.242.179L79.09,15.152,76.848,8.1a.254.254,0,0,0-.242-.179h-1.67a.255.255,0,0,0-.208.106.241.241,0,0,0-.034.228L77.8,17.5a.256.256,0,0,0,.242.174h2.082a.259.259,0,0,0,.242-.174L83.48,8.254a.255.255,0,0,0-.034-.228.248.248,0,0,0-.208-.106Z" transform="translate(-60.462 -7.92)" fill="#2d252e"/>
    <path id="Path_4041" data-name="Path 4041" d="M102.3,11.953c-1.476-.445-1.723-.741-1.723-1.239,0-.528.455-.867,1.157-.867a1.723,1.723,0,0,1,1.641,1,.217.217,0,0,0,.15.116.236.236,0,0,0,.189-.024l1.234-.712a.251.251,0,0,0,.1-.324,3.589,3.589,0,0,0-3.311-1.975,2.9,2.9,0,0,0-3.127,2.837c0,1.05.349,2.12,2.856,2.846,1.447.416,1.961.678,1.961,1.292s-.5.92-1.423.92A2.012,2.012,0,0,1,100,14.62a.234.234,0,0,0-.145-.126.238.238,0,0,0-.2.024l-1.263.741a.25.25,0,0,0-.106.3,3.667,3.667,0,0,0,3.664,2.2c2.1,0,3.447-1.128,3.447-2.875,0-1.951-1.641-2.469-3.1-2.924Z" transform="translate(-72.631 -7.925)" fill="#2d252e"/>
    <path id="Path_4042" data-name="Path 4042" d="M123.755,7.92h-3.4a.253.253,0,0,0-.252.252v9.246a.253.253,0,0,0,.252.252h1.525a.253.253,0,0,0,.252-.252v-2.9h1.622a3.3,3.3,0,1,0,0-6.593Zm1.331,3.3a1.332,1.332,0,0,1-1.331,1.389h-1.622V9.832h1.622a1.318,1.318,0,0,1,1.331,1.389Z" transform="translate(-83.896 -7.92)" fill="#2d252e"/>
    <path id="Path_4043" data-name="Path 4043" d="M143.773,8.1a.25.25,0,0,0-.237-.169H141.45a.25.25,0,0,0-.237.169l-3.238,9.246a.25.25,0,0,0,.034.232.255.255,0,0,0,.208.106h1.656a.25.25,0,0,0,.242-.174l.508-1.559h3.742l.518,1.559a.256.256,0,0,0,.242.174h1.665a.255.255,0,0,0,.208-.106.265.265,0,0,0,.034-.232L143.783,8.1Zm-.053,5.945h-2.445L142.5,10.4l1.225,3.64Z" transform="translate(-93.109 -7.925)" fill="#2d252e"/>
    <path id="Path_4044" data-name="Path 4044" d="M166.908,9.847A2.657,2.657,0,0,1,169.188,11a.25.25,0,0,0,.329.077l1.268-.736a.246.246,0,0,0,.116-.16.258.258,0,0,0-.034-.189A4.706,4.706,0,0,0,166.9,7.93a4.8,4.8,0,0,0-4.913,4.913,4.8,4.8,0,0,0,4.913,4.913,4.673,4.673,0,0,0,3.965-2.072.254.254,0,0,0,.034-.189.258.258,0,0,0-.116-.16l-1.273-.736a.241.241,0,0,0-.329.077,2.656,2.656,0,0,1-2.28,1.142,2.808,2.808,0,0,1-2.953-2.982,2.819,2.819,0,0,1,2.953-3Z" transform="translate(-105.507 -7.925)" fill="#2d252e"/>
    <path id="Path_4045" data-name="Path 4045" d="M193.468,15.734h-3.8V13.715h3.389a.253.253,0,0,0,.252-.252V12.045a.253.253,0,0,0-.252-.252h-3.389V9.886H193.4a.253.253,0,0,0,.252-.252V8.192a.253.253,0,0,0-.252-.252h-5.509a.253.253,0,0,0-.252.252v9.246a.253.253,0,0,0,.252.252h5.581a.253.253,0,0,0,.252-.252V16a.253.253,0,0,0-.252-.252Z" transform="translate(-118.741 -7.93)" fill="#2d252e"/>
  </g>
</svg>
