<svg xmlns="http://www.w3.org/2000/svg" width="235" height="96" viewBox="0 0 235 96">
  <g id="Hubspot" transform="translate(-934 -3853)">
    <rect id="Rectangle_4318" data-name="Rectangle 4318" width="235" height="96" rx="9" transform="translate(934 3853)" fill="#fff"/>
    <g id="HubSpot_Logo" transform="translate(984 3882.002)">
      <path id="Path_4274" data-name="Path 4274" d="M14.61,4.974V15.76H4.7V4.974H0V30.721H4.7V20.285h9.906V30.721h4.7V4.974ZM34.364,22.4a3.891,3.891,0,0,1-7.782,0V11.37H22.121V22.4a8.344,8.344,0,1,0,16.687,0V11.37H34.364Zm33.052-9.892c0-2.262,1.5-2.978,3.133-2.978a6.689,6.689,0,0,1,4.206,2.225L77.676,8.31a9.2,9.2,0,0,0-6.838-3.336c-4.84,0-8.34,2.834-8.34,7.533,0,8.718,10.655,5.951,10.655,10.83A3.075,3.075,0,0,1,70.02,26.17c-2.638,0-3.493-1.289-4.7-2.653l-3.243,3.371a9.572,9.572,0,0,0,7.7,3.838c4.6,0,8.3-2.869,8.3-7.353,0-9.677-10.656-6.67-10.656-10.866m65.923,14.1c-2.636,0-3.385-1.14-3.385-2.886V15.99h4.1V12.073h-4.1V6.9l-4.523,2.03V24.682c0,4.028,2.779,6.058,6.59,6.058A9.31,9.31,0,0,0,133.8,30.6l1.1-4.062c-.5.034-1.069.069-1.569.069M51.344,11.5A6.853,6.853,0,0,0,46.1,13.6V5.128H41.634V20.836c0,5.88,4.251,9.909,9.028,9.909a9.789,9.789,0,0,0,9.961-9.621A9.454,9.454,0,0,0,51.344,11.5m-.028,14.746a5.07,5.07,0,1,1,5.07-5.07,5.07,5.07,0,0,1-5.07,5.07M99.857,20.89A9.776,9.776,0,0,0,89.9,11.269c-4.776,0-9.028,4.028-9.028,9.909V36.895h4.467V28.409a6.856,6.856,0,0,0,5.241,2.1,9.455,9.455,0,0,0,9.28-9.623m-4.229-.056a5.07,5.07,0,1,1-5.07-5.07,5.07,5.07,0,0,1,5.07,5.07" transform="translate(0 1.357)" fill="#33475b"/>
      <path id="Path_4275" data-name="Path 4275" d="M95.729,12.409V7.92A3.457,3.457,0,0,0,97.722,4.8V4.7a3.457,3.457,0,0,0-3.457-3.457h-.1A3.457,3.457,0,0,0,90.705,4.7v.1A3.456,3.456,0,0,0,92.7,7.92v4.489a9.788,9.788,0,0,0-4.654,2.049L75.734,4.87a3.854,3.854,0,0,0,.139-.97,3.894,3.894,0,1,0-3.9,3.887,3.852,3.852,0,0,0,1.918-.522L86.013,16.7a9.819,9.819,0,0,0,.15,11.059l-3.687,3.688a3.166,3.166,0,0,0-.921-.15,3.2,3.2,0,1,0,3.2,3.2,3.156,3.156,0,0,0-.15-.921l3.647-3.649a9.835,9.835,0,1,0,7.476-17.517M94.217,27.172a10.533,10.533,0,1,1,.005,0" transform="translate(18.563)" fill="#ff7a59"/>
    </g>
  </g>
</svg>
