<svg id="canva" xmlns="http://www.w3.org/2000/svg" xmlns:xlink="http://www.w3.org/1999/xlink" width="66.025" height="66.025" viewBox="0 0 66.025 66.025">
  <defs>
    <radialGradient id="radial-gradient" cx="0.738" cy="0.844" r="0.773" gradientTransform="translate(0 0) rotate(-49.416)" gradientUnits="objectBoundingBox">
      <stop offset="0" stop-color="#6420ff"/>
      <stop offset="1" stop-color="#6420ff" stop-opacity="0"/>
    </radialGradient>
    <radialGradient id="radial-gradient-2" cx="0.161" cy="0.722" r="0.872" gradientTransform="translate(0 0) rotate(54.703)" gradientUnits="objectBoundingBox">
      <stop offset="0" stop-color="#00c4cc"/>
      <stop offset="1" stop-color="#00c4cc" stop-opacity="0"/>
    </radialGradient>
    <radialGradient id="radial-gradient-3" cx="0.587" cy="0.739" r="0.764" gradientTransform="matrix(0.705, -0.71, 0.326, 0.324, 0, 0)" xlink:href="#radial-gradient"/>
    <radialGradient id="radial-gradient-4" cx="-0.039" cy="0.759" r="0.787" gradientTransform="matrix(0.398, 0.917, -1.537, 0.667, 0.001, 0)" gradientUnits="objectBoundingBox">
      <stop offset="0" stop-color="#00c4cc" stop-opacity="0.729"/>
      <stop offset="0" stop-color="#00c4cc"/>
      <stop offset="1" stop-color="#00c4cc" stop-opacity="0"/>
    </radialGradient>
  </defs>
  <g id="Group_207" data-name="Group 207">
    <circle id="Ellipse_9" data-name="Ellipse 9" cx="33.013" cy="33.013" r="33.013" fill="#7d2ae7"/>
    <circle id="Ellipse_10" data-name="Ellipse 10" cx="33.013" cy="33.013" r="33.013" fill="url(#radial-gradient)"/>
    <circle id="Ellipse_11" data-name="Ellipse 11" cx="33.013" cy="33.013" r="33.013" fill="url(#radial-gradient-2)"/>
    <circle id="Ellipse_12" data-name="Ellipse 12" cx="33.013" cy="33.013" r="33.013" fill="url(#radial-gradient-3)"/>
    <circle id="Ellipse_13" data-name="Ellipse 13" cx="33.013" cy="33.013" r="33.013" fill="url(#radial-gradient-4)"/>
  </g>
  <path id="Path_1949" data-name="Path 1949" d="M108.711,202.23a.223.223,0,0,0-.206.173c-.522,1.489-1.226,2.374-1.807,2.374-.333,0-.468-.371-.468-.954a28.27,28.27,0,0,1,1.313-5.959,1.655,1.655,0,0,0,.084-.453c0-.41-.224-.611-.779-.611-.6,0-1.242.234-1.868,1.331a1.654,1.654,0,0,0-1.784-1.389,3.869,3.869,0,0,0-2.916,1.781,2.643,2.643,0,0,1-2.57,1.285,8.232,8.232,0,0,0,.733-3.01c0-1.138-.562-1.825-1.471-1.825-1.382,0-2.178,1.318-2.178,2.7a2.944,2.944,0,0,0,1.555,2.708c-.9,2.025-2.2,3.858-2.7,3.858-.641,0-.83-3.137-.794-5.382.023-1.288.13-1.354.13-1.743,0-.224-.145-.377-.728-.377-1.359,0-1.779,1.15-1.842,2.471a6.509,6.509,0,0,1-.234,1.483c-.567,2.025-1.738,3.562-2.5,3.562-.354,0-.45-.354-.45-.817,0-1.458.817-3.28.817-4.835,0-1.142-.5-1.865-1.445-1.865-1.112,0-2.583,1.323-3.975,3.8.458-1.9.646-3.736-.71-3.736a1.836,1.836,0,0,0-.842.219.48.48,0,0,0-.275.463c.13,2.021-1.629,7.2-3.3,7.2-.3,0-.45-.328-.45-.858a28.4,28.4,0,0,1,1.308-5.957,1.678,1.678,0,0,0,.087-.478c0-.387-.239-.585-.781-.585-.6,0-1.242.226-1.865,1.323a1.658,1.658,0,0,0-1.786-1.389c-1.5,0-3.173,1.585-3.909,3.652-.985,2.758-2.97,5.423-5.641,5.423-2.425,0-3.7-2.018-3.7-5.206,0-4.6,3.379-8.364,5.886-8.364,1.2,0,1.771.763,1.771,1.934,0,1.417-.791,2.076-.791,2.616,0,.165.137.328.41.328,1.089,0,2.372-1.28,2.372-3.026s-1.417-3.023-3.924-3.023c-4.143,0-8.311,4.168-8.311,9.509,0,4.25,2.1,6.812,5.723,6.812,2.473,0,4.634-1.924,5.8-4.168.132,1.86.977,2.832,2.265,2.832a3.251,3.251,0,0,0,2.779-1.88c.272,1.254.995,1.868,1.934,1.868,1.076,0,1.977-.682,2.835-1.949-.013.995.214,1.931,1.076,1.931.407,0,.893-.094.98-.451.908-3.756,3.153-6.822,3.84-6.822.2,0,.259.2.259.428,0,1.02-.72,3.112-.72,4.448,0,1.443.613,2.4,1.881,2.4,1.4,0,2.832-1.72,3.784-4.234.3,2.349.942,4.244,1.949,4.244,1.237,0,3.433-2.6,4.764-5.359a2.872,2.872,0,0,0,2.059-.483,7.1,7.1,0,0,0-.509,2.588c0,2.557,1.221,3.275,2.272,3.275a3.257,3.257,0,0,0,2.779-1.88c.234,1.081.832,1.865,1.931,1.865a3.484,3.484,0,0,0,3.214-3.2c0-.382-.163-.613-.354-.613Zm-35.7,2.412c-.695,0-.967-.7-.967-1.743,0-1.812,1.239-4.837,2.55-4.837.573,0,.789.674.789,1.5,0,1.84-1.178,5.082-2.372,5.082ZM96.8,199.235a2.758,2.758,0,0,1-.565-1.764c0-.738.27-1.361.593-1.361s.422.318.422.761A8.812,8.812,0,0,1,96.8,199.235Zm5.387,5.407c-.695,0-.967-.8-.967-1.743,0-1.748,1.239-4.837,2.56-4.837.573,0,.776.669.776,1.5,0,1.84-1.158,5.082-2.369,5.082Z" transform="translate(-50.606 -166.222)" fill="#fff"/>
</svg>
