<svg xmlns="http://www.w3.org/2000/svg" width="61.456" height="56.376" viewBox="0 0 61.456 56.376">
  <g id="Google" transform="translate(-912.052 -2683.925)">
    <path id="Path_4236" data-name="Path 4236" d="M40.531,34.886H18.214c-5.417,0-8.424,3.732-8.424,7.672,0,3.655,2.566,7.672,8.424,7.672H40.531V34.86Z" transform="translate(925.304 2690.044)" fill="#7097cf"/>
    <path id="Path_4237" data-name="Path 4237" d="M26.362,50.225a7.672,7.672,0,1,0-7.672-7.672,7.671,7.671,0,0,0,7.672,7.672Z" transform="translate(939.473 2690.076)" fill="#386cb4"/>
    <path id="Path_4238" data-name="Path 4238" d="M31.641,26.986H9.324C3.907,26.986.9,30.718.9,34.658c0,3.655,2.566,7.672,8.424,7.672H31.641V26.96Z" transform="translate(911.152 2677.467)" fill="#7097cf"/>
    <path id="Path_4239" data-name="Path 4239" d="M17.472,42.315a7.672,7.672,0,1,0,0-15.345h0a7.672,7.672,0,1,0,0,15.345Z" transform="translate(925.32 2677.483)" fill="#386cb4"/>
    <path id="Path_4240" data-name="Path 4240" d="M40.531,19.076H18.214c-5.417,0-8.424,3.732-8.424,7.672,0,3.655,2.566,7.672,8.424,7.672H40.531V19.05Z" transform="translate(925.304 2664.875)" fill="#7097cf"/>
    <path id="Path_4241" data-name="Path 4241" d="M26.362,34.415a7.672,7.672,0,1,0-7.672-7.672,7.671,7.671,0,0,0,7.672,7.672Z" transform="translate(939.473 2664.906)" fill="#386cb4"/>
  </g>
</svg>
