<svg xmlns="http://www.w3.org/2000/svg" width="61.352" height="61.365" viewBox="0 0 61.352 61.365">
  <g id="google-tag-manager" transform="translate(-0.003 0.002)">
    <path id="Path_4163" data-name="Path 4163" d="M61.451,84.345,50.8,73.679,73.685,50.56,84.53,61.406,61.451,84.345Z" transform="translate(-25.432 -25.314)" fill="#8ab4f8"/>
    <path id="Path_4164" data-name="Path 4164" d="M36.1,15.351,25.248,4.5l-23,23a7.665,7.665,0,0,0,0,10.841h0l23,23L35.889,50.654,18.512,32.937Z" transform="translate(0 -2.254)" fill="#4285f4"/>
    <path id="Path_4165" data-name="Path 4165" d="M82.159,25.246l-23-23A7.671,7.671,0,0,0,48.309,13.092l23.015,23A7.669,7.669,0,1,0,82.169,25.245Z" transform="translate(-23.06 0)" fill="#8ab4f8"/>
    <path id="Path_4166" data-name="Path 4166" d="M61.23,100.035a7.6,7.6,0,1,0-7.6,7.6A7.6,7.6,0,0,0,61.23,100.035Z" transform="translate(-23.039 -46.277)" fill="#246fdb"/>
  </g>
</svg>
