<svg xmlns="http://www.w3.org/2000/svg" width="58.942" height="66" viewBox="0 0 58.942 66">
  <g id="Hotjor" transform="translate(-1163.4 -2420)">
    <path id="Path_4121" data-name="Path 4121" d="M63.894,96.094c7.677-4.21,18.079-10.03,18.079-26.994H69.219c0,9.411-4.582,12.011-11.64,15.85C49.9,89.16,39.5,94.98,39.5,111.944H52.13C52.254,102.533,56.836,100.057,63.894,96.094Z" transform="translate(1123.9 2350.9)" fill="#ff3c00"/>
    <path id="Path_4122" data-name="Path 4122" d="M82.619,87.8c0,9.411-4.582,12.011-11.64,15.85C63.3,107.86,52.9,113.68,52.9,130.644H65.53c0-9.411,4.582-12.011,11.64-15.85,7.677-4.21,18.079-10.03,18.079-26.994Z" transform="translate(1127.093 2355.355)" fill="#ff3c00"/>
  </g>
</svg>
