<svg xmlns="http://www.w3.org/2000/svg" width="191.849" height="66.025" viewBox="0 0 191.849 66.025">
  <g id="Google_Analytics" transform="translate(0 -0.002)">
    <g id="g6562" transform="translate(68.587 0.059)">
      <path id="path6536" d="M81.036,30.948a8.52,8.52,0,1,1-8.52-8.493A8.388,8.388,0,0,1,81.036,30.948Zm-3.73,0a4.8,4.8,0,1,0-9.581,0,4.8,4.8,0,1,0,9.581,0Z" transform="translate(-36.851 -13.062)" fill="#747474"/>
      <path id="path6538" d="M124.149,30.948a8.52,8.52,0,1,1-8.52-8.493A8.388,8.388,0,0,1,124.149,30.948Zm-3.73,0a4.8,4.8,0,1,0-9.581,0,4.8,4.8,0,1,0,9.581,0Z" transform="translate(-61.583 -13.062)" fill="#747474"/>
      <path id="path6540" d="M166.486,22.968V38.216c0,6.272-3.7,8.834-8.072,8.834a8.088,8.088,0,0,1-7.528-5l3.247-1.352a4.691,4.691,0,0,0,4.277,3.014c2.8,0,4.534-1.727,4.534-4.978V37.507h-.13a5.783,5.783,0,0,1-4.473,1.93,8.5,8.5,0,0,1,0-16.983,5.886,5.886,0,0,1,4.473,1.9h.13V22.972h3.542Zm-3.278,8.011c0-2.991-2-5.177-4.534-5.177a4.911,4.911,0,0,0-4.729,5.177,4.875,4.875,0,0,0,4.729,5.116C161.213,36.094,163.208,33.939,163.208,30.979Z" transform="translate(-86.306 -13.062)" fill="#747474"/>
      <path id="path6542" d="M197.2,2.695v24.89H193.56V2.695Z" transform="translate(-111.178 -1.726)" fill="#747474"/>
      <path id="path6544" d="M218.376,33.738l2.895,1.93a8.454,8.454,0,0,1-7.076,3.764,8.31,8.31,0,0,1-8.428-8.493c0-5.051,3.634-8.493,8.011-8.493,4.407,0,6.563,3.508,7.268,5.4l.387.965-11.354,4.7a4.323,4.323,0,0,0,4.116,2.573,4.847,4.847,0,0,0,4.182-2.351Zm-8.911-3.056,7.59-3.151a3.288,3.288,0,0,0-3.151-1.8A4.659,4.659,0,0,0,209.465,30.682Z" transform="translate(-118.18 -13.057)" fill="#747474"/>
      <path id="path6546" d="M13.7,16.1V12.5H25.841a11.939,11.939,0,0,1,.18,2.175A11.9,11.9,0,0,1,22.9,23.1a12.059,12.059,0,0,1-9.2,3.7A13.373,13.373,0,0,1,.323,13.61,13.373,13.373,0,0,1,13.7.422,12.566,12.566,0,0,1,22.74,4.056L20.2,6.6a9.185,9.185,0,0,0-6.5-2.573A9.46,9.46,0,0,0,4.241,13.61,9.46,9.46,0,0,0,13.7,23.195a8.823,8.823,0,0,0,6.659-2.638A7.469,7.469,0,0,0,22.311,16.1Z" transform="translate(-0.323 -0.422)" fill="#747474"/>
    </g>
    <g id="g6607" transform="translate(68.33 35.961)">
      <g id="use3812" transform="translate(0 0.241)">
        <path id="path1196" d="M11.142-50.139,7.4-39.8h7.629l-3.77-10.343ZM4.176-30.84H.92L9.544-53.758h3.347L21.516-30.84H18.259l-2.2-6.212H6.408Zm0,0" transform="translate(-0.92 53.758)" fill="#747474"/>
      </g>
      <g id="use3814" transform="translate(22.081 6.966)">
        <path id="path1199" d="M4.173-37.472H7.008V-35.3h.121a5.085,5.085,0,0,1,2.051-1.9,5.928,5.928,0,0,1,2.895-.784,5.766,5.766,0,0,1,4.433,1.659,6.5,6.5,0,0,1,1.568,4.674v9.861H15.12v-9.65q-.09-3.856-3.86-3.86A3.7,3.7,0,0,0,8.3-33.853a5.135,5.135,0,0,0-1.176,3.377v8.685H4.173Zm0,0" transform="translate(-4.173 37.984)" fill="#747474"/>
      </g>
      <g id="use3818" transform="translate(38.391 6.966)">
        <path id="path1202" d="M5.168-26.585a2.374,2.374,0,0,0,.965,1.93,3.583,3.583,0,0,0,2.292.754,4.686,4.686,0,0,0,3.287-1.357,4.332,4.332,0,0,0,1.478-3.257A6.136,6.136,0,0,0,9.329-29.6a4.947,4.947,0,0,0-2.985.875A2.553,2.553,0,0,0,5.168-26.585Zm3.8-11.4a7.238,7.238,0,0,1,5.127,1.749,6.2,6.2,0,0,1,1.9,4.795v9.65h-2.8v-2.171h-.121a5.656,5.656,0,0,1-4.885,2.684,6.321,6.321,0,0,1-4.342-1.538,4.925,4.925,0,0,1-1.719-3.83,4.611,4.611,0,0,1,1.84-3.86,7.721,7.721,0,0,1,4.915-1.447,8.911,8.911,0,0,1,4.312.935v-.663a3.3,3.3,0,0,0-1.236-2.593,4.105,4.105,0,0,0-2.835-1.086,4.457,4.457,0,0,0-3.89,2.081L2.635-34.908a7.211,7.211,0,0,1,6.333-3.076Zm0,0" transform="translate(-2.122 37.984)" fill="#747474"/>
      </g>
      <g id="use3820" transform="translate(55.474 0.241)">
        <path id="path1205" d="M7.129-53.758V-30.84H4.173V-53.758Zm0,0" transform="translate(-4.173 53.758)" fill="#747474"/>
      </g>
      <g id="use3822" transform="translate(60.12 7.479)">
        <path id="path1208" d="M15.964-36.782,6.133-14.2H3.118l3.649-7.9L.283-36.782h3.2L8.154-25.5h.06l4.554-11.278Zm0,0" transform="translate(-0.283 36.782)" fill="#747474"/>
      </g>
      <g id="use3826" transform="translate(76.66 2.684)">
        <path id="path1211" d="M9.006-27.312a4.474,4.474,0,0,1-3.166-1.176,4.332,4.332,0,0,1-1.3-3.287V-40.55H1.768v-2.684H4.543v-4.795H7.468v4.795h3.86v2.684H7.468v7.81a2.9,2.9,0,0,0,.6,2.141,2.082,2.082,0,0,0,1.387.543,3.492,3.492,0,0,0,.694-.06,5.673,5.673,0,0,0,.633-.211l.9,2.624A8.461,8.461,0,0,1,9.006-27.312Zm0,0" transform="translate(-1.768 48.029)" fill="#747474"/>
      </g>
      <g id="use3830" transform="translate(88.502 0)">
        <path id="path1214" d="M7.557-52.243a2.021,2.021,0,0,1-.633,1.478,1.971,1.971,0,0,1-1.447.6A1.978,1.978,0,0,1,4-50.766a2.05,2.05,0,0,1-.6-1.478A2,2,0,0,1,4-53.721a2.007,2.007,0,0,1,1.478-.6,2,2,0,0,1,1.447.6,1.973,1.973,0,0,1,.633,1.478Zm-.6,5.4v15.681H4V-46.845Zm0,0" transform="translate(-3.395 54.324)" fill="#747474"/>
      </g>
      <g id="use3834" transform="translate(93.936 6.966)">
        <path id="path1217" d="M10.174-21.278a7.669,7.669,0,0,1-5.79-2.382,8.389,8.389,0,0,1-2.262-5.971A8.265,8.265,0,0,1,4.384-35.6a7.7,7.7,0,0,1,5.79-2.382,7.344,7.344,0,0,1,4.192,1.206,7.5,7.5,0,0,1,2.684,3.317l-2.684,1.116A4.413,4.413,0,0,0,9.993-35.3a4.564,4.564,0,0,0-3.5,1.628,5.865,5.865,0,0,0-1.447,4.041A5.852,5.852,0,0,0,6.495-25.59a4.564,4.564,0,0,0,3.5,1.628,4.575,4.575,0,0,0,4.523-2.955L17.14-25.8a6.955,6.955,0,0,1-2.684,3.317,7.677,7.677,0,0,1-4.282,1.206Zm0,0" transform="translate(-2.122 37.984)" fill="#747474"/>
      </g>
      <g id="use3836" transform="translate(110.491 6.966)">
        <path id="path1220" d="M14.8-26.133a4.255,4.255,0,0,1-1.809,3.468,7.128,7.128,0,0,1-4.493,1.387,7.217,7.217,0,0,1-4.162-1.236,6.868,6.868,0,0,1-2.563-3.257l2.624-1.116a5.036,5.036,0,0,0,1.689,2.2,4.062,4.062,0,0,0,2.412.784,4.228,4.228,0,0,0,2.352-.6,1.719,1.719,0,0,0,.965-1.447c0-1-.777-1.734-2.322-2.2L6.8-28.817C3.744-29.6,2.221-31.079,2.221-33.25A4.074,4.074,0,0,1,3.97-36.688a7.319,7.319,0,0,1,4.463-1.3,7.3,7.3,0,0,1,3.77,1,5.4,5.4,0,0,1,2.352,2.654L11.931-33.25a3.243,3.243,0,0,0-1.478-1.538,4.449,4.449,0,0,0-2.232-.573,3.923,3.923,0,0,0-2.081.573,1.671,1.671,0,0,0-.9,1.417c0,.89.844,1.53,2.533,1.93l2.352.6Q14.792-29.684,14.8-26.133Zm0,0" transform="translate(-1.768 37.984)" fill="#747474"/>
      </g>
    </g>
    <g id="g6628" transform="translate(0 0.002)">
      <path id="path3806" d="M269.9,346.91v48.574c0,5.439,3.749,8.464,7.728,8.464,3.68,0,7.728-2.576,7.728-8.464V347.278a7.739,7.739,0,0,0-7.728-8.1,7.858,7.858,0,0,0-7.728,7.728Zm0,0" transform="translate(-229.418 -339.182)" fill="#f8ab00"/>
      <path id="path3808" d="M222.423,404.74v23.919c0,5.439,3.749,8.464,7.728,8.464,3.68,0,7.728-2.576,7.728-8.464V405.108a7.739,7.739,0,0,0-7.728-8.1A7.858,7.858,0,0,0,222.423,404.74Zm0,0" transform="translate(-202.184 -372.358)" fill="#e37300"/>
      <path id="path3810" d="M190.4,462.571a7.728,7.728,0,1,1-7.728-7.728,7.73,7.73,0,0,1,7.728,7.728" transform="translate(-174.949 -405.534)" fill="#e37300"/>
    </g>
  </g>
</svg>
