<svg xmlns="http://www.w3.org/2000/svg" width="183.078" height="66.153" viewBox="0 0 183.078 66.153">
  <g id="spyfu" transform="translate(-194.466 -2944.873)">
    <g id="Group_115" data-name="Group 115" transform="translate(269.45 2959.972)">
      <path id="Path_1806" data-name="Path 1806" d="M166.749,39.4c0-2.2-1.5-3.25-4.4-3.25-2.95,0-4.45,1.05-4.45,3.25v.7a2.55,2.55,0,0,0,1.85,2.45l7.9,2.8c3.1,1.1,5.35,3.15,5.35,6.5v3.5c0,3.8-2.65,7.4-10.8,7.4-8.049,0-10.8-3.6-10.8-7.4V52.5c0-.8.3-1.2,1.1-1.2h3.8c.8,0,1.1.35,1.1,1.2v2.05c0,2.2,1.7,3.25,4.8,3.25,3.05,0,4.8-1.05,4.8-3.25V53.1c0-1.85-1.8-2.6-3.85-3.35l-7-2.65a6.439,6.439,0,0,1-4.1-5.85V38.6c0-3.8,2.35-7.4,10.3-7.4,7.9,0,10.449,3.6,10.449,7.4v1.85c0,.75-.3,1.15-1.15,1.15h-3.8c-.75,0-1.05-.35-1.05-1.15V39.4Zm70.246-7.85c.75,0,1.15.25,1.15,1.1V35.5c0,.8-.35,1.15-1.15,1.15H225.446V44h10.8c.8,0,1.15.25,1.15,1.1V48c0,.8-.3,1.15-1.15,1.15h-10.8v12.1c0,.8-.25,1.2-1.1,1.2H220.4c-.8,0-1.1-.35-1.1-1.2V32.75c0-.8.25-1.2,1.1-1.2h16.6Zm12.549,25.9c-.05,0-.75.1-1,.1-1.9,0-2.45-.75-2.45-2.4v-14.2c0-.8-.35-1.15-1.15-1.15h-3.7c-.75,0-1.1.3-1.1,1.15v15.7c0,3.55,2.4,6.05,6.5,6.05a11.153,11.153,0,0,0,2.7-.3c.05,0,.1-.05.2-.05S249.844,57.4,249.544,57.448Zm8.8-17.649h-3.75c-.8,0-1.1.3-1.1,1.15V55.6l.25,5.65c.1.8.3,1.15,1.15,1.15h3.5c.75,0,1.1-.3,1.1-1.15v-20.3C259.444,40.1,259.094,39.8,258.344,39.8Zm-42.4,0H212.5c-.75,0-1,.4-1.2,1.15l-7.1,22-2.2,7.4c-.25.75.25,1.15,1.1,1.15h2.7c.8,0,1.1-.55,1.25-1.15l10-29.4C217.3,40.2,216.746,39.8,215.946,39.8Zm-30.3,17.6c-.75-.2-1.1.25-1.1,1.05V61.1c0,.8.5,1.05,1.1,1.2Z" transform="translate(-151.4 -31.2)" fill="#333"/>
      <path id="Path_1807" data-name="Path 1807" d="M273.746,65.749c.75-.2,1.1.25,1.1,1.05v2.6c0,.8-.5,1.05-1.1,1.2Zm-44.4-9.049c-.15-.45-2.45-7.55-2.45-7.55-.25-.7-.45-1.15-1.25-1.15H221.9c-.75,0-1.3.4-1.05,1.15L226.5,65.5s.45.55.6,0c.6-2.05,2.05-6.75,2.25-7.35A2.007,2.007,0,0,0,229.348,56.7Zm-16.249-9a11.127,11.127,0,0,0-7.25,2.6l-.1-1.1c-.05-.8-.25-1.15-1.1-1.15h-3.5c-.8,0-1.15.3-1.15,1.15V78.6c0,.8.3,1.15,1.15,1.15h3.75c.75,0,1.05-.3,1.05-1.15V54.95a9.319,9.319,0,0,1,5.25-2.1c2.1,0,2.45,1.2,2.45,2.35v8.2c0,1.2-.35,2.4-2.45,2.4a6.325,6.325,0,0,1-1.4-.15c-.3-.05-.3,4.8,0,4.85a12.435,12.435,0,0,0,3.25.45c4.5,0,6.55-2.6,6.55-6.6V54.3c.1-4.05-2-6.6-6.5-6.6Z" transform="translate(-175.701 -39.45)" fill="#333"/>
    </g>
    <path id="Path_1808" data-name="Path 1808" d="M42.109,4.1a33.6,33.6,0,0,0-7.3-1.15l.25,2.85a30.133,30.133,0,0,1,6.25,1A29.3,29.3,0,0,1,61.857,42.3,29.132,29.132,0,0,1,51.608,57.6l-5.5-6.55a.539.539,0,0,1-.1-.4l2.15-6.9-11.8,2.2a.476.476,0,0,1-.35-.1.432.432,0,0,1-.15-.3l.05-1.95a.3.3,0,0,1,.15-.3l9.7-7.15c-.45-1.65-2.85-10.7-5.65-14.3a.391.391,0,0,1-.05-.4.468.468,0,0,1,.35-.25l14.4-.7-19.9-9.649a.421.421,0,0,1-.2-.35l-.9-9.5L10.761,7.5l1.6,6.65a.335.335,0,0,1-.15.4l-7.5,5.5-.2,1L14.56,22a.429.429,0,0,1,.35.3l5.3,21.849v.15l.15.55-.45-.2h-.2L7.411,40l1,9.2a29.233,29.233,0,0,1-3.35-20.7c.1-.45.2-.85.3-1.3a37.214,37.214,0,0,1,1.95-5.1l-3-.3a28.634,28.634,0,0,0-1.5,4.1l-.1.1c-.2.65-.35,1.3-.5,1.95A32.124,32.124,0,1,0,42.109,4.1ZM26.16,42.148,43.709,36.9l-9.8,5.9-7.75-.65Z" transform="translate(193.044 2943.873)" fill="#333"/>
  </g>
</svg>
