<svg xmlns="http://www.w3.org/2000/svg" width="67.856" height="62" viewBox="0 0 67.856 62">
  <g id="Google_Ads" data-name="Google Ads" transform="translate(-0.297 -0.033)">
    <path id="Path_1811" data-name="Path 1811" d="M84,7.84a12.262,12.262,0,0,1,2.9-4.591A11.346,11.346,0,0,1,104.741,5.9c2.733,4.974,5.63,9.838,8.444,14.757,4.7,8.171,9.455,16.342,14.1,24.54a11.3,11.3,0,1,1-19.758,10.958q-6.19-10.781-12.407-21.534a2.478,2.478,0,0,0-.3-.437,4.446,4.446,0,0,1-.9-1.339c-1.831-3.225-3.717-6.422-5.548-9.619-1.175-2.077-2.4-4.126-3.58-6.2a11.316,11.316,0,0,1-1.5-6.012A8.379,8.379,0,0,1,84,7.84" transform="translate(-60.611 0)" fill="#3c8bd9"/>
    <path id="Path_1812" data-name="Path 1812" d="M31.759,28.6a15.719,15.719,0,0,0-.519,3.006,11.805,11.805,0,0,0,1.64,6.422q4.509,7.747,8.991,15.55c.273.465.492.929.765,1.366-1.64,2.842-3.279,5.657-4.946,8.5-2.3,3.963-4.591,7.952-6.914,11.915-.109,0-.137-.055-.164-.137a1.694,1.694,0,0,1,.109-.629A11,11,0,0,0,28.1,63.744a10.415,10.415,0,0,0-6.422-3.307A11.091,11.091,0,0,0,12.9,62.869c-.465.355-.765.874-1.312,1.148a.182.182,0,0,1-.191-.137c1.312-2.268,2.6-4.536,3.908-6.8q8.116-14.1,16.26-28.175c.055-.109.137-.191.191-.3" transform="translate(-8.371 -20.76)" fill="#fabc04"/>
    <path id="Path_1813" data-name="Path 1813" d="M4.244,147.891c.519-.465,1.011-.956,1.558-1.394a11.3,11.3,0,0,1,18.064,6.859,12.012,12.012,0,0,1-.437,5.821,2.858,2.858,0,0,1-.109.465c-.246.437-.465.9-.738,1.339a10.987,10.987,0,0,1-10.712,5.711A11.218,11.218,0,0,1,1.511,156.91a10.934,10.934,0,0,1,1.5-7.269c.273-.492.6-.929.9-1.421.137-.109.082-.328.328-.328" transform="translate(-1.105 -104.69)" fill="#34a852"/>
    <path id="Path_1814" data-name="Path 1814" d="M10.989,157.709c-.109.109-.109.3-.3.328-.027-.191.082-.3.191-.437l.109.109" transform="translate(-7.851 -114.507)" fill="#fabc04"/>
    <path id="Path_1815" data-name="Path 1815" d="M81.48,199.765c-.109-.191,0-.328.109-.465l.109.109-.219.355" transform="translate(-59.266 -144.812)" fill="#e1c025"/>
  </g>
</svg>
