<svg xmlns="http://www.w3.org/2000/svg" width="53.838" height="37.897" viewBox="0 0 53.838 37.897">
  <g id="Google_Trends" data-name="Google Trends" transform="translate(-271.906 -279.721)">
    <g id="Group_77517" data-name="Group 77517" transform="translate(271.906 286.538)">
      <path id="Path_4248" data-name="Path 4248" d="M307.021,330.057l-6.757,6.757-3.785-3.754c-3.144-3.113-3.895-3.754-4.364-3.754-.485,0-2.018,1.439-10.277,9.682-5.334,5.318-9.776,9.87-9.87,10.089a1.351,1.351,0,0,0,.031.892A20.668,20.668,0,0,0,275.878,354h0a2.86,2.86,0,0,0,.766.375c.547,0,1.987-1.314,8.368-7.711l7.117-7.133,3.738,3.707c3.1,3.066,3.832,3.707,4.317,3.707s1.924-1.361,9.667-9.072c5.005-4.99,9.276-9.244,9.322-9.291l-5.381-5.287Z" transform="translate(-271.906 -323.3)" fill="#fabb05"/>
    </g>
    <path id="Path_4249" data-name="Path 4249" d="M275.913,386.4a20.667,20.667,0,0,1-3.879-4.036,1.463,1.463,0,0,1-.031-.892c.094-.219,4.52-4.755,9.87-10.089,8.243-8.228,9.792-9.682,10.277-9.682.469,0,1.251.673,4.411,3.77,2.112,2.065,5.005,4.958,6.444,6.429l2.612,2.659-2.424,2.393c-1.94,1.924-2.534,2.393-2.988,2.393s-1.236-.657-4.3-3.707l-3.738-3.707-7.117,7.133c-6.366,6.382-7.805,7.711-8.368,7.711a2.863,2.863,0,0,1-.766-.375Z" transform="translate(-0.034 -69.156)" fill="#4285f4"/>
    <path id="path1102" d="M367.7,366.277c1.345-1.361,4.646-4.677,5.224-4.677.469,0,1.251.673,4.411,3.77,2.112,2.065,5.005,4.958,6.444,6.429l2.612,2.659-2.424,2.393c-1.94,1.924-2.534,2.393-2.988,2.393s-1.236-.657-4.3-3.707l-3.738-3.707Z" transform="translate(-80.81 -69.071)" fill="#ea4335"/>
    <path id="path1096" d="M521.677,292.857c-2-1.924-5.256-5.162-7.211-7.211-3.05-3.175-3.566-3.8-3.566-4.333a1.576,1.576,0,0,1,1.439-1.517c.36-.063,3.676-.094,7.352-.063l6.695.063s.594.031.766.2c.2.219.2.923.2.923v7.164c0,5.318-.078,7.242-.25,7.477a2.29,2.29,0,0,1-1.439.782,31.8,31.8,0,0,1-3.989-3.488Z" transform="translate(-201.611)" fill="#34a853"/>
  </g>
</svg>
