<svg xmlns="http://www.w3.org/2000/svg" width="53.444" height="61.883" viewBox="0 0 53.444 61.883">
  <g id="Google_Analytics" transform="translate(0 -0.002)">
    <g id="g6628" transform="translate(0 0.002)">
      <path id="path3806" d="M269.9,346.566v46.412c0,5.2,3.582,8.087,7.384,8.087,3.516,0,7.384-2.461,7.384-8.087v-46.06a7.394,7.394,0,0,0-7.384-7.735,7.508,7.508,0,0,0-7.384,7.384Zm0,0" transform="translate(-231.22 -339.182)" fill="#f8ab00"/>
      <path id="path3808" d="M222.423,404.4v22.854c0,5.2,3.582,8.087,7.384,8.087,3.516,0,7.384-2.461,7.384-8.087v-22.5a7.4,7.4,0,0,0-7.384-7.735A7.508,7.508,0,0,0,222.423,404.4Zm0,0" transform="translate(-203.085 -373.455)" fill="#e37300"/>
      <path id="path3810" d="M189.717,462.227a7.384,7.384,0,1,1-7.384-7.384,7.386,7.386,0,0,1,7.384,7.384" transform="translate(-174.949 -407.729)" fill="#e37300"/>
    </g>
  </g>
</svg>
