<svg xmlns="http://www.w3.org/2000/svg" width="55.765" height="62" viewBox="0 0 55.765 62">
  <path id="Hubspot" d="M387.553,29.453a15.754,15.754,0,0,0-5.72-5.683,15.358,15.358,0,0,0-5.785-2V14.259a5.542,5.542,0,0,0,3.417-5.189,5.7,5.7,0,1,0-11.4,0,5.476,5.476,0,0,0,3.342,5.189V21.77a16.518,16.518,0,0,0-5.034,1.578c-3.263-2.478-13.963-10.608-20.222-15.357a6.209,6.209,0,0,0,.263-1.669,6.318,6.318,0,1,0-6.315,6.32,6.259,6.259,0,0,0,3.243-.921l1.321,1L362.815,25.8a15.218,15.218,0,0,0-2.568,3.008,14.035,14.035,0,0,0-2.334,7.565v.574a15.855,15.855,0,0,0,.992,5.467,14.354,14.354,0,0,0,2.352,4.085l-6.024,6.039a4.876,4.876,0,1,0,3.209,4.579,4.892,4.892,0,0,0-.225-1.466l6.226-6.227a16,16,0,0,0,2.767,1.514,16.178,16.178,0,0,0,6.474,1.36h.433a15.5,15.5,0,0,0,13.179-7.32,14.3,14.3,0,0,0,2.248-7.705v-.141a15.106,15.106,0,0,0-1.992-7.68Zm-7.608,13.063a7.919,7.919,0,0,1-5.829,3.035h-.362a7.879,7.879,0,0,1-3.682-.977,8.511,8.511,0,0,1-3.225-2.938,6.853,6.853,0,0,1-1.343-4V37.2a8.194,8.194,0,0,1,.946-3.983,8.626,8.626,0,0,1,3-3.285,7.35,7.35,0,0,1,4.16-1.255h.141a8.431,8.431,0,0,1,3.912.9,8.287,8.287,0,0,1,3.072,2.8,8.888,8.888,0,0,1,1.378,3.927c.023.295.035.6.035.885a7.77,7.77,0,0,1-2.207,5.326Z" transform="translate(-333.78 -0.002)" fill="#f8761f"/>
</svg>
