<svg xmlns="http://www.w3.org/2000/svg" width="66" height="66" viewBox="0 0 66 66">
  <g id="Mailchimp" transform="translate(-5923 -1414.289)">
    <rect id="Rectangle_4289" data-name="Rectangle 4289" width="66" height="66" rx="10" transform="translate(5923 1414.289)" fill="#fd2"/>
    <g id="mailchimp-icon" transform="translate(5933.221 1422.847)">
      <g id="Group_77477" data-name="Group 77477">
        <g id="Group_77476" data-name="Group 77476">
          <g id="Group_77475" data-name="Group 77475">
            <path id="Path_4156" data-name="Path 4156" d="M170.443,100.959a3.976,3.976,0,0,1,1.008,0,3.45,3.45,0,0,0,.05-1.911c-.243-1.16-.571-1.862-1.247-1.752s-.7.949-.459,2.108A3.905,3.905,0,0,0,170.443,100.959Z" transform="translate(-135.912 -77.935)"/>
            <path id="Path_4157" data-name="Path 4157" d="M126.913,114.525c.485.213.784.354.9.231.076-.078.052-.223-.064-.412a2.843,2.843,0,0,0-1.253-1.008,3.418,3.418,0,0,0-3.323.4c-.324.237-.632.567-.589.766.014.066.064.113.177.129a20.448,20.448,0,0,1,2.277-.507A3.954,3.954,0,0,1,126.913,114.525Z" transform="translate(-98.199 -90.585)"/>
            <path id="Path_4158" data-name="Path 4158" d="M133.382,123.1a2.29,2.29,0,0,0-1.2.5.779.779,0,0,0-.308.481.149.149,0,0,0,.151.155,1.92,1.92,0,0,0,.461-.127,4.021,4.021,0,0,1,2.033-.211c.318.036.467.056.537-.054a.178.178,0,0,0-.018-.2A1.822,1.822,0,0,0,133.382,123.1Z" transform="translate(-105.642 -98.606)"/>
            <path id="Path_4159" data-name="Path 4159" d="M161.539,128.413a.662.662,0,1,0-.5-.947C160.887,127.778,161.112,128.2,161.539,128.413Z" transform="translate(-128.973 -101.873)"/>
            <path id="Path_4160" data-name="Path 4160" d="M175,121.33c-.348-.006-.636.376-.644.853s.268.869.617.875.636-.376.644-.853S175.352,121.336,175,121.33Z" transform="translate(-139.681 -97.199)"/>
            <path id="Path_4161" data-name="Path 4161" d="M37.574,142.391c-.088-.109-.229-.076-.366-.044a1.326,1.326,0,0,1-.324.046.7.7,0,0,1-.595-.3,1.1,1.1,0,0,1,.026-1.022c.024-.056.052-.117.082-.187a3.025,3.025,0,0,0,.223-2.675,2.37,2.37,0,0,0-1.814-1.319,2.33,2.33,0,0,0-2,.72,2.873,2.873,0,0,0-.742,2.415c.054.149.139.191.2.2.131.018.324-.078.446-.4.008-.024.02-.06.034-.105a3.166,3.166,0,0,1,.32-.752,1.368,1.368,0,0,1,.873-.6,1.4,1.4,0,0,1,1.066.2,1.366,1.366,0,0,1,.517,1.645,3.853,3.853,0,0,0-.27,1.464,1.453,1.453,0,0,0,1.3,1.5,1.11,1.11,0,0,0,1.046-.521A.226.226,0,0,0,37.574,142.391Z" transform="translate(-25.644 -109.648)"/>
            <path id="Path_4162" data-name="Path 4162" d="M44.109,30.846c-.022-.076-.159-.581-.35-1.189a10.082,10.082,0,0,0-.386-1.038,3.762,3.762,0,0,0,.674-2.739,3.452,3.452,0,0,0-1.008-1.957,8.193,8.193,0,0,0-3.558-1.762c-.2-.056-.849-.235-.907-.253,0-.038-.048-2.136-.088-3.039a10.428,10.428,0,0,0-.4-2.671,7.155,7.155,0,0,0-1.85-3.3C38.494,10.557,39.9,7.98,39.9,5.768,39.894,1.516,34.672.229,28.236,2.894l-1.364.579c-.006-.006-2.464-2.418-2.5-2.45-7.335-6.4-30.277,19.1-22.942,25.295l1.6,1.358a7.883,7.883,0,0,0-.446,3.638,7.158,7.158,0,0,0,2.476,4.6,7.52,7.52,0,0,0,4.857,1.955c2.854,6.577,9.376,10.613,17.023,10.839,8.2.245,15.088-3.606,17.974-10.519a14.486,14.486,0,0,0,.99-4.6C45.9,31.649,44.809,30.846,44.109,30.846Zm-33.56,5.177a4.023,4.023,0,0,1-.76.054,5.917,5.917,0,0,1-5.42-4.942c-.294-2.924,1.2-5.173,3.845-5.708a4.48,4.48,0,0,1,1.11-.08c1.482.082,3.666,1.219,4.165,4.447C13.931,32.654,13.229,35.566,10.548,36.023ZM7.782,23.678A6.308,6.308,0,0,0,3.8,26.22,10.677,10.677,0,0,1,2.1,24.587C.687,21.9,3.649,16.665,5.719,13.712,10.835,6.413,18.846.885,22.555,1.888c.6.171,2.6,2.486,2.6,2.486A52.21,52.21,0,0,0,18.009,9.3,32.465,32.465,0,0,0,7.782,23.678Zm26,11.251a.146.146,0,0,0,.086-.145.136.136,0,0,0-.149-.121,17.347,17.347,0,0,1-7.548-.768c.4-1.3,1.462-.829,3.067-.7a22.438,22.438,0,0,0,7.4-.8,16.988,16.988,0,0,0,5.535-2.753,11.2,11.2,0,0,1,.774,2.635,1.279,1.279,0,0,1,.811.149c.35.215.6.662.43,1.816a10.057,10.057,0,0,1-2.814,5.521A11.612,11.612,0,0,1,38,42.292a14.306,14.306,0,0,1-2.208.933c-5.812,1.9-11.76-.189-13.678-4.67A7.113,7.113,0,0,1,21.73,37.5a9.3,9.3,0,0,1,2.045-8.727v0a.788.788,0,0,0,.27-.519.909.909,0,0,0-.209-.493c-.758-1.1-3.387-2.975-2.86-6.605a4.944,4.944,0,0,1,4.785-4.334c.179.01.36.02.539.032.921.054,1.724.173,2.484.2A4.96,4.96,0,0,0,32.547,15.8a2.9,2.9,0,0,1,1.44-.813,1.717,1.717,0,0,1,.551-.054,1.812,1.812,0,0,1,.927.3c1.084.722,1.237,2.468,1.293,3.745.032.73.119,2.494.151,3,.07,1.158.374,1.323.988,1.525.346.113.668.2,1.142.332a6.466,6.466,0,0,1,2.822,1.337,1.771,1.771,0,0,1,.515,1.008c.169,1.233-.959,2.759-3.942,4.143A20.042,20.042,0,0,1,28.48,31.91l-.959-.107c-2.188-.294-3.435,2.532-2.122,4.469.845,1.249,3.15,2.06,5.456,2.06,5.286,0,9.35-2.257,10.861-4.206a1.94,1.94,0,0,0,.121-.173c.074-.111.014-.173-.08-.111-1.235.845-6.72,4.2-12.586,3.19a7.892,7.892,0,0,1-1.364-.37,2.444,2.444,0,0,1-1.73-1.81C30.805,36.313,33.787,34.929,33.787,34.929Zm-7.5-.885h0s0,0,0,0S26.288,34.044,26.286,34.044ZM17.229,13.682a21.6,21.6,0,0,1,6.062-4.954.079.079,0,0,1,.105.107,5.844,5.844,0,0,0-.563,1.374.081.081,0,0,0,.125.086,11.805,11.805,0,0,1,5.322-1.879.083.083,0,0,1,.056.149A4.522,4.522,0,0,0,27.5,9.4a.081.081,0,0,0,.064.129A10.439,10.439,0,0,1,32.012,10.7c.084.046.024.207-.07.187a18.107,18.107,0,0,0-8.061.022A18.514,18.514,0,0,0,17.336,13.8.081.081,0,0,1,17.229,13.682Z" transform="translate(0.001 0)"/>
          </g>
        </g>
      </g>
    </g>
  </g>
</svg>
