<svg id="Photoshop" xmlns="http://www.w3.org/2000/svg" width="67.719" height="66.025" viewBox="0 0 67.719 66.025">
  <g id="Surfaces" transform="translate(0 0)">
    <g id="Photo_Surface">
      <g id="Outline_no_shadow">
        <path id="Path_2502" data-name="Path 2502" d="M11.992,0H55.727A11.982,11.982,0,0,1,67.719,11.992V54.034A11.982,11.982,0,0,1,55.727,66.025H11.992A11.982,11.982,0,0,1,0,54.034V11.992A11.982,11.982,0,0,1,11.992,0Z" fill="#001e36"/>
      </g>
    </g>
  </g>
  <g id="Outlined_Mnemonics_Logos" transform="translate(15.237 16.789)">
    <g id="Ps">
      <path id="Path_2503" data-name="Path 2503" d="M54,89.014V59.98c0-.2.085-.31.282-.31.48,0,.931,0,1.58-.028.677-.028,1.383-.028,2.144-.056s1.58-.028,2.455-.056,1.721-.028,2.568-.028a16.591,16.591,0,0,1,5.813.875,10.076,10.076,0,0,1,3.781,2.314,8.984,8.984,0,0,1,2.06,3.217,10.8,10.8,0,0,1,.649,3.668,10.088,10.088,0,0,1-1.693,6.01A9.667,9.667,0,0,1,69.1,79.025a18.287,18.287,0,0,1-6.349.959c-.677,0-1.129,0-1.411-.028s-.677-.028-1.213-.028v9.057a.351.351,0,0,1-.31.4H54.339C54.113,89.381,54,89.268,54,89.014Zm6.151-23.9V74.6c.4.028.762.056,1.1.056h1.5a10.54,10.54,0,0,0,3.245-.508,4.853,4.853,0,0,0,2.314-1.5,4.36,4.36,0,0,0,.875-2.906,4.644,4.644,0,0,0-.649-2.511,4.092,4.092,0,0,0-1.975-1.608,8.279,8.279,0,0,0-3.329-.564c-.734,0-1.383,0-1.919.028a6.462,6.462,0,0,0-1.157.028Z" transform="translate(-54 -59.5)" fill="#31a8ff"/>
      <path id="Path_2504" data-name="Path 2504" d="M154.879,90.677a9.986,9.986,0,0,0-2.709-.959,14.875,14.875,0,0,0-3.16-.367,5.682,5.682,0,0,0-1.693.2,1.449,1.449,0,0,0-.875.564,1.5,1.5,0,0,0-.226.762,1.255,1.255,0,0,0,.282.734,3.184,3.184,0,0,0,.959.762c.649.339,1.326.649,2,.931a20.438,20.438,0,0,1,4.345,2.06,6.565,6.565,0,0,1,2.229,2.342,6.091,6.091,0,0,1,.649,2.906,6.565,6.565,0,0,1-1.1,3.753,7.071,7.071,0,0,1-3.16,2.511,12.929,12.929,0,0,1-5.107.9,19.437,19.437,0,0,1-3.837-.367,11.38,11.38,0,0,1-2.878-.9.555.555,0,0,1-.31-.536v-4.91a.306.306,0,0,1,.113-.254.215.215,0,0,1,.254.028,12.079,12.079,0,0,0,3.5,1.383,13.136,13.136,0,0,0,3.329.423,5.385,5.385,0,0,0,2.342-.4,1.311,1.311,0,0,0,.762-1.185,1.5,1.5,0,0,0-.677-1.129,11.964,11.964,0,0,0-2.765-1.326,17.264,17.264,0,0,1-4.007-2.032,7.305,7.305,0,0,1-2.144-2.4,6.054,6.054,0,0,1-.649-2.878,6.636,6.636,0,0,1,.959-3.414,6.955,6.955,0,0,1,2.963-2.6,10.942,10.942,0,0,1,4.994-.988,24.325,24.325,0,0,1,3.5.254,9.927,9.927,0,0,1,2.427.649.5.5,0,0,1,.282.254,1.416,1.416,0,0,1,.056.339v4.6a.347.347,0,0,1-.141.282A.752.752,0,0,1,154.879,90.677Z" transform="translate(-115.94 -77.302)" fill="#31a8ff"/>
    </g>
  </g>
</svg>
