<svg xmlns="http://www.w3.org/2000/svg" width="65.463" height="39.308" viewBox="0 0 65.463 39.308">
  <g id="Semrush" transform="translate(-497 -2337)">
    <path id="Path_4130" data-name="Path 4130" d="M56.543,19.352c0,1.209-.6,1.361-2.117,1.361-1.663,0-1.965-.3-2.117-1.512-.3-3.175-2.419-5.9-6.047-6.047C45.2,13,44.9,12.7,44.9,11.188c0-1.361.151-1.965,1.209-1.965A10.6,10.6,0,0,1,56.543,19.352Zm8.92,0C65.463,9.978,59.113,0,44.3,0H15.118c-.6,0-1.058.3-1.058.907a.831.831,0,0,0,.454.756A23.4,23.4,0,0,0,19.2,4.536,45.128,45.128,0,0,0,24.341,6.8q.907.454.907.907c0,.454-.3.907-1.058.907H1.058C.3,8.466,0,8.92,0,9.373a1.372,1.372,0,0,0,.454,1.058,45.57,45.57,0,0,0,9.222,7.106,125.8,125.8,0,0,0,12.4,6.8c.6.3.907.6.907,1.058s-.3.756-1.058.756H11.188c-.6,0-.907.3-.907.756a1.307,1.307,0,0,0,.454.907c2.419,2.268,6.35,4.536,11.49,6.8a55.677,55.677,0,0,0,21.771,4.687C58.962,39.308,65.463,28.12,65.463,19.352ZM45.96,32.807A13.485,13.485,0,0,1,32.5,19.352,13.455,13.455,0,1,1,45.96,32.807Z" transform="translate(497 2337)" fill="#ff642d"/>
  </g>
</svg>
