<svg id="YouTube" xmlns="http://www.w3.org/2000/svg" width="69.61" height="48.729" viewBox="0 0 69.61 48.729">
  <g id="Group_77482" data-name="Group 77482" transform="translate(0 0)">
    <path id="Path_4168" data-name="Path 4168" d="M68.154,7.61A8.717,8.717,0,0,0,62,1.455C56.574,0,34.8,0,34.8,0S13.036,0,7.61,1.455A8.717,8.717,0,0,0,1.455,7.61C0,13.036,0,24.365,0,24.365S0,35.693,1.455,41.119A8.717,8.717,0,0,0,7.61,47.273c5.426,1.456,27.2,1.456,27.2,1.456s21.769,0,27.2-1.456a8.717,8.717,0,0,0,6.154-6.154c1.456-5.426,1.456-16.755,1.456-16.755S69.6,13.036,68.154,7.61Z" transform="translate(0 0)" fill="red"/>
    <path id="Path_4169" data-name="Path 4169" d="M11.425,26.6,29.51,16.156,11.425,5.715Z" transform="translate(16.412 8.21)" fill="#fff"/>
  </g>
</svg>
