<svg xmlns="http://www.w3.org/2000/svg" width="69.413" height="69.371" viewBox="0 0 69.413 69.371">
  <g id="Discover_tech_passion" data-name="Discover tech passion" transform="translate(-309 -791)">
    <g id="DIV" transform="translate(309.418 791.418)">
      <rect id="Rectangle_4366" data-name="Rectangle 4366" width="69.413" height="69.371" rx="34.686" transform="translate(-0.418 -0.418)" fill="#07be00"/>
    </g>
    <g id="Paper_lines_magnifying_glass" data-name="Paper lines magnifying glass" transform="translate(343.192 825.186)">
      <g id="Group_687" data-name="Group 687" transform="translate(-23.192 -20.186)">
        <path id="Path_382" data-name="Path 382" d="M25.951,39.042h17.3a.8.8,0,1,0,0-1.6h-17.3a.8.8,0,0,0,0,1.6Z" transform="translate(-18.913 -28.155)" fill="#fff"/>
        <path id="Path_383" data-name="Path 383" d="M46.15,37.972,35.244,27.067A9.439,9.439,0,0,0,31.521,12.2V3.126A3.078,3.078,0,0,0,28.5,0H3.02A3.078,3.078,0,0,0,0,3.126V37.245a3.078,3.078,0,0,0,3.02,3.126H28.5a3.078,3.078,0,0,0,3.02-3.126v-7.49a9.462,9.462,0,0,0,2.6-1.555l10.9,10.9a.8.8,0,1,0,1.13-1.13Zm-10.272-17a7.853,7.853,0,1,1-7.853-7.853,7.853,7.853,0,0,1,7.853,7.853ZM29.923,37.245A1.48,1.48,0,0,1,28.5,38.773H3.02A1.479,1.479,0,0,1,1.6,37.245V3.126A1.48,1.48,0,0,1,3.02,1.6H28.5a1.48,1.48,0,0,1,1.422,1.528v8.591a9.449,9.449,0,0,0-9.614,3.811H7.038a.8.8,0,1,0,0,1.6H19.4a9.394,9.394,0,0,0-.823,3.851c0,.266.014.53.035.791H7.038a.8.8,0,1,0,0,1.6H18.88a9.464,9.464,0,0,0,2.836,4.641H7.038a.8.8,0,1,0,0,1.6H24.175a9.441,9.441,0,0,0,5.749.631Z" fill="#fff"/>
      </g>
    </g>
  </g>
</svg>
