<svg xmlns="http://www.w3.org/2000/svg" width="53.181" height="66.319" viewBox="0 0 53.181 66.319">
  <g id="Google_Ads" data-name="Google Ads" transform="translate(0 -0.033)">
    <path id="Path_1811" data-name="Path 1811" d="M83.839,6.09a9.515,9.515,0,0,1,2.248-3.562A8.8,8.8,0,0,1,99.933,4.585c2.12,3.859,4.368,7.633,6.552,11.45,3.647,6.34,7.337,12.68,10.941,19.041a8.765,8.765,0,1,1-15.33,8.5q-4.8-8.365-9.627-16.709a1.923,1.923,0,0,0-.233-.339,3.449,3.449,0,0,1-.7-1.039c-1.421-2.5-2.884-4.983-4.3-7.464-.912-1.611-1.866-3.2-2.778-4.813A8.781,8.781,0,0,1,83.288,8.55a6.5,6.5,0,0,1,.551-2.46" transform="translate(-65.625 0)" fill="#3c8bd9"/>
    <path id="Path_1812" data-name="Path 1812" d="M27.2,28.6a12.2,12.2,0,0,0-.4,2.332,9.16,9.16,0,0,0,1.272,4.983q3.5,6.011,6.976,12.065c.212.36.382.721.594,1.06-1.272,2.205-2.544,4.389-3.838,6.594-1.781,3.075-3.562,6.17-5.365,9.245-.085,0-.106-.042-.127-.106a1.315,1.315,0,0,1,.085-.488,8.534,8.534,0,0,0-2.036-8.418A8.081,8.081,0,0,0,19.373,53.3a8.606,8.606,0,0,0-6.806,1.887c-.36.276-.594.679-1.018.891a.141.141,0,0,1-.148-.106c1.018-1.76,2.014-3.52,3.032-5.28q6.3-10.941,12.616-21.861c.042-.085.106-.148.148-.233" transform="translate(-8.983 -22.51)" fill="#fabc04"/>
    <path id="Path_1813" data-name="Path 1813" d="M3.607,147.04c.4-.36.785-.742,1.209-1.081a8.764,8.764,0,0,1,14.016,5.322,9.32,9.32,0,0,1-.339,4.516,2.218,2.218,0,0,1-.085.36c-.191.339-.36.7-.573,1.039a8.525,8.525,0,0,1-8.312,4.432,8.7,8.7,0,0,1-8.036-7.591,8.484,8.484,0,0,1,1.166-5.64c.212-.382.466-.721.7-1.1.106-.085.064-.254.254-.254" transform="translate(-1.105 -113.512)" fill="#34a852"/>
    <path id="Path_1814" data-name="Path 1814" d="M10.921,157.685c-.085.085-.085.233-.233.254-.021-.148.064-.233.148-.339l.085.085" transform="translate(-8.419 -124.157)" fill="#fabc04"/>
    <path id="Path_1815" data-name="Path 1815" d="M81.469,199.66c-.085-.148,0-.254.085-.36l.085.085-.17.276" transform="translate(-64.167 -157.015)" fill="#e1c025"/>
    <path id="Path_1816" data-name="Path 1816" d="M4.389,260.4a4.295,4.295,0,1,0,0,8.588A3.957,3.957,0,0,0,7.4,267.779a4.217,4.217,0,0,0,.954-3.477H4.389v1.166h2.82a2.469,2.469,0,0,1-.636,1.484,2.921,2.921,0,0,1-2.184.869,3.117,3.117,0,0,1,0-6.234,2.913,2.913,0,0,1,2.12.848l.827-.827A4.07,4.07,0,0,0,4.389,260.4Zm7.188,3.075a2.8,2.8,0,1,0,2.756,2.8,2.734,2.734,0,0,0-2.756-2.8m0,4.5a1.7,1.7,0,1,1,1.548-1.7,1.608,1.608,0,0,1-1.548,1.7m5.979-4.5a2.8,2.8,0,1,0,2.757,2.8,2.722,2.722,0,0,0-2.757-2.8m0,4.5a1.7,1.7,0,1,1,1.548-1.7,1.608,1.608,0,0,1-1.548,1.7m5.958-4.5a2.771,2.771,0,0,0,0,5.534,1.853,1.853,0,0,0,1.442-.636H25v.4c0,1.06-.551,1.633-1.463,1.633a1.513,1.513,0,0,1-1.378-.975l-1.06.445a2.6,2.6,0,0,0,2.438,1.633c1.421,0,2.608-.848,2.608-2.884v-4.962H25v.445h-.042a1.853,1.853,0,0,0-1.442-.636m.106,4.453a1.585,1.585,0,0,1-1.527-1.675,1.6,1.6,0,0,1,1.527-1.7,1.557,1.557,0,0,1,1.463,1.7,1.537,1.537,0,0,1-1.463,1.675m3.414-7.188h1.209v8.185H27.035Zm4.453,2.735a2.662,2.662,0,0,0-2.65,2.8,2.739,2.739,0,0,0,2.778,2.8,2.772,2.772,0,0,0,2.332-1.23l-.954-.636a1.6,1.6,0,0,1-1.378.763,1.389,1.389,0,0,1-1.357-.848l3.753-1.548-.127-.318a2.628,2.628,0,0,0-2.4-1.781m-1.442,2.714a1.535,1.535,0,0,1,1.463-1.633,1.057,1.057,0,0,1,1.039.594Z" transform="translate(0 -205.159)" fill="#757575"/>
    <path id="Path_1817" data-name="Path 1817" d="M170.4,272.343l2.8-7.443h1.081l2.8,7.443h-1.06l-.721-2.014h-3.117l-.721,2.014Zm2.1-2.9h2.481l-1.209-3.35h-.042Z" transform="translate(-134.269 -208.705)" fill="#757575"/>
    <path id="Path_1818" data-name="Path 1818" d="M203.9,271.728a2.807,2.807,0,0,1-.7-1.93,2.883,2.883,0,0,1,.7-1.93,2.221,2.221,0,0,1,1.718-.785,2.249,2.249,0,0,1,1.018.233,1.766,1.766,0,0,1,.721.636h.042l-.042-.7V264.9h.954v7.443H207.4v-.7h-.042a1.931,1.931,0,0,1-.721.636,2.112,2.112,0,0,1-1.018.233,2.191,2.191,0,0,1-1.718-.785m3.011-.594a2.116,2.116,0,0,0,0-2.65,1.542,1.542,0,0,0-2.29,0,2.086,2.086,0,0,0,0,2.629,1.514,1.514,0,0,0,1.145.509,1.371,1.371,0,0,0,1.145-.488" transform="translate(-160.114 -208.705)" fill="#757575"/>
    <path id="Path_1819" data-name="Path 1819" d="M234.547,280.162a2.508,2.508,0,0,1-2.82.064,2.27,2.27,0,0,1-.827-1.06l.848-.36a1.572,1.572,0,0,0,.551.721,1.332,1.332,0,0,0,.785.254,1.457,1.457,0,0,0,.763-.191.538.538,0,0,0,.3-.466c0-.318-.254-.572-.742-.721l-.869-.212c-1-.254-1.484-.721-1.484-1.442a1.349,1.349,0,0,1,.572-1.124,2.419,2.419,0,0,1,1.442-.424,2.473,2.473,0,0,1,1.23.318,1.782,1.782,0,0,1,.763.869l-.848.36a1.2,1.2,0,0,0-.466-.509,1.432,1.432,0,0,0-.742-.191,1.261,1.261,0,0,0-.679.191.557.557,0,0,0-.3.466c0,.3.276.509.827.615l.763.191c1.018.254,1.505.763,1.505,1.527a1.323,1.323,0,0,1-.573,1.124" transform="translate(-181.94 -216.821)" fill="#757575"/>
  </g>
</svg>
