<svg xmlns="http://www.w3.org/2000/svg" width="227.703" height="66.025" viewBox="0 0 227.703 66.025">
  <g id="hubspot" transform="translate(-0.06 -0.002)">
    <path id="Path_1820" data-name="Path 1820" d="M.06,27.679H8v17.64H24.745V27.679H32.7v43.3h-7.95V52.969H8V70.98H.06v-43.3Z" transform="translate(0 -15.367)" fill="#45535e"/>
    <path id="Path_1821" data-name="Path 1821" d="M104.171,70.052a6.577,6.577,0,0,1-13.154,0V51.41h-7.53V70.052a14.105,14.105,0,0,0,28.21,0V51.41h-7.527V70.052" transform="translate(-46.323 -28.544)" fill="#45535e"/>
    <path id="Path_1822" data-name="Path 1822" d="M173.687,38.452a11.572,11.572,0,0,0-8.86,3.555V27.679h-7.554V54.233c0,9.939,7.186,16.746,15.26,16.746,8.976,0,16.84-6.928,16.84-16.263a15.981,15.981,0,0,0-15.686-16.264Zm.188,25.539a9.279,9.279,0,0,1,0-18.552c4.337,0,8.254,4.276,8.254,9.277s-3.917,9.275-8.254,9.275Z" transform="translate(-87.292 -15.367)" fill="#45535e"/>
    <path id="Path_1823" data-name="Path 1823" d="M246.693,40.387c0-3.8,2.53-5,5.3-5,2.23,0,5.181,1.687,7.107,3.735l4.938-5.782a15.6,15.6,0,0,0-11.563-5.6c-8.193,0-14.1,4.759-14.1,12.651,0,14.637,18.011,10,18.011,18.191,0,2.527-2.469,4.758-5.3,4.758-4.459,0-5.905-2.169-7.953-4.458l-5.482,5.661a16.2,16.2,0,0,0,13.012,6.447c7.77,0,14.035-4.819,14.035-12.35,0-16.263-18.011-11.2-18.011-18.25" transform="translate(-131.924 -15.399)" fill="#45535e"/>
    <path id="Path_1824" data-name="Path 1824" d="M324.133,50.947c-8.073,0-15.26,6.8-15.26,16.745V94.314h7.554v-14.4a11.578,11.578,0,0,0,8.861,3.555A15.98,15.98,0,0,0,340.973,67.21c0-9.336-7.866-16.263-16.84-16.263Zm1.342,25.54a9.28,9.28,0,0,1,0-18.554c4.336,0,8.253,4.276,8.253,9.277s-3.917,9.277-8.253,9.277Z" transform="translate(-171.467 -28.287)" fill="#45535e"/>
    <path id="Path_1825" data-name="Path 1825" d="M489.38,67.739c-4.455,0-5.72-1.927-5.72-4.879V49.789h6.926V43.164h-6.926V34.429l-7.647,3.433V64.486c0,6.807,4.7,10.241,11.139,10.241a15.467,15.467,0,0,0,3.014-.241l1.867-6.866c-.843.058-1.807.118-2.653.118" transform="translate(-264.27 -19.115)" fill="#45535e"/>
    <path id="Path_1826" data-name="Path 1826" d="M390.485,31.059a16.613,16.613,0,0,0-6.032-5.993,16.2,16.2,0,0,0-6.1-2.113V15.037a5.844,5.844,0,0,0,3.6-5.472,6.01,6.01,0,1,0-12.02,0,5.774,5.774,0,0,0,3.524,5.472v7.92a17.419,17.419,0,0,0-5.309,1.664c-3.441-2.613-14.725-11.187-21.325-16.194a6.548,6.548,0,0,0,.277-1.76,6.662,6.662,0,1,0-6.66,6.665,6.6,6.6,0,0,0,3.42-.971l1.393,1.057L364.4,27.207a16.047,16.047,0,0,0-2.708,3.172,14.8,14.8,0,0,0-2.461,7.978v.605a16.72,16.72,0,0,0,1.046,5.765,15.136,15.136,0,0,0,2.48,4.307L356.4,55.4a5.142,5.142,0,1,0,3.384,4.829,5.158,5.158,0,0,0-.237-1.546l6.566-6.567a16.876,16.876,0,0,0,2.918,1.6,17.06,17.06,0,0,0,6.827,1.434h.456a16.35,16.35,0,0,0,13.9-7.719,15.083,15.083,0,0,0,2.371-8.125v-.149a15.93,15.93,0,0,0-2.1-8.1Zm-8.022,13.775c-1.782,1.98-3.831,3.2-6.147,3.2h-.382A8.308,8.308,0,0,1,372.052,47a8.975,8.975,0,0,1-3.4-3.1,7.226,7.226,0,0,1-1.416-4.217v-.456a8.641,8.641,0,0,1,1-4.2,9.1,9.1,0,0,1,3.167-3.464,7.751,7.751,0,0,1,4.387-1.323h.149a8.89,8.89,0,0,1,4.126.95,8.739,8.739,0,0,1,3.24,2.948,9.374,9.374,0,0,1,1.453,4.142c.025.311.037.629.037.934a8.193,8.193,0,0,1-2.327,5.616Z" transform="translate(-185.296 0)" fill="#f8761f"/>
  </g>
</svg>
