<svg id="EY" xmlns="http://www.w3.org/2000/svg" width="38.09" height="18.184" viewBox="0 0 38.09 18.184">
  <g id="Group_76791" data-name="Group 76791" transform="translate(0 0)">
    <path id="Path_3177" data-name="Path 3177" d="M41.744,262.431l-17.111,6.25,17.111-3.022Z" transform="translate(-24.633 -262.431)" fill="#ffe500"/>
    <path id="Path_3178" data-name="Path 3178" d="M43.482,398.534a.539.539,0,0,0-.34-.516.525.525,0,0,0,.258-.454c0-.382-.258-.6-.712-.6h-.969v2.3h.97A.7.7,0,0,0,43.482,398.534Zm-.794.351h-.547v-.65h.547a.305.305,0,0,1,.351.33A.312.312,0,0,1,42.688,398.884Zm-.01-1.031h-.536v-.5h.516c.206,0,.3.083.3.248C42.967,397.719,42.915,397.853,42.678,397.853Zm1.1.691V397.6h.413v.928c0,.278.1.413.309.413s.309-.134.309-.413V397.6h.413v1.681h-.413v-.134a.522.522,0,0,1-.4.175c-.547-.01-.629-.485-.629-.774Zm6.333.732H49.7V397.6h.413v.145a.551.551,0,0,1,.423-.175c.4,0,.619.268.619.763v.949h-.413v-.928c0-.278-.093-.413-.3-.413s-.32.145-.32.413v.928h-.01Zm-4.095-.856v.856h-.413V397.6h.413Zm.371-1.32.413-.206v2.383h-.413Zm1.733.609a.506.506,0,0,0-.371-.155c-.4,0-.66.33-.66.856,0,.557.248.9.65.9a.517.517,0,0,0,.382-.165v.124h.413v-2.383l-.413.206Zm-.289,1.217c-.144,0-.32-.093-.32-.516,0-.392.165-.464.309-.464a.361.361,0,0,1,.3.165v.66A.35.35,0,0,1,47.835,398.926Zm9.334-1.372a.571.571,0,0,0-.371.155v-.774l-.413.206v2.125H56.8v-.124a.54.54,0,0,0,.382.165c.413,0,.65-.33.65-.9C57.829,397.884,57.582,397.554,57.169,397.554Zm-.072.382c.155,0,.309.124.309.464s-.1.516-.309.516a.394.394,0,0,1-.3-.155v-.66A.359.359,0,0,1,57.1,397.936Zm-4.641-.227a.506.506,0,0,0-.371-.155c-.4,0-.66.33-.66.856,0,.557.248.9.65.9a.5.5,0,0,0,.382-.165v.041c0,.186,0,.433-.536.443H51.9l.144.33h.01a.732.732,0,0,0,.815-.835V397.6h-.413v.114Zm0,.392v.66a.352.352,0,0,1-.3.165c-.144,0-.309-.093-.309-.516,0-.392.165-.464.309-.464A.332.332,0,0,1,52.456,398.1Zm1.7-.093a.846.846,0,0,1,.433-.113c.2,0,.3.083.3.237v.114a.808.808,0,0,0-.361-.083c-.309,0-.67.144-.67.547a.581.581,0,0,0,.619.6.541.541,0,0,0,.4-.175v.134h.413v-1.135c0-.361-.258-.588-.681-.588a1.221,1.221,0,0,0-.629.165Zm.124.712c0-.144.1-.237.289-.237a.606.606,0,0,1,.33.083v.227a.379.379,0,0,1-.33.175C54.384,398.967,54.281,398.874,54.281,398.719Zm4.889.062a.451.451,0,0,1-.33.144.359.359,0,0,1-.371-.371H59.5v-.124c0-.536-.278-.877-.7-.877a.8.8,0,0,0-.753.877.788.788,0,0,0,.794.877.752.752,0,0,0,.588-.268Zm-.7-.526a.316.316,0,1,1,.629,0Zm4.7.526a.451.451,0,0,1-.33.144.359.359,0,0,1-.371-.371H63.5v-.124c0-.536-.279-.877-.7-.877a.8.8,0,0,0-.753.877.8.8,0,0,0,1.392.608l-.268-.258Zm-.7-.526a.316.316,0,1,1,.629,0Zm-1,.433c0,.144.052.227.175.227a.53.53,0,0,0,.248-.072l-.052.392a.733.733,0,0,1-.351.083.456.456,0,0,1-.444-.516v-.815H60.8V397.6h.258v-.433l.413-.206v.639h.382v.392H61.47Zm-.8.547a.734.734,0,0,1-.351.083.456.456,0,0,1-.444-.516v-.815h-.258V397.6h.258v-.433l.413-.206v.639h.351v.392h-.351v.712c0,.144.052.227.175.227a.53.53,0,0,0,.248-.072Zm4.095-1.176a.453.453,0,0,0-.279-.093c-.206,0-.3.124-.3.392v.908H63.77v-1.681h.413v.144a.469.469,0,0,1,.371-.186.506.506,0,0,1,.309.1Zm-18.741-.918v.206h-.413v-.413h.413Zm2.888.454h.413v1.681h-.413Zm.413-.454v.206h-.413v-.413h.413Zm11.4,3.507a.506.506,0,0,0-.371-.155c-.4,0-.66.33-.66.856,0,.557.248.9.65.9a.516.516,0,0,0,.382-.165v.124h.413v-2.383l-.413.206Zm-.289,1.217c-.144,0-.32-.093-.32-.516,0-.392.165-.464.309-.464a.361.361,0,0,1,.3.165v.66A.378.378,0,0,1,60.428,401.865ZM46.628,401a.453.453,0,0,0-.278-.093c-.206,0-.3.124-.3.392v.908h-.413v-1.681h.413v.144a.468.468,0,0,1,.371-.186.507.507,0,0,1,.309.1Zm-3.27-.474h.413l-.474,1.681h-.361l-.186-.7c-.031-.124-.072-.268-.093-.361-.021.072-.062.279-.093.382l-.186.681h-.351l-.474-1.681h.423l.155.629c.021.1.062.289.083.413.021-.124.072-.309.1-.423l.175-.619h.351l.175.619c.031.113.072.289.1.423.021-.1.052-.268.093-.423Zm1.258-.031a.885.885,0,1,0,.763.877A.8.8,0,0,0,44.617,400.493Zm0,1.362c-.206,0-.34-.2-.34-.485s.134-.485.34-.485.34.2.34.485S44.823,401.855,44.617,401.855ZM58.675,401a.453.453,0,0,0-.278-.093c-.206,0-.3.124-.3.392v.908h-.413v-1.681H58.1v.144a.468.468,0,0,1,.371-.186.506.506,0,0,1,.309.1l-.1.413Zm-3.259-.474h.413l-.474,1.681h-.361l-.186-.7c-.031-.124-.072-.268-.093-.361-.021.072-.062.279-.093.382l-.186.681h-.361v-.01l-.474-1.671h.423l.155.629c.021.1.062.289.083.413.021-.124.072-.309.1-.423l.175-.619h.351l.175.619c.031.113.072.289.1.423.021-.1.052-.268.093-.423Zm1.248-.031a.885.885,0,1,0,.763.877A.8.8,0,0,0,56.664,400.493Zm0,1.362c-.206,0-.34-.186-.34-.485s.134-.485.34-.485.34.2.34.485S56.87,401.855,56.664,401.855Zm-8.8-.774.516,1.124h-.454l-.351-.784-.217.279v.505h-.413V400.04l.413-.206v1.341q.075-.105.155-.206l.33-.433h.474Zm1.97,1.124h-.413v-1.681h.413v.144a.552.552,0,0,1,.423-.175c.4,0,.619.268.619.763v.949h-.413v-.928c0-.279-.093-.413-.3-.413s-.32.144-.32.413v.928h-.01Zm2.341-1.557a.506.506,0,0,0-.371-.155c-.4,0-.66.33-.66.856,0,.557.248.9.65.9a.5.5,0,0,0,.382-.165v.041c0,.186,0,.433-.536.444H51.62l.144.33h.01a.732.732,0,0,0,.815-.836v-1.527h-.413v.114Zm0,.392v.66a.352.352,0,0,1-.3.165c-.144,0-.309-.093-.309-.516,0-.392.165-.464.309-.464A.332.332,0,0,1,52.177,401.04Zm-3.548-.516h.413v1.681h-.413Zm.413-.444v.206h-.413v-.413h.413Zm9.943-.041.413-.206v2.372h-.413Zm-29.468-1.248h3.125v-1.815H29.517v-1.423h3.466l-1.145-2h-4.91v8.654h6.921v-1.991H29.517v-1.423Zm8.942-5.24-1.465,2.826-1.465-2.826H32.652l3.022,5.24v3.414h2.589v-3.414l3.022-5.24Z" transform="translate(-26.773 -384.713)" fill="#58595b"/>
  </g>
</svg>
