<svg id="Facebook" xmlns="http://www.w3.org/2000/svg" width="93.869" height="18.184" viewBox="0 0 93.869 18.184">
  <g id="Group_76786" data-name="Group 76786" transform="translate(0 0)">
    <path id="_Path_" d="M7.353,2.862c-1.1,0-1.431.484-1.431,1.563V6.208h2.95L8.586,9.114H5.922V17.9H2.378V9.114H0V6.23H2.378V4.491C2.378,1.541,3.566,0,6.846,0A16.325,16.325,0,0,1,8.916.132v2.73" transform="translate(0 0)" fill="#004f9d"/>
    <path id="_Compound_Path_" d="M41.322,32.824c0-3.258,1.541-5.724,4.8-5.724a3.483,3.483,0,0,1,3.368,2.047V27.364h3.39v11.69H49.467V37.293a3.442,3.442,0,0,1-3.368,2c-3.236,0-4.8-2.444-4.8-5.724m3.566.044c0,1.739.638,2.906,2.289,2.906,1.453,0,2.179-1.057,2.179-2.73V32.6c0-1.673-.748-2.73-2.179-2.73-1.651,0-2.289,1.145-2.289,2.906Z" transform="translate(-32.208 -21.134)" fill="#004f9d"/>
    <path id="_Path_2" d="M105.932,27.1a6.323,6.323,0,0,1,3.39.793l-.793,2.51a5.42,5.42,0,0,0-2.356-.528c-1.915,0-2.752,1.1-2.752,2.994v.682c0,1.893.837,2.994,2.752,2.994a5.441,5.441,0,0,0,2.356-.55l.793,2.51a6.474,6.474,0,0,1-3.39.793c-4.161,0-6.032-2.223-6.032-5.812v-.55c0-3.588,1.871-5.834,6.032-5.834" transform="translate(-77.908 -21.134)" fill="#004f9d"/>
    <path id="_Compound_Path_2" d="M144.8,33.638V32.6c0-3.324,1.893-5.5,5.746-5.5,3.632,0,5.239,2.2,5.239,5.46v1.871h-7.441c.066,1.607.793,2.312,2.752,2.312a10.567,10.567,0,0,0,3.764-.7l.638,2.422a11.452,11.452,0,0,1-4.535.859c-4.491-.022-6.164-2.245-6.164-5.68m3.544-1.541h4.271v-.286c0-1.277-.506-2.289-2.069-2.289-1.585,0-2.2,1.013-2.2,2.576" transform="translate(-112.923 -21.134)" fill="#004f9d"/>
    <path id="_Compound_Path_3" d="M213.046,12.594c0,3.258-1.563,5.724-4.821,5.724a3.608,3.608,0,0,1-3.478-2v1.761H201.4V.508L204.944.2V8.015a3.528,3.528,0,0,1,3.3-1.871c3.236,0,4.821,2.444,4.821,5.724M209.5,11.78c0-1.651-.638-2.884-2.334-2.884-1.453,0-2.223,1.035-2.223,2.708v1.233c0,1.673.793,2.708,2.223,2.708,1.7,0,2.334-1.233,2.334-2.884V11.78Z" transform="translate(-157.063 -0.156)" fill="#004f9d"/>
    <path id="_Compound_Path_4" d="M259.6,33.484V32.89c0-3.368,1.915-5.79,5.812-5.79s5.812,2.422,5.812,5.79v.594c0,3.368-1.915,5.79-5.812,5.79s-5.812-2.4-5.812-5.79m8.1-.837c0-1.541-.638-2.774-2.289-2.774s-2.289,1.233-2.289,2.774v1.1c0,1.541.638,2.774,2.289,2.774s2.289-1.233,2.289-2.774Z" transform="translate(-202.451 -21.134)" fill="#004f9d"/>
    <path id="_Compound_Path_5" d="M317.9,33.484V32.89c0-3.368,1.915-5.79,5.812-5.79s5.812,2.422,5.812,5.79v.594c0,3.368-1.915,5.79-5.812,5.79s-5.812-2.4-5.812-5.79m8.1-.837c0-1.541-.638-2.774-2.289-2.774s-2.289,1.233-2.289,2.774v1.1c0,1.541.638,2.774,2.289,2.774S326,35.289,326,33.748Z" transform="translate(-247.916 -21.134)" fill="#004f9d"/>
    <path id="_Path_3" d="M380.322,11.878l3.5-5.592h3.742l-3.654,5.79L387.719,18h-3.764l-3.632-5.724V18H376.8V.43L380.322.1" transform="translate(-293.85 -0.078)" fill="#004f9d"/>
  </g>
</svg>
