<svg xmlns="http://www.w3.org/2000/svg" xmlns:xlink="http://www.w3.org/1999/xlink" width="69.081" height="18.277" viewBox="0 0 69.081 18.277">
  <defs>
    <linearGradient id="linear-gradient" x1="0.5" y1="0.635" x2="0.5" y2="-0.365" gradientUnits="objectBoundingBox">
      <stop offset="0" stop-color="#f7e830"/>
      <stop offset="1" stop-color="#fdcb06"/>
    </linearGradient>
    <radialGradient id="radial-gradient" cx="0.496" cy="3.536" r="4.378" gradientTransform="matrix(0.154, 0, 0, -1, 0.419, 4.088)" gradientUnits="objectBoundingBox">
      <stop offset="0.596" stop-color="#f29405"/>
      <stop offset="0.736" stop-color="#f7d01e"/>
      <stop offset="1" stop-color="#fdcb06"/>
    </radialGradient>
    <linearGradient id="linear-gradient-2" x1="0.491" y1="11.655" x2="0.499" y2="10.674" gradientUnits="objectBoundingBox">
      <stop offset="0" stop-color="#fada1c"/>
      <stop offset="1" stop-color="#fdcb06"/>
    </linearGradient>
    <linearGradient id="linear-gradient-3" x1="101.001" y1="11.748" x2="101.009" y2="10.768" xlink:href="#linear-gradient-2"/>
  </defs>
  <g id="Flipkart" transform="translate(0.053 0.046)">
    <g id="Group_76785" data-name="Group 76785" transform="translate(0 0)">
      <path id="Path_1675" data-name="Path 1675" d="M62.921,166.677c-.008-.026-.015-.051-.026-.077q-9.136,0-18.266,0a.106.106,0,0,0-.028.059q0,7.084,0,14.166a1.146,1.146,0,0,0,.363.653l.033.008a.894.894,0,0,0,.36.2c.1-.005.188.036.283.026H53.2a.611.611,0,0,0,.216-.018c0-.01.005-.028.008-.039s.005-.041.008-.057c.162-.9.319-1.812.491-2.717l.015-.116c-.7,0-1.4,0-2.1,0-.17-.005-.344,0-.514-.021-.29-.013-.584,0-.874-.031-.36,0-.717-.033-1.077-.033-.283-.028-.568-.018-.854-.031-.185-.023-.375-.013-.563-.021-.306-.033-.617-.01-.923-.044-.324,0-.648-.026-.972-.033a.037.037,0,0,0,.005-.015c.108,0,.213-.005.321-.008.239-.031.481-.01.72-.044.249,0,.5-.033.746-.033.221-.031.445-.013.666-.044.26,0,.514-.033.774-.036.213-.028.429-.013.643-.041.249,0,.5-.036.746-.033.244-.028.494-.021.738-.046-.023-.1-.041-.19-.062-.285-.018-.059-.09-.046-.136-.054q-.837-.12-1.668-.236c.036-.028.085-.015.126-.021.432-.033.861-.072,1.293-.1.1-.005.193-.023.291-.026a3.357,3.357,0,0,0-.129-.4c-.923-.141-1.846-.267-2.766-.419.239-.039.481-.057.72-.082l.021-.008c.764-.08,1.53-.17,2.293-.244.969-.005,1.936,0,2.905,0,.031-.005.085.01.09-.033.08-.416.157-.833.236-1.249a6.238,6.238,0,0,1,.555-1.676,4.943,4.943,0,0,1,1.913-2.046,5.512,5.512,0,0,1,2.527-.7,3.97,3.97,0,0,1,.856.018,1.2,1.2,0,0,1,.522.221.875.875,0,0,1,.247.386,6.138,6.138,0,0,1,.242,1.054.815.815,0,0,1-.049.437.553.553,0,0,1-.352.229c-.5.129-1.015.008-1.512.129a1.839,1.839,0,0,0-1.049.64,2.982,2.982,0,0,0-.558,1.327c-.069.422-.157.843-.226,1.267.488,0,.98,0,1.471,0a.518.518,0,0,1,.476.293,1.414,1.414,0,0,1,.046.753,2.742,2.742,0,0,1-.234.815.92.92,0,0,1-.519.5,1.037,1.037,0,0,1-.388.039c-.432,0-.864.005-1.3,0-.069.316-.116.64-.177.962-.113.625-.224,1.252-.337,1.879,0,.021-.005.064-.005.087.2.01.406,0,.609.005,1.507,0,3.016,0,4.525,0a.9.9,0,0,0,.468-.113c.085-.031.136-.105.211-.147s.093-.126.154-.18a.857.857,0,0,0,.141-.381.23.23,0,0,0,.039-.005C62.918,176.138,62.926,171.408,62.921,166.677Z" transform="translate(6.049 -163.527)" stroke="#fcd109" stroke-width="0.094" fill="url(#linear-gradient)"/>
      <path id="Path_1676" data-name="Path 1676" d="M46.878,47.1a2.789,2.789,0,0,1,.671-.039q6.3,0,12.595,0a2.119,2.119,0,0,1,.7.2c.185.075.378.134.563.213a.306.306,0,0,1,.1.077c0,.339,0,.681,0,1.023a.866.866,0,0,0,.018.27c.054.008.082.049.118.082a3.483,3.483,0,0,1,.468.306c.231.165.478.309.7.478a.428.428,0,0,1-.018.2,1.07,1.07,0,0,0-.015.221q-9.136,0-18.266,0a.894.894,0,0,0-.026-.249c-.005-.067-.028-.154.036-.2.257-.18.53-.342.781-.532.157-.1.308-.2.46-.306a.327.327,0,0,0,.021-.172c0-.373,0-.746,0-1.118.087-.113.239-.126.36-.183.244-.093.491-.183.733-.275m.015.044c-.329.126-.661.247-.99.373-.044.008-.067.046-.09.08,0,.021.005.057.005.077,0,.309,0,.617,0,.926a.645.645,0,0,0,.021.224.638.638,0,0,1-.111.093c-.373.242-.733.5-1.105.743-.064.039-.136.09-.116.175-.013.046.01.085.059.072.807-.005,1.612.005,2.419-.008,1.2,0,2.4,0,3.6,0l.018-.008a.7.7,0,0,0,.164.008q3.262,0,6.527,0c.684,0,1.37,0,2.057,0,1.131,0,2.265.01,3.4.005.033-.008.044-.031.031-.072s.013-.1-.031-.123c-.18-.085-.334-.216-.506-.319-.062-.051-.141-.08-.188-.149-.177-.1-.342-.224-.517-.334a.524.524,0,0,1-.087-.082.626.626,0,0,0,.021-.17c0-.327,0-.653,0-.98a.142.142,0,0,0-.041-.144c-.309-.111-.614-.229-.92-.342a1.051,1.051,0,0,0-.3-.087H47.061A1,1,0,0,0,46.894,47.142Z" transform="translate(6.167 -47.059)" fill="#f8f3b5" stroke="#f8f3b5" stroke-width="0.094"/>
      <path id="Path_1677" data-name="Path 1677" d="M96.6,70.9c.226.1.468.149.7.242.123.049.162.183.216.291a1.071,1.071,0,0,1-.183.139c-.237.159-.478.314-.712.478a.645.645,0,0,1-.021-.224C96.6,71.517,96.6,71.208,96.6,70.9Zm14.95.242c.229-.09.468-.152.7-.242,0,.326,0,.653,0,.979a.626.626,0,0,1-.021.17c-.2-.139-.4-.27-.6-.406a2.37,2.37,0,0,1-.293-.213C111.386,71.322,111.427,71.191,111.55,71.142Z" transform="translate(-44.615 -70.287)" fill="#f7b402" stroke="#f7b402" stroke-width="0.094"/>
      <path id="Path_1678" data-name="Path 1678" d="M234.889,83.975a.484.484,0,0,1,.576.481.489.489,0,0,1-.584.46.559.559,0,0,1-.291-.2.483.483,0,0,1-.039-.468A.46.46,0,0,1,234.889,83.975Zm7.335.162a.494.494,0,0,1,.481-.159.481.481,0,0,1,.121.887.5.5,0,0,1-.591-.1A.489.489,0,0,1,242.224,84.137Z" transform="translate(-178.98 -83.015)" fill="#bda727" stroke="#bda727" stroke-width="0.094"/>
      <path id="Path_1679" data-name="Path 1679" d="M47.508,91.641a1.071,1.071,0,0,0,.183-.139l.018.018c.018.134.005.27.01.4-.008.4.008.8-.01,1.206-.748,0-1.5-.005-2.244,0-.021-.085.051-.136.116-.175.373-.239.733-.5,1.105-.743a.638.638,0,0,0,.111-.093C47.03,91.955,47.272,91.8,47.508,91.641Zm13.975-.051a.16.16,0,0,1,.026-.09,2.373,2.373,0,0,0,.293.213c.2.136.4.267.6.406a.528.528,0,0,0,.087.082c.175.111.339.234.517.334.046.069.126.1.188.149.172.1.327.234.506.319.044.026.028.082.031.123-.748,0-1.494,0-2.242,0a3.056,3.056,0,0,1-.008-.306c0-.411-.005-.823,0-1.234Z" transform="translate(5.208 -90.357)" fill="#f7e62d" stroke="#f7e62d" stroke-width="0.094"/>
      <path id="Path_1680" data-name="Path 1680" d="M63.735,51.33c-.748,0-1.494,0-2.242,0a3.057,3.057,0,0,1-.008-.306c0-.411-.005-.823,0-1.234a.16.16,0,0,1,.026-.09c.054-.108.1-.239.219-.288.229-.09.468-.152.7-.242a.142.142,0,0,0-.041-.144c-.309-.111-.614-.229-.92-.342a1.051,1.051,0,0,0-.3-.087H48.019a1,1,0,0,0-.167.044c-.329.126-.661.247-.99.373-.044.008-.067.046-.09.08,0,.021.005.057.005.077.226.1.468.149.7.242.123.049.162.183.216.291l.018.018c.018.134.005.27.01.4-.008.4.008.8-.01,1.206-.748,0-1.5-.005-2.244,0-.013.046.01.085.059.072.807-.005,1.612.005,2.419-.008,1.2,0,2.4,0,3.6,0l.018-.008a.7.7,0,0,0,.164.008q3.262,0,6.527,0c.684,0,1.37,0,2.057,0,1.131,0,2.265.01,3.4.005C63.737,51.395,63.747,51.371,63.735,51.33ZM50.363,49.8a.46.46,0,0,1,.337-.275.484.484,0,0,1,.576.481.489.489,0,0,1-.584.46.559.559,0,0,1-.291-.2A.483.483,0,0,1,50.363,49.8Zm7.672-.113a.494.494,0,0,1,.481-.159.481.481,0,0,1,.121.887.5.5,0,0,1-.591-.1A.489.489,0,0,1,58.035,49.682Z" transform="translate(5.209 -48.56)" stroke="#fcd109" stroke-width="0.094" fill="url(#radial-gradient)"/>
      <path id="Path_1681" data-name="Path 1681" d="M554.428,188.1c.036.008-.187-.215-.144-.225a.48.48,0,0,1,.386-.017c.188.1.142.33.12.416a.464.464,0,0,1-.142.219.248.248,0,0,1-.13.057c.023-.126-.051-.147-.057-.275Z" transform="translate(-490.529 -184.201)" stroke="#fcd109" stroke-width="0.094" fill="url(#linear-gradient-2)"/>
      <path id="Path_1682" data-name="Path 1682" d="M227.16,186.941c-.005.129-.08.149-.057.275a.248.248,0,0,1-.13-.057.465.465,0,0,1-.142-.219c-.021-.086-.068-.317.12-.416a.479.479,0,0,1,.386.017c.044.01-.18.233-.144.225Z" transform="translate(-171.48 -182.901)" stroke="#fcd109" stroke-width="0.094" fill="url(#linear-gradient-3)"/>
      <path id="Path_1683" data-name="Path 1683" d="M270.788,261.534a.142.142,0,0,1,.116-.034,5.991,5.991,0,0,1-1.21,1.857,1.812,1.812,0,0,1-.183.143l-.183.131c-.059.041-.118.082-.175.125a2.406,2.406,0,0,1-.437.239,4.1,4.1,0,0,1-.936.3,2.74,2.74,0,0,1-.383.054,2.242,2.242,0,0,1-.491.023c-.09.015-.17-.036-.257-.026-.076-.011-.152-.024-.227-.039s-.152-.034-.227-.054a3.938,3.938,0,0,1-2.672-2.484,1.366,1.366,0,0,1-.023-.249q.054.108.112.214a3.77,3.77,0,0,0,2.555,2.116c.091.042.19.027.277.063a.718.718,0,0,1,.234.023c.265.005.53,0,.794,0a.392.392,0,0,0,.105-.023,3.387,3.387,0,0,0,1.276-.318q.121-.055.238-.117t.2-.117q.1-.062.186-.131a4.259,4.259,0,0,0,1.167-1.427C270.7,261.711,270.745,261.618,270.788,261.534Z" transform="translate(-207.226 -255.987)" fill="#bda727" stroke="#bda727" stroke-width="0.094"/>
      <path id="Path_1684" data-name="Path 1684" d="M227.013,324.431a5.512,5.512,0,0,1,2.527-.7,3.972,3.972,0,0,1,.856.018,1.2,1.2,0,0,1,.522.221,1.113,1.113,0,0,1-.221-.039,3.83,3.83,0,0,0-.643-.031,6.751,6.751,0,0,0-1.843.219,4.33,4.33,0,0,0-.913.37,4.554,4.554,0,0,0-1.3,1.064,5.571,5.571,0,0,0-1.2,2.627c-.087.512-.188,1.021-.267,1.535-.129.013-.26.005-.388.005q-.848,0-1.7-.01c-.121.005-.239-.023-.36-.016-1.028.005-2.057,0-3.085,0l.021-.008c.764-.08,1.53-.17,2.293-.244.969-.005,1.936,0,2.905,0,.031-.005.085.01.09-.034.08-.416.157-.833.236-1.249a6.24,6.24,0,0,1,.555-1.676A4.944,4.944,0,0,1,227.013,324.431Z" transform="translate(-163.87 -316.599)" fill="#0d69b3" stroke="#0d69b3" stroke-width="0.094"/>
      <path id="Path_1685" data-name="Path 1685" d="M113.543,331.119a6.752,6.752,0,0,1,1.843-.219,3.843,3.843,0,0,1,.643.031,1.1,1.1,0,0,0,.221.039.875.875,0,0,1,.247.386,6.135,6.135,0,0,1,.242,1.054.814.814,0,0,1-.049.437.553.553,0,0,1-.352.229c-.5.129-1.015.008-1.512.129a1.839,1.839,0,0,0-1.049.64,2.982,2.982,0,0,0-.558,1.327c-.069.422-.157.843-.226,1.267a2.285,2.285,0,0,0-.067.3c.486.008.972,0,1.458.005.185-.005.37.005.555-.008a1.413,1.413,0,0,1,.046.753,2.743,2.743,0,0,1-.234.815.92.92,0,0,1-.519.5,1.037,1.037,0,0,1-.388.039c-.432,0-.864.005-1.3,0-.069.316-.116.64-.177.961-.113.625-.224,1.252-.337,1.879,0,.021-.005.064-.005.087v0c-1.123,0-2.244,0-3.368,0,0-.01.005-.028.008-.039s.005-.041.008-.057c0,.021.005.059.008.077.069.008.2.044.213-.057.175-.946.337-1.9.517-2.843a.542.542,0,0,0-.213,0c-.01.036-.021.072-.033.108l.015-.116c-.7,0-1.4,0-2.1,0-.17-.005-.345,0-.514-.021-.29-.013-.584,0-.874-.031-.36,0-.717-.033-1.077-.033-.283-.028-.568-.018-.854-.031-.185-.023-.375-.013-.563-.021-.306-.034-.617-.01-.923-.044-.324,0-.648-.026-.972-.033a.037.037,0,0,0,.005-.015c.108,0,.213-.005.321-.008.239-.031.481-.01.72-.044.249,0,.5-.033.746-.033.221-.031.445-.013.666-.044.26,0,.514-.033.774-.036.213-.028.429-.013.643-.041.249,0,.5-.036.746-.033.244-.028.494-.021.738-.046-.023-.1-.041-.19-.062-.285-.018-.059-.09-.046-.136-.054q-.837-.12-1.668-.237c.036-.028.085-.015.126-.021.432-.033.861-.072,1.293-.1.1-.005.193-.023.29-.026a3.362,3.362,0,0,0-.129-.4c-.923-.141-1.846-.267-2.766-.419.239-.039.481-.057.72-.082,1.028,0,2.057.008,3.085,0,.121-.008.239.021.36.015q.848.008,1.7.01c.129,0,.26.008.388-.005.08-.514.18-1.023.267-1.535a5.571,5.571,0,0,1,1.2-2.627,4.555,4.555,0,0,1,1.3-1.064A4.325,4.325,0,0,1,113.543,331.119Z" transform="translate(-49.202 -323.603)" fill="#107bd4" stroke="#107bd4" stroke-width="0.094"/>
      <path id="Path_1686" data-name="Path 1686" d="M392.316,546.3c.488,0,.98,0,1.471,0a.517.517,0,0,1,.476.293c-.185.013-.37,0-.555.008-.486-.005-.972,0-1.458-.005A2.283,2.283,0,0,1,392.316,546.3Zm-3.792,2.409a.54.54,0,0,1,.213,0c-.18.946-.342,1.9-.517,2.843-.018.1-.144.064-.213.057,0-.018-.005-.057-.008-.077.162-.9.319-1.812.491-2.717.013-.036.023-.072.033-.108Z" transform="translate(-328.525 -533.464)" fill="#0d69b3" stroke="#0d69b3" stroke-width="0.094"/>
      <path id="Path_1687" data-name="Path 1687" d="M245.837,188.092a.273.273,0,0,1-.023-.129l-.021,0a.292.292,0,0,0-.249-.226c-.093-.008-.208-.005-.262.082-.1.139-.054.316-.059.473,0,.01,0,.028,0,.039a1.8,1.8,0,0,1-.031.311.221.221,0,0,0-.023.1,2.371,2.371,0,0,1-.249.7.259.259,0,0,0-.049.1,3.477,3.477,0,0,1-.265.38.33.33,0,0,0-.041.044,2.513,2.513,0,0,1-.213.224c-.018.01-.031.023-.046.033a1.675,1.675,0,0,1-.291.229c-.013.008-.026.018-.041.028a4.134,4.134,0,0,1-2.237.622,4.178,4.178,0,0,1-1.923-.406l-.046-.021a2.566,2.566,0,0,1-.3-.167c-.021-.01-.041-.023-.064-.033a1.962,1.962,0,0,1-.27-.19c-.028-.026-.059-.046-.09-.069a2.177,2.177,0,0,1-.267-.244c-.021-.023-.041-.044-.062-.064a2.562,2.562,0,0,1-.614-1.031,3.176,3.176,0,0,1-.108-.962.345.345,0,0,0-.442-.134c-.064.046-.072.131-.121.19a3.02,3.02,0,0,0,.861,2.306.042.042,0,0,0,.028.041c.1.1.2.193.306.285a.409.409,0,0,0,.062.051c.1.085.213.162.321.242a.55.55,0,0,0,.064.041,2.89,2.89,0,0,0,.427.237.334.334,0,0,0,.039.026,4.635,4.635,0,0,0,1.555.445.831.831,0,0,1,.177.018c.257.015.514.008.771,0a4.626,4.626,0,0,0,2.278-.73l.008.01c.021-.018.039-.033.059-.049.105-.077.208-.159.311-.244a.784.784,0,0,0,.072-.062,3.394,3.394,0,0,0,.339-.378l.015.008c.008-.013.021-.039.028-.051.087-.118.167-.242.244-.365.005-.008.018-.021.023-.028l-.01-.01.033-.041a3.017,3.017,0,0,0,.311-.908.044.044,0,0,0,.028-.041,2.416,2.416,0,0,0,.028-.3A1.748,1.748,0,0,0,245.837,188.092Z" transform="translate(-181.82 -184.12)" fill="#fff" stroke="#fff" stroke-width="0.094"/>
      <path id="Path_1688" data-name="Path 1688" d="M230.167,187.126c.208.065.687-.1.823.051m-.7.583c.2-.07.628-.234.806-.137m-.6.771c.1.031.287-.138.381-.188a1.4,1.4,0,0,1,.441-.155m-.514,1.011a1.454,1.454,0,0,1,.363-.36c.143-.1.533-.366.7-.275m-.771,1.114c.113-.09.159-.249.278-.343a2.422,2.422,0,0,1,.511-.205m-.3.9c.034-.249.286-.549.527-.527m-.154.874c.127-.013.235-.3.321-.394a.82.82,0,0,1,.433-.24m-.017.943c-.008-.18.178-.7.394-.668m.154.84c-.009-.213.1-.852.36-.874m.206,1.217a1.1,1.1,0,0,1,.189-.943m.514,1.011c-.026-.248-.272-.749,0-.943m.754.771a1.427,1.427,0,0,1-.137-.823m.857.7a1.71,1.71,0,0,1-.237-.51c-.02-.114.015-.277,0-.364m.84.617a.9.9,0,0,1-.189-.806m.771.548a2,2,0,0,1-.291-.874m.857.326c-.217-.146-.495-.412-.463-.7m1.063.24a1.845,1.845,0,0,1-.925-.634m1.2.069c-.238-.051-1.025-.358-.977-.668m1.234.069a3.633,3.633,0,0,1-1.08-.463m1.251-.086a3.353,3.353,0,0,1-.721-.12c-.236-.041-.455-.12-.684-.171m1.2-.24a3,3,0,0,1-1.148-.24" transform="translate(-174.75 -183.241)" fill="none" stroke="#d1d1d1" stroke-width="2"/>
      <path id="Path_1689" data-name="Path 1689" d="M245.837,188.092a.273.273,0,0,1-.023-.129l-.021,0a.292.292,0,0,0-.249-.226c-.093-.008-.208-.005-.262.082-.1.139-.054.316-.059.473,0,.01,0,.028,0,.039a1.8,1.8,0,0,1-.031.311.221.221,0,0,0-.023.1,2.371,2.371,0,0,1-.249.7.259.259,0,0,0-.049.1,3.477,3.477,0,0,1-.265.38.33.33,0,0,0-.041.044,2.513,2.513,0,0,1-.213.224c-.018.01-.031.023-.046.033a1.675,1.675,0,0,1-.291.229c-.013.008-.026.018-.041.028a4.134,4.134,0,0,1-2.237.622,4.178,4.178,0,0,1-1.923-.406l-.046-.021a2.566,2.566,0,0,1-.3-.167c-.021-.01-.041-.023-.064-.033a1.962,1.962,0,0,1-.27-.19c-.028-.026-.059-.046-.09-.069a2.177,2.177,0,0,1-.267-.244c-.021-.023-.041-.044-.062-.064a2.562,2.562,0,0,1-.614-1.031,3.176,3.176,0,0,1-.108-.962.345.345,0,0,0-.442-.134c-.064.046-.072.131-.121.19a3.02,3.02,0,0,0,.861,2.306.042.042,0,0,0,.028.041c.1.1.2.193.306.285a.409.409,0,0,0,.062.051c.1.085.213.162.321.242a.55.55,0,0,0,.064.041,2.89,2.89,0,0,0,.427.237.334.334,0,0,0,.039.026,4.635,4.635,0,0,0,1.555.445.831.831,0,0,1,.177.018c.257.015.514.008.771,0a4.626,4.626,0,0,0,2.278-.73l.008.01c.021-.018.039-.033.059-.049.105-.077.208-.159.311-.244a.784.784,0,0,0,.072-.062,3.394,3.394,0,0,0,.339-.378l.015.008c.008-.013.021-.039.028-.051.087-.118.167-.242.244-.365.005-.008.018-.021.023-.028l-.01-.01.033-.041a3.017,3.017,0,0,0,.311-.908.044.044,0,0,0,.028-.041,2.416,2.416,0,0,0,.028-.3A1.748,1.748,0,0,0,245.837,188.092Z" transform="translate(-181.82 -184.12)"/>
      <path id="Path_1690" data-name="Path 1690" d="M-1912.936,242.673a1.5,1.5,0,0,1,1.118.141.757.757,0,0,1,.253.654,1.137,1.137,0,0,1-.52,1.019,1.772,1.772,0,0,1-1.026.148.776.776,0,0,1-.583-.365A1.165,1.165,0,0,1-1912.936,242.673Zm-11.148.443a.439.439,0,0,1,.428-.394c1.624,0,3.241.007,4.857,0a.47.47,0,0,1,.45.218c.119.211.014.443,0,.661-.049.3-.035.689-.38.8-1.181.035-2.362,0-3.543.014-.112.745-.218,1.483-.33,2.221,0,.028.007.091.007.119.865-.007,1.729,0,2.594-.007a.444.444,0,0,1,.471.443c-.021.26-.077.513-.112.773a.458.458,0,0,1-.352.373c-.963.021-1.94-.021-2.9.021-.155,1.061-.338,2.123-.5,3.184a.436.436,0,0,1-.4.4q-.6.011-1.2,0a.429.429,0,0,1-.4-.527Q-1924.755,247.263-1924.084,243.116Zm7.141-.38c.366-.028.738-.007,1.1-.014a.453.453,0,0,1,.471.394,4.867,4.867,0,0,1-.07.548c-.3,1.884-.6,3.768-.893,5.651a2.2,2.2,0,0,0-.028.935c.105.309.576.176.689.5a2.375,2.375,0,0,1-.028.8c-.021.351-.422.429-.7.506a1.859,1.859,0,0,1-1.75-.464,1.635,1.635,0,0,1-.267-1.314q.559-3.585,1.125-7.177A.425.425,0,0,1-1916.943,242.736Zm13.953.38a.444.444,0,0,1,.422-.394h1.068a.446.446,0,0,1,.422.534c-.246,1.56-.5,3.121-.745,4.681a1.648,1.648,0,0,0,1.054-.429,6.541,6.541,0,0,0,1.062-1.659c.091-.232.141-.569.443-.612.4-.014.808-.007,1.209,0a.424.424,0,0,1,.386.555,4.987,4.987,0,0,1-.464,1.047,7.938,7.938,0,0,1-1.448,1.835c.26.78.591,1.539.879,2.306.084.253.288.548.1.794-.218.3-.626.147-.928.183-.316-.035-.773.127-.949-.232-.33-.766-.6-1.553-.942-2.32a4.252,4.252,0,0,1-.6-.007l-.056.112c-.105.7-.218,1.406-.33,2.109a.418.418,0,0,1-.358.33c-.373.014-.752.007-1.132.007a.438.438,0,0,1-.38-.246.775.775,0,0,1-.007-.457Q-1903.63,247.186-1902.99,243.116Zm19.534.766a.437.437,0,0,1,.436-.323c.281.007.569-.007.858.007a.422.422,0,0,1,.386.464c-.042.4-.141.8-.168,1.2.274,0,.555-.007.829,0a.434.434,0,0,1,.408.492c-.035.218-.084.429-.12.647a.457.457,0,0,1-.365.358c-.337.021-.668-.014-1,.021-.141.942-.3,1.884-.443,2.826a1,1,0,0,0,.091.654c.19.232.52.148.787.176a.463.463,0,0,1,.309.506c-.035.239-.042.478-.1.71-.084.26-.387.309-.618.373a2.443,2.443,0,0,1-1.947-.2,1.72,1.72,0,0,1-.555-1.645c.148-1.139.38-2.27.506-3.416-.2.007-.436.035-.583-.141-.169-.176-.084-.436-.056-.654s.035-.534.288-.661a2.866,2.866,0,0,1,.654-.049C-1883.723,244.775-1883.6,244.325-1883.456,243.882Zm-3.971,2.277a3.827,3.827,0,0,1,1.588-.991.446.446,0,0,1,.6.4c-.049.387-.141.766-.2,1.146a.447.447,0,0,1-.38.373,3.323,3.323,0,0,0-1.764,1.026c-.12.148-.3.288-.316.492-.148.984-.3,1.968-.457,2.952a.434.434,0,0,1-.422.4h-1.068a.44.44,0,0,1-.436-.478c.309-1.947.619-3.887.921-5.834a.429.429,0,0,1,.359-.408c.26-.014.52-.007.787-.007a.422.422,0,0,1,.408.408c0,.3-.028.611-.035.921A3.194,3.194,0,0,0-1887.427,246.16Zm-26.275-.893a7.913,7.913,0,0,1,1.153-.035.432.432,0,0,1,.485.33,2.258,2.258,0,0,1-.049.576q-.432,2.71-.858,5.419a.432.432,0,0,1-.408.4c-.38,0-.759.007-1.146-.007a.442.442,0,0,1-.351-.534c.3-1.877.59-3.746.893-5.623A.561.561,0,0,1-1913.7,245.267Zm22.746.091a11.239,11.239,0,0,0-3.177-.232,3.654,3.654,0,0,0-2.488,1.329,4.877,4.877,0,0,0-.9,3.683,2.492,2.492,0,0,0,.865,1.61,2.134,2.134,0,0,0,1.652.316,3.975,3.975,0,0,0,2-1.223c.028.239-.028.478-.014.71a.436.436,0,0,0,.429.408h.717a.431.431,0,0,0,.4-.4q.453-2.857.9-5.7A.444.444,0,0,0-1890.956,245.358Zm-1.975,3.311a5.419,5.419,0,0,1-1.118,1.413,1.157,1.157,0,0,1-.921.359c-.338-.07-.5-.422-.577-.724a3.092,3.092,0,0,1,.429-2.327,1.5,1.5,0,0,1,.879-.654,3.066,3.066,0,0,1,1.554.077l.028.028C-1892.72,247.453-1892.84,248.058-1892.931,248.669Zm-11.823-1.054a2.906,2.906,0,0,0-.689-1.968,1.779,1.779,0,0,0-1.335-.555,3.193,3.193,0,0,0-2.179.907c-.134.105-.225.26-.373.344,0-.232.021-.464.014-.7a.417.417,0,0,0-.408-.408h-.717a.441.441,0,0,0-.422.415q-.664,4.217-1.335,8.435a.436.436,0,0,0,.429.52,9.407,9.407,0,0,0,1.181-.028c.309-.084.3-.443.351-.7.113-.619.19-1.237.26-1.863a4.457,4.457,0,0,0,4.027-.963A4.852,4.852,0,0,0-1904.754,247.615Zm-1.968.71a2.834,2.834,0,0,1-.724,1.771,2.285,2.285,0,0,1-2.186.288.473.473,0,0,1-.042-.084c.112-.612.169-1.23.309-1.835a4.3,4.3,0,0,1,1.553-1.659.652.652,0,0,1,.78.141A1.976,1.976,0,0,1-1906.722,248.325Z" transform="translate(1925.412 -237.604)" fill="#107bd4" stroke="#107bd4" stroke-width="0.101"/>
    </g>
  </g>
</svg>
