<svg id="Qualcomm" xmlns="http://www.w3.org/2000/svg" width="99.101" height="18.184" viewBox="0 0 99.101 18.184">
  <g id="Group_76802" data-name="Group 76802" transform="translate(0 0)">
    <g id="Group_76790" data-name="Group 76790">
      <path id="qualcomm-logo" d="M26.877,5.341a.5.5,0,0,1,.494.5v9.408a.49.49,0,0,1-.494.469H25.6a.473.473,0,0,1-.482-.452V14.4a3.833,3.833,0,0,1-3.369,1.61,4.143,4.143,0,0,1-4.387-4.456V5.821a.506.506,0,0,1,.51-.478h1.277a.473.473,0,0,1,.471.478v5.354a2.549,2.549,0,0,0,2.71,2.871A2.644,2.644,0,0,0,25.118,11.2V5.824a.49.49,0,0,1,.482-.478ZM8.034.134a7.807,7.807,0,0,0-7.9,7.931,7.819,7.819,0,0,0,7.9,7.94,8.134,8.134,0,0,0,2.157-.292l.854,2.2a.546.546,0,0,0,.581.4h1.362a.417.417,0,0,0,.411-.632L12.3,14.79a7.822,7.822,0,0,0,3.64-6.725A7.807,7.807,0,0,0,8.036.132m3.443,12.529-1-2.589a.617.617,0,0,0-.643-.407h-1.3a.424.424,0,0,0-.436.618l1.311,3.4a5.374,5.374,0,0,1-1.373.172A5.473,5.473,0,0,1,2.558,8.063a5.484,5.484,0,1,1,10.951,0,5.849,5.849,0,0,1-2.03,4.594m87.715,2.536a.352.352,0,0,1-.349.519H97.426a.572.572,0,0,1-.574-.379l-2.632-7.1-2.69,7.1a.551.551,0,0,1-.56.379H89.7a.565.565,0,0,1-.574-.379l-2.7-7.141L83.76,15.332a.574.574,0,0,1-.567.379H81.854a.57.57,0,0,1-.565-.379L78.645,8.192l-2.722,7.141a.57.57,0,0,1-.576.379h-1.27a.54.54,0,0,1-.56-.379L70.852,8.192l-2.657,7.141a.57.57,0,0,1-.576.379H66.231a.356.356,0,0,1-.347-.519l3.624-9.447a.569.569,0,0,1,.565-.4h1.562a.552.552,0,0,1,.551.4l2.552,6.9,2.582-6.9a.583.583,0,0,1,.572-.4h1.532a.56.56,0,0,1,.56.4l2.561,6.9,2.549-6.9a.573.573,0,0,1,.56-.4H87.2a.576.576,0,0,1,.558.4l2.6,6.9,2.529-6.9a.581.581,0,0,1,.567-.4h1.562a.574.574,0,0,1,.563.4L99.2,15.192M39.268,5.341H37.98a.512.512,0,0,0-.505.5V6.7a4.011,4.011,0,0,0-3.386-1.658,5.275,5.275,0,0,0-5.241,5.469,5.261,5.261,0,0,0,5.216,5.492,4.074,4.074,0,0,0,3.413-1.677v.919a.5.5,0,0,0,.5.466h1.286a.466.466,0,0,0,.471-.469V5.837a.475.475,0,0,0-.469-.494m-4.945,8.579a3.218,3.218,0,0,1-3.183-3.386,3.19,3.19,0,1,1,6.369,0,3.234,3.234,0,0,1-3.186,3.386m20.178.326a.455.455,0,0,1-.1.712,5.55,5.55,0,0,1-3.346,1.045,5.214,5.214,0,0,1-5.365-5.469,5.225,5.225,0,0,1,5.365-5.492A5.52,5.52,0,0,1,54.4,6.074a.465.465,0,0,1,.1.712l-.606.841a.487.487,0,0,1-.758.092,3.792,3.792,0,0,0-2.005-.625,3.191,3.191,0,0,0-3.147,3.443,3.172,3.172,0,0,0,3.147,3.411,3.906,3.906,0,0,0,1.968-.632c.234-.122.5-.234.758.115Zm6.02-9.187a5.407,5.407,0,0,0-5.453,5.476,5.456,5.456,0,1,0,10.912,0,5.409,5.409,0,0,0-5.46-5.476m0,8.84a3.2,3.2,0,0,1-3.183-3.365,3.19,3.19,0,1,1,6.369,0A3.2,3.2,0,0,1,60.521,13.9M43.743.419a.482.482,0,0,1,.478.492V15.22a.482.482,0,0,1-.478.494H42.461a.512.512,0,0,1-.494-.494V.911a.512.512,0,0,1,.494-.494Z" transform="translate(-0.133 -0.132)" fill="#3051dc" fill-rule="evenodd"/>
    </g>
  </g>
</svg>
